<?xml version="1.0" encoding="UTF-8" standalone="no"?>
<!DOCTYPE score-partwise PUBLIC "-//Recordare//DTD MusicXML 1.1 Partwise//EN" "http://www.musicxml.org/dtds/partwise.dtd">

<score-partwise version="2.0">
	<movement-title></movement-title>
	<identification>
		<creator type="composer"></creator>
		<encoding>
			<software>SmartScore X2 Songbook Edition</software>
			<encoding-date>2017-12-26</encoding-date>
			<supports attribute="new-system" element="print" type="yes" value="yes"/>
			<supports attribute="new-page" element="print" type="yes" value="yes"/>
		</encoding>
	</identification>
	<defaults>
		<scaling>
			<millimeters>6.00</millimeters>
			<tenths>40</tenths>
		</scaling>
		<page-layout>
			<page-height>1862.67</page-height>
			<page-width>1439.33</page-width>
			<page-margins type="both">
				<left-margin>162.24</left-margin>
				<right-margin>162.24</right-margin>
				<top-margin>386.89</top-margin>
				<bottom-margin>386.89</bottom-margin>
			</page-margins>
		</page-layout>
	</defaults>
	<part-list>
		<score-part id="P1">
			<part-name>Nylon Guitar</part-name>
			<part-abbreviation>GuitNyl</part-abbreviation>
			<score-instrument id="P1-S0V0">
				<instrument-name>Nylon String Guit.</instrument-name>
			</score-instrument>
			<midi-instrument id="P1-S0V0">
				<midi-channel>1</midi-channel>
				<midi-program>25</midi-program>
				<volume>78</volume>
				<pan>0</pan>
			</midi-instrument>
		</score-part>
	</part-list><!--
===========================================================
-->

	<part id="P1">
		<measure number="1" width="142">
			<print>
				<page-layout>
					<page-height>1862.67</page-height>
					<page-width>1439.33</page-width>
					<page-margins>
						<left-margin>162.24</left-margin>
						<right-margin>162.24</right-margin>
						<top-margin>386.89</top-margin>
						<bottom-margin>193.44</bottom-margin>
					</page-margins>
				</page-layout>
				<system-layout>
					<system-margins>
						<left-margin>0</left-margin>
						<right-margin>0</right-margin>
					</system-margins>
					<top-system-distance>0</top-system-distance>
				</system-layout>
			</print>
			<attributes>
				<divisions>40</divisions>
				<key>
					<fifths>-1</fifths>
				</key>
				<time>
					<beats>4</beats>
					<beat-type>4</beat-type>
				</time>
				<clef>
					<sign>G</sign>
					<line>2</line>
				</clef>
				<staff-details number="1" print-object="yes">
					<staff-size>117</staff-size>
				</staff-details>
				<transpose>
					<diatonic>0</diatonic>
					<chromatic>0</chromatic>
					<octave-change>-1</octave-change>
				</transpose>
			</attributes>
			<attributes></attributes>
			<forward>
				<duration>160</duration>
			</forward>
		</measure><!--
===========================================================
-->

		<measure number="2" width="261">
			<print new-system="no"></print>
			<attributes></attributes>
			<harmony default-y="117.8202">
				<root>
					<root-step>G</root-step>
				</root>
				<kind>minor-seventh</kind>
				<frame default-y="106.1253" valign="top">
					<frame-strings>6</frame-strings>
					<frame-frets>6</frame-frets>
					<frame-note>
						<string>6</string>
						<fret>0</fret>
					</frame-note>
					<frame-note>
						<string>5</string>
						<fret>5</fret>
					</frame-note>
					<frame-note>
						<string>4</string>
						<fret>3</fret>
					</frame-note>
					<frame-note>
						<string>3</string>
						<fret>3</fret>
					</frame-note>
					<frame-note>
						<string>2</string>
						<fret>3</fret>
					</frame-note>
					<frame-note>
						<string>1</string>
						<fret>3</fret>
					</frame-note>
				</frame>
				<offset>10</offset>
				<staff>1</staff>
			</harmony>
			<note>
				<pitch>
					<step>C</step>
					<octave>6</octave>
				</pitch>
				<duration>20</duration>
				<voice>1</voice>
				<type>eighth</type>
				<stem>down</stem>
			</note>
			<note>
				<pitch>
					<step>D</step>
					<octave>6</octave>
				</pitch>
				<duration>40</duration>
				<voice>1</voice>
				<type>quarter</type>
				<stem>down</stem>
			</note>
			<note>
				<pitch>
					<step>D</step>
					<octave>6</octave>
				</pitch>
				<duration>20</duration>
				<tie type="start"/>
				<voice>1</voice>
				<type>eighth</type>
				<stem>down</stem>
				<notations>
					<tied type="start" number="1" orientation="over"/>
				</notations>
			</note>
			<harmony default-y="104.8182">
				<root>
					<root-step>G</root-step>
					<root-alter>-1</root-alter>
				</root>
				<kind>diminished</kind>
				<frame default-y="93.1233" valign="top">
					<frame-strings>6</frame-strings>
					<frame-frets>5</frame-frets>
					<frame-note>
						<string>6</string>
						<fret>0</fret>
					</frame-note>
					<frame-note>
						<string>5</string>
						<fret>0</fret>
					</frame-note>
					<frame-note>
						<string>4</string>
						<fret>4</fret>
					</frame-note>
					<frame-note>
						<string>3</string>
						<fret>3</fret>
					</frame-note>
					<frame-note>
						<string>2</string>
						<fret>1</fret>
					</frame-note>
					<frame-note>
						<string>1</string>
						<fret>2</fret>
					</frame-note>
				</frame>
				<offset>-4</offset>
				<staff>1</staff>
			</harmony>
			<note>
				<pitch>
					<step>D</step>
					<octave>6</octave>
				</pitch>
				<duration>80</duration>
				<tie type="stop"/>
				<voice>1</voice>
				<type>half</type>
				<stem>down</stem>
				<notations>
					<tied type="stop" number="1" orientation="over"/>
				</notations>
			</note>
		</measure><!--
===========================================================
-->

		<measure number="3" width="242">
			<print new-system="no"></print>
			<attributes></attributes>
			<harmony default-y="117.8202">
				<root>
					<root-step>G</root-step>
				</root>
				<kind>minor-seventh</kind>
				<frame default-y="106.1253" valign="top">
					<frame-strings>6</frame-strings>
					<frame-frets>6</frame-frets>
					<frame-note>
						<string>6</string>
						<fret>0</fret>
					</frame-note>
					<frame-note>
						<string>5</string>
						<fret>5</fret>
					</frame-note>
					<frame-note>
						<string>4</string>
						<fret>3</fret>
					</frame-note>
					<frame-note>
						<string>3</string>
						<fret>3</fret>
					</frame-note>
					<frame-note>
						<string>2</string>
						<fret>3</fret>
					</frame-note>
					<frame-note>
						<string>1</string>
						<fret>3</fret>
					</frame-note>
				</frame>
				<offset>7</offset>
				<staff>1</staff>
			</harmony>
			<note>
				<pitch>
					<step>D</step>
					<octave>6</octave>
				</pitch>
				<duration>20</duration>
				<voice>1</voice>
				<type>eighth</type>
				<stem>down</stem>
			</note>
			<note>
				<pitch>
					<step>C</step>
					<octave>6</octave>
				</pitch>
				<duration>40</duration>
				<voice>1</voice>
				<type>quarter</type>
				<stem>down</stem>
			</note>
			<note>
				<pitch>
					<step>C</step>
					<octave>6</octave>
				</pitch>
				<duration>20</duration>
				<tie type="start"/>
				<voice>1</voice>
				<type>eighth</type>
				<stem>down</stem>
				<notations>
					<tied type="start" number="1" orientation="over"/>
				</notations>
			</note>
			<harmony default-y="104.8182">
				<root>
					<root-step>C</root-step>
				</root>
				<kind>dominant</kind>
				<frame default-y="93.1233" valign="top">
					<frame-strings>6</frame-strings>
					<frame-frets>5</frame-frets>
					<frame-note>
						<string>6</string>
						<fret>0</fret>
					</frame-note>
					<frame-note>
						<string>5</string>
						<fret>3</fret>
					</frame-note>
					<frame-note>
						<string>4</string>
						<fret>2</fret>
					</frame-note>
					<frame-note>
						<string>3</string>
						<fret>3</fret>
					</frame-note>
					<frame-note>
						<string>2</string>
						<fret>1</fret>
					</frame-note>
					<frame-note>
						<string>1</string>
						<fret>0</fret>
					</frame-note>
				</frame>
				<offset>4</offset>
				<staff>1</staff>
			</harmony>
			<note>
				<pitch>
					<step>C</step>
					<octave>6</octave>
				</pitch>
				<duration>80</duration>
				<tie type="stop"/>
				<voice>1</voice>
				<type>half</type>
				<stem>down</stem>
				<notations>
					<tied type="stop" number="1" orientation="over"/>
				</notations>
			</note>
		</measure><!--
===========================================================
-->

		<measure number="4" width="227">
			<print new-system="no"></print>
			<attributes></attributes>
			<harmony default-y="117.8202">
				<root>
					<root-step>C</root-step>
				</root>
				<kind>minor-seventh</kind>
				<frame default-y="106.1253" valign="top">
					<frame-strings>6</frame-strings>
					<frame-frets>6</frame-frets>
					<frame-note>
						<string>6</string>
						<fret>0</fret>
					</frame-note>
					<frame-note>
						<string>5</string>
						<fret>3</fret>
					</frame-note>
					<frame-note>
						<string>4</string>
						<fret>5</fret>
					</frame-note>
					<frame-note>
						<string>3</string>
						<fret>3</fret>
					</frame-note>
					<frame-note>
						<string>2</string>
						<fret>4</fret>
					</frame-note>
					<frame-note>
						<string>1</string>
						<fret>3</fret>
					</frame-note>
				</frame>
				<offset>7</offset>
				<staff>1</staff>
			</harmony>
			<note>
				<pitch>
					<step>C</step>
					<octave>6</octave>
				</pitch>
				<duration>40</duration>
				<voice>1</voice>
				<type>quarter</type>
				<stem>down</stem>
			</note>
			<note>
				<pitch>
					<step>D</step>
					<octave>6</octave>
				</pitch>
				<duration>40</duration>
				<voice>1</voice>
				<type>quarter</type>
				<stem>down</stem>
			</note>
			<harmony default-y="104.8182">
				<root>
					<root-step>F</root-step>
				</root>
				<kind>dominant</kind>
				<frame default-y="93.1233" valign="top">
					<frame-strings>6</frame-strings>
					<frame-frets>5</frame-frets>
					<frame-note>
						<string>6</string>
						<fret>1</fret>
					</frame-note>
					<frame-note>
						<string>5</string>
						<fret>3</fret>
					</frame-note>
					<frame-note>
						<string>4</string>
						<fret>1</fret>
					</frame-note>
					<frame-note>
						<string>3</string>
						<fret>2</fret>
					</frame-note>
					<frame-note>
						<string>2</string>
						<fret>1</fret>
					</frame-note>
					<frame-note>
						<string>1</string>
						<fret>1</fret>
					</frame-note>
				</frame>
				<offset>5</offset>
				<staff>1</staff>
			</harmony>
			<note>
				<pitch>
					<step>D</step>
					<octave>6</octave>
				</pitch>
				<duration>40</duration>
				<voice>1</voice>
				<type>quarter</type>
				<stem>down</stem>
			</note>
			<note>
				<pitch>
					<step>C</step>
					<octave>6</octave>
				</pitch>
				<duration>40</duration>
				<voice>1</voice>
				<type>quarter</type>
				<stem>down</stem>
			</note>
		</measure><!--
===========================================================
-->

		<measure number="5" width="240">
			<print new-system="no"></print>
			<attributes></attributes>
			<harmony default-y="104.8182">
				<root>
					<root-step>B</root-step>
					<root-alter>-1</root-alter>
				</root>
				<kind>major-seventh</kind>
				<frame default-y="93.1233" valign="top">
					<frame-strings>6</frame-strings>
					<frame-frets>5</frame-frets>
					<frame-note>
						<string>6</string>
						<fret>0</fret>
					</frame-note>
					<frame-note>
						<string>5</string>
						<fret>1</fret>
					</frame-note>
					<frame-note>
						<string>4</string>
						<fret>3</fret>
					</frame-note>
					<frame-note>
						<string>3</string>
						<fret>2</fret>
					</frame-note>
					<frame-note>
						<string>2</string>
						<fret>3</fret>
					</frame-note>
					<frame-note>
						<string>1</string>
						<fret>1</fret>
					</frame-note>
				</frame>
				<offset>10</offset>
				<staff>1</staff>
			</harmony>
			<note>
				<pitch>
					<step>G</step>
					<octave>5</octave>
				</pitch>
				<duration>20</duration>
				<voice>1</voice>
				<type>eighth</type>
				<stem>down</stem>
			</note>
			<note>
				<pitch>
					<step>F</step>
					<octave>5</octave>
				</pitch>
				<duration>40</duration>
				<voice>1</voice>
				<type>quarter</type>
				<stem>down</stem>
				<notations>
					<articulations>
						<strong-accent placement="above"/>
					</articulations>
				</notations>
			</note>
			<note>
				<pitch>
					<step>F</step>
					<octave>5</octave>
				</pitch>
				<duration>20</duration>
				<tie type="start"/>
				<voice>1</voice>
				<type>eighth</type>
				<stem>down</stem>
				<notations>
					<tied type="start" number="1" orientation="over"/>
				</notations>
			</note>
			<harmony default-y="104.8182">
				<root>
					<root-step>E</root-step>
				</root>
				<kind>dominant</kind>
				<frame default-y="93.1233" valign="top">
					<frame-strings>6</frame-strings>
					<frame-frets>5</frame-frets>
					<frame-note>
						<string>6</string>
						<fret>0</fret>
					</frame-note>
					<frame-note>
						<string>5</string>
						<fret>2</fret>
					</frame-note>
					<frame-note>
						<string>4</string>
						<fret>2</fret>
					</frame-note>
					<frame-note>
						<string>3</string>
						<fret>1</fret>
					</frame-note>
					<frame-note>
						<string>2</string>
						<fret>3</fret>
					</frame-note>
					<frame-note>
						<string>1</string>
						<fret>0</fret>
					</frame-note>
				</frame>
				<offset>5</offset>
				<staff>1</staff>
			</harmony>
			<note>
				<pitch>
					<step>F</step>
					<octave>5</octave>
				</pitch>
				<duration>80</duration>
				<tie type="stop"/>
				<voice>1</voice>
				<type>half</type>
				<stem>down</stem>
				<notations>
					<tied type="stop" number="1" orientation="over"/>
				</notations>
			</note>
		</measure><!--
===========================================================
-->

		<measure number="6" width="280">
			<print new-system="yes">
				<system-layout>
					<system-margins>
						<left-margin>0</left-margin>
						<right-margin>533</right-margin>
					</system-margins>
					<system-distance>118</system-distance>
				</system-layout>
			</print>
			<attributes></attributes>
			<note>
				<pitch>
					<step>F</step>
					<octave>5</octave>
				</pitch>
				<duration>20</duration>
				<voice>1</voice>
				<type>eighth</type>
				<stem>down</stem>
				<notations>
					<articulations>
						<strong-accent placement="above"/>
					</articulations>
				</notations>
			</note>
			<harmony default-y="104.8182">
				<root>
					<root-step>F</root-step>
				</root>
				<kind>major-seventh</kind>
				<frame default-y="93.1233" valign="top">
					<frame-strings>6</frame-strings>
					<frame-frets>5</frame-frets>
					<frame-note>
						<string>6</string>
						<fret>0</fret>
					</frame-note>
					<frame-note>
						<string>5</string>
						<fret>0</fret>
					</frame-note>
					<frame-note>
						<string>4</string>
						<fret>3</fret>
					</frame-note>
					<frame-note>
						<string>3</string>
						<fret>2</fret>
					</frame-note>
					<frame-note>
						<string>2</string>
						<fret>1</fret>
					</frame-note>
					<frame-note>
						<string>1</string>
						<fret>0</fret>
					</frame-note>
				</frame>
				<offset>0</offset>
				<staff>1</staff>
			</harmony>
			<note>
				<pitch>
					<step>G</step>
					<octave>5</octave>
				</pitch>
				<duration>40</duration>
				<voice>1</voice>
				<type>quarter</type>
				<stem>down</stem>
			</note>
			<note>
				<pitch>
					<step>G</step>
					<octave>5</octave>
				</pitch>
				<duration>20</duration>
				<tie type="start"/>
				<voice>1</voice>
				<type>eighth</type>
				<stem>down</stem>
				<notations>
					<tied type="start" number="1" orientation="over"/>
				</notations>
			</note>
			<harmony default-y="104.8182">
				<root>
					<root-step>A</root-step>
					<root-alter>-1</root-alter>
				</root>
				<kind>diminished</kind>
				<frame default-y="93.1233" valign="top">
					<frame-strings>6</frame-strings>
					<frame-frets>5</frame-frets>
					<frame-note>
						<string>6</string>
						<fret>4</fret>
					</frame-note>
					<frame-note>
						<string>5</string>
						<fret>0</fret>
					</frame-note>
					<frame-note>
						<string>4</string>
						<fret>3</fret>
					</frame-note>
					<frame-note>
						<string>3</string>
						<fret>4</fret>
					</frame-note>
					<frame-note>
						<string>2</string>
						<fret>3</fret>
					</frame-note>
					<frame-note>
						<string>1</string>
						<fret>0</fret>
					</frame-note>
				</frame>
				<offset>0</offset>
				<staff>1</staff>
			</harmony>
			<note>
				<pitch>
					<step>G</step>
					<octave>5</octave>
				</pitch>
				<duration>80</duration>
				<tie type="stop"/>
				<voice>1</voice>
				<type>half</type>
				<stem>down</stem>
				<notations>
					<tied type="stop" number="1" orientation="over"/>
				</notations>
			</note>
		</measure><!--
===========================================================
-->

		<measure number="7" width="300">
			<print new-system="no"></print>
			<attributes></attributes>
			<note>
				<pitch>
					<step>D</step>
					<octave>5</octave>
				</pitch>
				<duration>20</duration>
				<voice>1</voice>
				<type>eighth</type>
				<stem>down</stem>
			</note>
			<harmony default-y="117.8202">
				<root>
					<root-step>G</root-step>
				</root>
				<kind>minor-seventh</kind>
				<frame default-y="106.1253" valign="top">
					<frame-strings>6</frame-strings>
					<frame-frets>6</frame-frets>
					<frame-note>
						<string>6</string>
						<fret>0</fret>
					</frame-note>
					<frame-note>
						<string>5</string>
						<fret>5</fret>
					</frame-note>
					<frame-note>
						<string>4</string>
						<fret>3</fret>
					</frame-note>
					<frame-note>
						<string>3</string>
						<fret>3</fret>
					</frame-note>
					<frame-note>
						<string>2</string>
						<fret>3</fret>
					</frame-note>
					<frame-note>
						<string>1</string>
						<fret>3</fret>
					</frame-note>
				</frame>
				<offset>-9</offset>
				<staff>1</staff>
			</harmony>
			<note>
				<pitch>
					<step>C</step>
					<octave>5</octave>
				</pitch>
				<duration>40</duration>
				<voice>1</voice>
				<type>quarter</type>
				<stem>down</stem>
			</note>
			<note>
				<pitch>
					<step>C</step>
					<octave>5</octave>
				</pitch>
				<duration>20</duration>
				<tie type="start"/>
				<voice>1</voice>
				<type>eighth</type>
				<stem>down</stem>
				<notations>
					<tied type="start" number="1" orientation="over"/>
				</notations>
			</note>
			<harmony default-y="104.8182">
				<root>
					<root-step>G</root-step>
					<root-alter>-1</root-alter>
				</root>
				<kind>diminished</kind>
				<frame default-y="93.1233" valign="top">
					<frame-strings>6</frame-strings>
					<frame-frets>5</frame-frets>
					<frame-note>
						<string>6</string>
						<fret>0</fret>
					</frame-note>
					<frame-note>
						<string>5</string>
						<fret>0</fret>
					</frame-note>
					<frame-note>
						<string>4</string>
						<fret>4</fret>
					</frame-note>
					<frame-note>
						<string>3</string>
						<fret>3</fret>
					</frame-note>
					<frame-note>
						<string>2</string>
						<fret>1</fret>
					</frame-note>
					<frame-note>
						<string>1</string>
						<fret>2</fret>
					</frame-note>
				</frame>
				<offset>13</offset>
				<staff>1</staff>
			</harmony>
			<note>
				<pitch>
					<step>C</step>
					<octave>5</octave>
				</pitch>
				<duration>40</duration>
				<tie type="stop"/>
				<tie type="start"/>
				<voice>1</voice>
				<type>quarter</type>
				<stem>down</stem>
				<notations>
					<tied type="stop" number="1" orientation="over"/>
					<tied type="start" number="1" orientation="over"/>
				</notations>
			</note>
			<note>
				<pitch>
					<step>C</step>
					<octave>5</octave>
				</pitch>
				<duration>30</duration>
				<tie type="stop"/>
				<voice>1</voice>
				<type>eighth</type>
				<dot/>
				<stem>down</stem>
				<beam number="1">begin</beam>
				<notations>
					<tied type="stop" number="1" orientation="over"/>
				</notations>
			</note>
			<note>
				<pitch>
					<step>C</step>
					<octave>5</octave>
				</pitch>
				<duration>10</duration>
				<voice>1</voice>
				<type>16th</type>
				<stem>down</stem>
				<beam number="1">end</beam>
				<beam number="2">backward hook</beam>
			</note>
		</measure><!--
===========================================================
-->

		<measure number="8" width="288">
			<print new-system="yes">
				<system-layout>
					<system-margins>
						<left-margin>8</left-margin>
						<right-margin>1</right-margin>
					</system-margins>
					<system-distance>117</system-distance>
				</system-layout>
			</print>
			<attributes>
				<staff-details number="1" print-object="yes">
					<staff-size>112</staff-size>
				</staff-details>
			</attributes>
			<note>
				<pitch>
					<step>D</step>
					<octave>5</octave>
				</pitch>
				<duration>30</duration>
				<voice>1</voice>
				<type>eighth</type>
				<dot/>
				<stem>down</stem>
				<beam number="1">begin</beam>
			</note>
			<harmony default-y="112.8026">
				<root>
					<root-step>G</root-step>
				</root>
				<kind>minor-seventh</kind>
				<frame default-y="101.6058" valign="top">
					<frame-strings>6</frame-strings>
					<frame-frets>6</frame-frets>
					<frame-note>
						<string>6</string>
						<fret>0</fret>
					</frame-note>
					<frame-note>
						<string>5</string>
						<fret>5</fret>
					</frame-note>
					<frame-note>
						<string>4</string>
						<fret>3</fret>
					</frame-note>
					<frame-note>
						<string>3</string>
						<fret>3</fret>
					</frame-note>
					<frame-note>
						<string>2</string>
						<fret>3</fret>
					</frame-note>
					<frame-note>
						<string>1</string>
						<fret>3</fret>
					</frame-note>
				</frame>
				<offset>-7</offset>
				<staff>1</staff>
			</harmony>
			<note>
				<pitch>
					<step>F</step>
					<octave>5</octave>
				</pitch>
				<duration>10</duration>
				<voice>1</voice>
				<type>16th</type>
				<stem>down</stem>
				<beam number="1">continue</beam>
				<beam number="2">forward hook</beam>
			</note>
			<note>
				<pitch>
					<step>G</step>
					<octave>5</octave>
				</pitch>
				<duration>30</duration>
				<voice>1</voice>
				<type>eighth</type>
				<dot/>
				<stem>down</stem>
				<beam number="1">continue</beam>
			</note>
			<note>
				<pitch>
					<step>F</step>
					<octave>5</octave>
				</pitch>
				<duration>10</duration>
				<voice>1</voice>
				<type>16th</type>
				<stem>down</stem>
				<beam number="1">end</beam>
				<beam number="2">backward hook</beam>
			</note>
			<harmony default-y="100.3543">
				<root>
					<root-step>C</root-step>
				</root>
				<kind>dominant</kind>
				<frame default-y="89.1575" valign="top">
					<frame-strings>6</frame-strings>
					<frame-frets>5</frame-frets>
					<frame-note>
						<string>6</string>
						<fret>0</fret>
					</frame-note>
					<frame-note>
						<string>5</string>
						<fret>3</fret>
					</frame-note>
					<frame-note>
						<string>4</string>
						<fret>2</fret>
					</frame-note>
					<frame-note>
						<string>3</string>
						<fret>3</fret>
					</frame-note>
					<frame-note>
						<string>2</string>
						<fret>1</fret>
					</frame-note>
					<frame-note>
						<string>1</string>
						<fret>0</fret>
					</frame-note>
				</frame>
				<offset>7</offset>
				<staff>1</staff>
			</harmony>
			<note>
				<pitch>
					<step>A</step>
					<alter>-1</alter>
					<octave>5</octave>
				</pitch>
				<duration>20</duration>
				<voice>1</voice>
				<type>eighth</type>
				<accidental parentheses="no">flat</accidental>
				<stem>down</stem>
			</note>
			<note>
				<pitch>
					<step>G</step>
					<octave>5</octave>
				</pitch>
				<duration>40</duration>
				<voice>1</voice>
				<type>quarter</type>
				<stem>down</stem>
			</note>
			<note>
				<pitch>
					<step>F</step>
					<octave>5</octave>
				</pitch>
				<duration>20</duration>
				<voice>1</voice>
				<type>eighth</type>
				<stem>down</stem>
			</note>
		</measure><!--
===========================================================
-->

		<measure number="9" width="264">
			<print new-system="no"></print>
			<attributes></attributes>
			<harmony default-y="100.3543">
				<root>
					<root-step>F</root-step>
				</root>
				<kind>major</kind>
				<frame default-y="89.1575" valign="top">
					<frame-strings>6</frame-strings>
					<frame-frets>5</frame-frets>
					<frame-note>
						<string>6</string>
						<fret>1</fret>
					</frame-note>
					<frame-note>
						<string>5</string>
						<fret>3</fret>
					</frame-note>
					<frame-note>
						<string>4</string>
						<fret>3</fret>
					</frame-note>
					<frame-note>
						<string>3</string>
						<fret>2</fret>
					</frame-note>
					<frame-note>
						<string>2</string>
						<fret>1</fret>
					</frame-note>
					<frame-note>
						<string>1</string>
						<fret>1</fret>
					</frame-note>
				</frame>
				<offset>6</offset>
				<staff>1</staff>
			</harmony>
			<note>
				<pitch>
					<step>F</step>
					<octave>5</octave>
				</pitch>
				<duration>120</duration>
				<voice>1</voice>
				<type>half</type>
				<dot/>
				<stem>down</stem>
				<notations>
					<articulations>
						<strong-accent placement="above"/>
					</articulations>
				</notations>
			</note>
			<harmony default-y="100.3543">
				<root>
					<root-step>F</root-step>
				</root>
				<kind>dominant</kind>
				<frame default-y="89.1575" valign="top">
					<frame-strings>6</frame-strings>
					<frame-frets>5</frame-frets>
					<frame-note>
						<string>6</string>
						<fret>1</fret>
					</frame-note>
					<frame-note>
						<string>5</string>
						<fret>3</fret>
					</frame-note>
					<frame-note>
						<string>4</string>
						<fret>1</fret>
					</frame-note>
					<frame-note>
						<string>3</string>
						<fret>2</fret>
					</frame-note>
					<frame-note>
						<string>2</string>
						<fret>1</fret>
					</frame-note>
					<frame-note>
						<string>1</string>
						<fret>1</fret>
					</frame-note>
				</frame>
				<offset>-19</offset>
				<staff>1</staff>
			</harmony>
			<note>
				<rest/>
				<duration>40</duration>
				<voice>1</voice>
				<type>quarter</type>
			</note>
		</measure><!--
===========================================================
-->

		<measure number="10" width="275">
			<print new-system="no"></print>
			<attributes></attributes>
			<harmony default-y="100.3543">
				<root>
					<root-step>B</root-step>
					<root-alter>-1</root-alter>
				</root>
				<kind>major-seventh</kind>
				<frame default-y="89.1575" valign="top">
					<frame-strings>6</frame-strings>
					<frame-frets>5</frame-frets>
					<frame-note>
						<string>6</string>
						<fret>0</fret>
					</frame-note>
					<frame-note>
						<string>5</string>
						<fret>1</fret>
					</frame-note>
					<frame-note>
						<string>4</string>
						<fret>3</fret>
					</frame-note>
					<frame-note>
						<string>3</string>
						<fret>2</fret>
					</frame-note>
					<frame-note>
						<string>2</string>
						<fret>3</fret>
					</frame-note>
					<frame-note>
						<string>1</string>
						<fret>1</fret>
					</frame-note>
				</frame>
				<offset>0</offset>
				<staff>1</staff>
			</harmony>
			<note>
				<pitch>
					<step>A</step>
					<octave>5</octave>
				</pitch>
				<duration>80</duration>
				<voice>1</voice>
				<type>half</type>
				<stem>down</stem>
			</note>
			<harmony default-y="100.3543">
				<root>
					<root-step>E</root-step>
					<root-alter>-1</root-alter>
				</root>
				<kind>dominant</kind>
				<frame default-y="89.1575" valign="top">
					<frame-strings>6</frame-strings>
					<frame-frets>5</frame-frets>
					<frame-note>
						<string>6</string>
						<fret>0</fret>
					</frame-note>
					<frame-note>
						<string>5</string>
						<fret>0</fret>
					</frame-note>
					<frame-note>
						<string>4</string>
						<fret>1</fret>
					</frame-note>
					<frame-note>
						<string>3</string>
						<fret>3</fret>
					</frame-note>
					<frame-note>
						<string>2</string>
						<fret>2</fret>
					</frame-note>
					<frame-note>
						<string>1</string>
						<fret>3</fret>
					</frame-note>
				</frame>
				<offset>10</offset>
				<staff>1</staff>
			</harmony>
			<note>
				<pitch>
					<step>G</step>
					<octave>5</octave>
				</pitch>
				<duration>20</duration>
				<voice>1</voice>
				<type>eighth</type>
				<stem>down</stem>
			</note>
			<note>
				<pitch>
					<step>B</step>
					<alter>-1</alter>
					<octave>5</octave>
				</pitch>
				<duration>40</duration>
				<voice>1</voice>
				<type>quarter</type>
				<stem>down</stem>
			</note>
			<note>
				<pitch>
					<step>G</step>
					<octave>5</octave>
				</pitch>
				<duration>20</duration>
				<voice>1</voice>
				<type>eighth</type>
				<stem>down</stem>
			</note>
		</measure><!--
===========================================================
-->

		<measure number="11" width="275">
			<print new-system="no"></print>
			<attributes></attributes>
			<harmony default-y="100.3543">
				<root>
					<root-step>B</root-step>
					<root-alter>-1</root-alter>
				</root>
				<kind>major-seventh</kind>
				<frame default-y="89.1575" valign="top">
					<frame-strings>6</frame-strings>
					<frame-frets>5</frame-frets>
					<frame-note>
						<string>6</string>
						<fret>0</fret>
					</frame-note>
					<frame-note>
						<string>5</string>
						<fret>1</fret>
					</frame-note>
					<frame-note>
						<string>4</string>
						<fret>3</fret>
					</frame-note>
					<frame-note>
						<string>3</string>
						<fret>2</fret>
					</frame-note>
					<frame-note>
						<string>2</string>
						<fret>3</fret>
					</frame-note>
					<frame-note>
						<string>1</string>
						<fret>1</fret>
					</frame-note>
				</frame>
				<offset>11</offset>
				<staff>1</staff>
			</harmony>
			<note>
				<pitch>
					<step>A</step>
					<octave>5</octave>
				</pitch>
				<duration>40</duration>
				<voice>1</voice>
				<type>quarter</type>
				<stem>down</stem>
			</note>
			<note>
				<pitch>
					<step>F</step>
					<octave>5</octave>
				</pitch>
				<duration>20</duration>
				<voice>1</voice>
				<type>eighth</type>
				<stem>down</stem>
				<beam number="1">begin</beam>
			</note>
			<note>
				<pitch>
					<step>G</step>
					<octave>5</octave>
				</pitch>
				<duration>20</duration>
				<tie type="start"/>
				<voice>1</voice>
				<type>eighth</type>
				<stem>down</stem>
				<beam number="1">end</beam>
				<notations>
					<tied type="start" number="1" orientation="over"/>
				</notations>
			</note>
			<harmony default-y="100.3543">
				<root>
					<root-step>E</root-step>
					<root-alter>-1</root-alter>
				</root>
				<kind>dominant</kind>
				<frame default-y="89.1575" valign="top">
					<frame-strings>6</frame-strings>
					<frame-frets>5</frame-frets>
					<frame-note>
						<string>6</string>
						<fret>0</fret>
					</frame-note>
					<frame-note>
						<string>5</string>
						<fret>0</fret>
					</frame-note>
					<frame-note>
						<string>4</string>
						<fret>1</fret>
					</frame-note>
					<frame-note>
						<string>3</string>
						<fret>3</fret>
					</frame-note>
					<frame-note>
						<string>2</string>
						<fret>2</fret>
					</frame-note>
					<frame-note>
						<string>1</string>
						<fret>3</fret>
					</frame-note>
				</frame>
				<offset>0</offset>
				<staff>1</staff>
			</harmony>
			<note>
				<pitch>
					<step>G</step>
					<octave>5</octave>
				</pitch>
				<duration>80</duration>
				<tie type="stop"/>
				<voice>1</voice>
				<type>half</type>
				<stem>down</stem>
				<notations>
					<tied type="stop" number="1" orientation="over"/>
				</notations>
			</note>
		</measure><!--
===========================================================
-->

		<measure number="12" width="304">
			<print new-system="yes">
				<system-layout>
					<system-margins>
						<left-margin>0</left-margin>
						<right-margin>0</right-margin>
					</system-margins>
					<system-distance>120</system-distance>
				</system-layout>
			</print>
			<attributes>
				<staff-details number="1" print-object="yes">
					<staff-size>117</staff-size>
				</staff-details>
			</attributes>
			<harmony default-y="104.8182">
				<root>
					<root-step>B</root-step>
					<root-alter>-1</root-alter>
				</root>
				<kind>major-seventh</kind>
				<frame default-y="93.1233" valign="top">
					<frame-strings>6</frame-strings>
					<frame-frets>5</frame-frets>
					<frame-note>
						<string>6</string>
						<fret>0</fret>
					</frame-note>
					<frame-note>
						<string>5</string>
						<fret>1</fret>
					</frame-note>
					<frame-note>
						<string>4</string>
						<fret>3</fret>
					</frame-note>
					<frame-note>
						<string>3</string>
						<fret>2</fret>
					</frame-note>
					<frame-note>
						<string>2</string>
						<fret>3</fret>
					</frame-note>
					<frame-note>
						<string>1</string>
						<fret>1</fret>
					</frame-note>
				</frame>
				<offset>7</offset>
				<staff>1</staff>
			</harmony>
			<note>
				<pitch>
					<step>A</step>
					<octave>5</octave>
				</pitch>
				<duration>40</duration>
				<voice>1</voice>
				<type>quarter</type>
				<stem>down</stem>
			</note>
			<note>
				<pitch>
					<step>A</step>
					<octave>5</octave>
				</pitch>
				<duration>40</duration>
				<voice>1</voice>
				<type>quarter</type>
				<stem>down</stem>
			</note>
			<note>
				<pitch>
					<step>G</step>
					<octave>5</octave>
				</pitch>
				<duration>20</duration>
				<voice>1</voice>
				<type>eighth</type>
				<stem>down</stem>
			</note>
			<harmony default-y="104.8182">
				<root>
					<root-step>E</root-step>
					<root-alter>-1</root-alter>
				</root>
				<kind>dominant</kind>
				<frame default-y="93.1233" valign="top">
					<frame-strings>6</frame-strings>
					<frame-frets>5</frame-frets>
					<frame-note>
						<string>6</string>
						<fret>0</fret>
					</frame-note>
					<frame-note>
						<string>5</string>
						<fret>0</fret>
					</frame-note>
					<frame-note>
						<string>4</string>
						<fret>1</fret>
					</frame-note>
					<frame-note>
						<string>3</string>
						<fret>3</fret>
					</frame-note>
					<frame-note>
						<string>2</string>
						<fret>2</fret>
					</frame-note>
					<frame-note>
						<string>1</string>
						<fret>3</fret>
					</frame-note>
				</frame>
				<offset>-4</offset>
				<staff>1</staff>
			</harmony>
			<note>
				<pitch>
					<step>B</step>
					<alter>-1</alter>
					<octave>5</octave>
				</pitch>
				<duration>40</duration>
				<voice>1</voice>
				<type>quarter</type>
				<stem>down</stem>
			</note>
			<note>
				<pitch>
					<step>G</step>
					<octave>5</octave>
				</pitch>
				<duration>20</duration>
				<voice>1</voice>
				<type>eighth</type>
				<stem>down</stem>
			</note>
		</measure><!--
===========================================================
-->

		<measure number="13" width="259">
			<print new-system="no"></print>
			<attributes></attributes>
			<harmony default-y="104.8182">
				<root>
					<root-step>B</root-step>
					<root-alter>-1</root-alter>
				</root>
				<kind>major-seventh</kind>
				<frame default-y="93.1233" valign="top">
					<frame-strings>6</frame-strings>
					<frame-frets>5</frame-frets>
					<frame-note>
						<string>6</string>
						<fret>0</fret>
					</frame-note>
					<frame-note>
						<string>5</string>
						<fret>1</fret>
					</frame-note>
					<frame-note>
						<string>4</string>
						<fret>3</fret>
					</frame-note>
					<frame-note>
						<string>3</string>
						<fret>2</fret>
					</frame-note>
					<frame-note>
						<string>2</string>
						<fret>3</fret>
					</frame-note>
					<frame-note>
						<string>1</string>
						<fret>1</fret>
					</frame-note>
				</frame>
				<offset>10</offset>
				<staff>1</staff>
			</harmony>
			<note>
				<pitch>
					<step>A</step>
					<octave>5</octave>
				</pitch>
				<duration>80</duration>
				<tie type="start"/>
				<voice>1</voice>
				<type>half</type>
				<stem>down</stem>
				<notations>
					<tied type="start" number="1" orientation="over"/>
				</notations>
			</note>
			<note>
				<pitch>
					<step>A</step>
					<octave>5</octave>
				</pitch>
				<duration>40</duration>
				<tie type="stop"/>
				<voice>1</voice>
				<type>quarter</type>
				<stem>down</stem>
				<notations>
					<tied type="stop" number="1" orientation="over"/>
				</notations>
			</note>
			<harmony default-y="104.8182">
				<root>
					<root-step>E</root-step>
				</root>
				<kind>dominant</kind>
				<frame default-y="93.1233" valign="top">
					<frame-strings>6</frame-strings>
					<frame-frets>5</frame-frets>
					<frame-note>
						<string>6</string>
						<fret>0</fret>
					</frame-note>
					<frame-note>
						<string>5</string>
						<fret>2</fret>
					</frame-note>
					<frame-note>
						<string>4</string>
						<fret>2</fret>
					</frame-note>
					<frame-note>
						<string>3</string>
						<fret>1</fret>
					</frame-note>
					<frame-note>
						<string>2</string>
						<fret>3</fret>
					</frame-note>
					<frame-note>
						<string>1</string>
						<fret>0</fret>
					</frame-note>
				</frame>
				<offset>-16</offset>
				<staff>1</staff>
			</harmony>
			<note>
				<rest/>
				<duration>40</duration>
				<voice>1</voice>
				<type>quarter</type>
			</note>
		</measure><!--
===========================================================
-->

		<measure number="14" width="277">
			<print new-system="no"></print>
			<attributes></attributes>
			<harmony default-y="104.8182">
				<root>
					<root-step>A</root-step>
				</root>
				<kind>minor-seventh</kind>
				<frame default-y="93.1233" valign="top">
					<frame-strings>6</frame-strings>
					<frame-frets>5</frame-frets>
					<frame-note>
						<string>6</string>
						<fret>0</fret>
					</frame-note>
					<frame-note>
						<string>5</string>
						<fret>0</fret>
					</frame-note>
					<frame-note>
						<string>4</string>
						<fret>2</fret>
					</frame-note>
					<frame-note>
						<string>3</string>
						<fret>0</fret>
					</frame-note>
					<frame-note>
						<string>2</string>
						<fret>1</fret>
					</frame-note>
					<frame-note>
						<string>1</string>
						<fret>0</fret>
					</frame-note>
				</frame>
				<offset>8</offset>
				<staff>1</staff>
			</harmony>
			<note>
				<pitch>
					<step>C</step>
					<octave>6</octave>
				</pitch>
				<duration>80</duration>
				<voice>1</voice>
				<type>half</type>
				<stem>down</stem>
			</note>
			<harmony default-y="104.8182">
				<root>
					<root-step>B</root-step>
				</root>
				<kind parentheses-degrees="yes">minor-seventh</kind>
				<degree>
					<degree-value>5</degree-value>
					<degree-alter>-1</degree-alter>
					<degree-type>alter</degree-type>
				</degree>
				<frame default-y="93.1233" valign="top">
					<frame-strings>6</frame-strings>
					<frame-frets>5</frame-frets>
					<frame-note>
						<string>6</string>
						<fret>0</fret>
					</frame-note>
					<frame-note>
						<string>5</string>
						<fret>0</fret>
					</frame-note>
					<frame-note>
						<string>4</string>
						<fret>0</fret>
					</frame-note>
					<frame-note>
						<string>3</string>
						<fret>2</fret>
					</frame-note>
					<frame-note>
						<string>2</string>
						<fret>0</fret>
					</frame-note>
					<frame-note>
						<string>1</string>
						<fret>1</fret>
					</frame-note>
				</frame>
				<offset>9</offset>
				<staff>1</staff>
			</harmony>
			<note>
				<pitch>
					<step>B</step>
					<octave>5</octave>
				</pitch>
				<duration>20</duration>
				<voice>1</voice>
				<type>eighth</type>
				<accidental parentheses="no">natural</accidental>
				<stem>down</stem>
			</note>
			<note>
				<pitch>
					<step>D</step>
					<octave>6</octave>
				</pitch>
				<duration>40</duration>
				<voice>1</voice>
				<type>quarter</type>
				<stem>down</stem>
			</note>
			<note>
				<pitch>
					<step>B</step>
					<octave>5</octave>
				</pitch>
				<duration>20</duration>
				<voice>1</voice>
				<type>eighth</type>
				<stem>down</stem>
			</note>
		</measure><!--
===========================================================
-->

		<measure number="15" width="271">
			<print new-system="no"></print>
			<attributes></attributes>
			<harmony default-y="104.8182">
				<root>
					<root-step>A</root-step>
				</root>
				<kind>minor-seventh</kind>
				<frame default-y="93.1233" valign="top">
					<frame-strings>6</frame-strings>
					<frame-frets>5</frame-frets>
					<frame-note>
						<string>6</string>
						<fret>0</fret>
					</frame-note>
					<frame-note>
						<string>5</string>
						<fret>0</fret>
					</frame-note>
					<frame-note>
						<string>4</string>
						<fret>2</fret>
					</frame-note>
					<frame-note>
						<string>3</string>
						<fret>0</fret>
					</frame-note>
					<frame-note>
						<string>2</string>
						<fret>1</fret>
					</frame-note>
					<frame-note>
						<string>1</string>
						<fret>0</fret>
					</frame-note>
				</frame>
				<offset>13</offset>
				<staff>1</staff>
			</harmony>
			<note>
				<pitch>
					<step>C</step>
					<octave>6</octave>
				</pitch>
				<duration>40</duration>
				<voice>1</voice>
				<type>quarter</type>
				<stem>down</stem>
			</note>
			<note>
				<pitch>
					<step>A</step>
					<octave>5</octave>
				</pitch>
				<duration>20</duration>
				<voice>1</voice>
				<type>eighth</type>
				<stem>down</stem>
				<beam number="1">begin</beam>
			</note>
			<note>
				<pitch>
					<step>B</step>
					<octave>5</octave>
				</pitch>
				<duration>20</duration>
				<tie type="start"/>
				<voice>1</voice>
				<type>eighth</type>
				<accidental parentheses="no">natural</accidental>
				<stem>down</stem>
				<beam number="1">end</beam>
				<notations>
					<tied type="start" number="1" orientation="over"/>
				</notations>
			</note>
			<harmony default-y="104.8182">
				<root>
					<root-step>B</root-step>
				</root>
				<kind>minor-seventh</kind>
				<frame default-y="93.1233" valign="top">
					<frame-strings>6</frame-strings>
					<frame-frets>5</frame-frets>
					<frame-note>
						<string>6</string>
						<fret>0</fret>
					</frame-note>
					<frame-note>
						<string>5</string>
						<fret>2</fret>
					</frame-note>
					<frame-note>
						<string>4</string>
						<fret>4</fret>
					</frame-note>
					<frame-note>
						<string>3</string>
						<fret>2</fret>
					</frame-note>
					<frame-note>
						<string>2</string>
						<fret>3</fret>
					</frame-note>
					<frame-note>
						<string>1</string>
						<fret>2</fret>
					</frame-note>
				</frame>
				<offset>-5</offset>
				<staff>1</staff>
			</harmony>
			<note>
				<pitch>
					<step>B</step>
					<octave>5</octave>
				</pitch>
				<duration>80</duration>
				<tie type="stop"/>
				<voice>1</voice>
				<type>half</type>
				<stem>down</stem>
				<notations>
					<tied type="stop" number="1" orientation="over"/>
				</notations>
			</note>
		</measure><!--
===========================================================
-->

		<measure number="16" width="309">
			<print new-system="yes">
				<system-layout>
					<system-margins>
						<left-margin>1</left-margin>
						<right-margin>3</right-margin>
					</system-margins>
					<system-distance>117</system-distance>
				</system-layout>
			</print>
			<attributes>
				<staff-details number="1" print-object="yes">
					<staff-size>112</staff-size>
				</staff-details>
			</attributes>
			<harmony default-y="100.3543">
				<root>
					<root-step>A</root-step>
				</root>
				<kind>minor-seventh</kind>
				<frame default-y="89.1575" valign="top">
					<frame-strings>6</frame-strings>
					<frame-frets>5</frame-frets>
					<frame-note>
						<string>6</string>
						<fret>0</fret>
					</frame-note>
					<frame-note>
						<string>5</string>
						<fret>0</fret>
					</frame-note>
					<frame-note>
						<string>4</string>
						<fret>2</fret>
					</frame-note>
					<frame-note>
						<string>3</string>
						<fret>0</fret>
					</frame-note>
					<frame-note>
						<string>2</string>
						<fret>1</fret>
					</frame-note>
					<frame-note>
						<string>1</string>
						<fret>0</fret>
					</frame-note>
				</frame>
				<offset>0</offset>
				<staff>1</staff>
			</harmony>
			<note>
				<pitch>
					<step>C</step>
					<octave>6</octave>
				</pitch>
				<duration>40</duration>
				<voice>1</voice>
				<type>quarter</type>
				<stem>down</stem>
			</note>
			<note>
				<pitch>
					<step>C</step>
					<octave>6</octave>
				</pitch>
				<duration>40</duration>
				<voice>1</voice>
				<type>quarter</type>
				<stem>down</stem>
			</note>
			<note>
				<pitch>
					<step>B</step>
					<octave>5</octave>
				</pitch>
				<duration>20</duration>
				<voice>1</voice>
				<type>eighth</type>
				<accidental parentheses="no">natural</accidental>
				<stem>down</stem>
			</note>
			<harmony default-y="100.3543">
				<root>
					<root-step>A</root-step>
					<root-alter>-1</root-alter>
				</root>
				<kind>diminished</kind>
				<frame default-y="89.1575" valign="top">
					<frame-strings>6</frame-strings>
					<frame-frets>5</frame-frets>
					<frame-note>
						<string>6</string>
						<fret>4</fret>
					</frame-note>
					<frame-note>
						<string>5</string>
						<fret>0</fret>
					</frame-note>
					<frame-note>
						<string>4</string>
						<fret>3</fret>
					</frame-note>
					<frame-note>
						<string>3</string>
						<fret>4</fret>
					</frame-note>
					<frame-note>
						<string>2</string>
						<fret>3</fret>
					</frame-note>
					<frame-note>
						<string>1</string>
						<fret>0</fret>
					</frame-note>
				</frame>
				<offset>-9</offset>
				<staff>1</staff>
			</harmony>
			<note>
				<pitch>
					<step>D</step>
					<octave>6</octave>
				</pitch>
				<duration>40</duration>
				<voice>1</voice>
				<type>quarter</type>
				<stem>down</stem>
			</note>
			<note>
				<pitch>
					<step>B</step>
					<octave>5</octave>
				</pitch>
				<duration>20</duration>
				<voice>1</voice>
				<type>eighth</type>
				<stem>down</stem>
			</note>
		</measure><!--
===========================================================
-->

		<measure number="17" width="241">
			<print new-system="no"></print>
			<attributes></attributes>
			<harmony default-y="112.8026">
				<root>
					<root-step>G</root-step>
				</root>
				<kind>minor-seventh</kind>
				<frame default-y="101.6058" valign="top">
					<frame-strings>6</frame-strings>
					<frame-frets>6</frame-frets>
					<frame-note>
						<string>6</string>
						<fret>0</fret>
					</frame-note>
					<frame-note>
						<string>5</string>
						<fret>5</fret>
					</frame-note>
					<frame-note>
						<string>4</string>
						<fret>3</fret>
					</frame-note>
					<frame-note>
						<string>3</string>
						<fret>3</fret>
					</frame-note>
					<frame-note>
						<string>2</string>
						<fret>3</fret>
					</frame-note>
					<frame-note>
						<string>1</string>
						<fret>3</fret>
					</frame-note>
				</frame>
				<offset>8</offset>
				<staff>1</staff>
			</harmony>
			<harmony default-y="100.3543">
				<root>
					<root-step>C</root-step>
				</root>
				<kind>dominant</kind>
				<frame default-y="89.1575" valign="top">
					<frame-strings>6</frame-strings>
					<frame-frets>5</frame-frets>
					<frame-note>
						<string>6</string>
						<fret>0</fret>
					</frame-note>
					<frame-note>
						<string>5</string>
						<fret>3</fret>
					</frame-note>
					<frame-note>
						<string>4</string>
						<fret>2</fret>
					</frame-note>
					<frame-note>
						<string>3</string>
						<fret>3</fret>
					</frame-note>
					<frame-note>
						<string>2</string>
						<fret>1</fret>
					</frame-note>
					<frame-note>
						<string>1</string>
						<fret>0</fret>
					</frame-note>
				</frame>
				<offset>74</offset>
				<staff>1</staff>
			</harmony>
			<note>
				<pitch>
					<step>C</step>
					<octave>6</octave>
				</pitch>
				<duration>160</duration>
				<voice>1</voice>
				<type>whole</type>
				<stem>none</stem>
			</note>
		</measure><!--
===========================================================
-->

		<measure number="18" width="281">
			<print new-system="no"></print>
			<attributes></attributes>
			<harmony default-y="112.8026">
				<root>
					<root-step>G</root-step>
				</root>
				<kind>minor-seventh</kind>
				<frame default-y="101.6058" valign="top">
					<frame-strings>6</frame-strings>
					<frame-frets>6</frame-frets>
					<frame-note>
						<string>6</string>
						<fret>0</fret>
					</frame-note>
					<frame-note>
						<string>5</string>
						<fret>5</fret>
					</frame-note>
					<frame-note>
						<string>4</string>
						<fret>3</fret>
					</frame-note>
					<frame-note>
						<string>3</string>
						<fret>3</fret>
					</frame-note>
					<frame-note>
						<string>2</string>
						<fret>3</fret>
					</frame-note>
					<frame-note>
						<string>1</string>
						<fret>3</fret>
					</frame-note>
				</frame>
				<offset>0</offset>
				<staff>1</staff>
			</harmony>
			<note>
				<pitch>
					<step>C</step>
					<octave>6</octave>
				</pitch>
				<duration>20</duration>
				<voice>1</voice>
				<type>eighth</type>
				<stem>down</stem>
			</note>
			<note>
				<pitch>
					<step>D</step>
					<octave>6</octave>
				</pitch>
				<duration>40</duration>
				<voice>1</voice>
				<type>quarter</type>
				<stem>down</stem>
			</note>
			<harmony default-y="100.3543">
				<root>
					<root-step>G</root-step>
					<root-alter>-1</root-alter>
				</root>
				<kind>diminished</kind>
				<frame default-y="89.1575" valign="top">
					<frame-strings>6</frame-strings>
					<frame-frets>5</frame-frets>
					<frame-note>
						<string>6</string>
						<fret>0</fret>
					</frame-note>
					<frame-note>
						<string>5</string>
						<fret>0</fret>
					</frame-note>
					<frame-note>
						<string>4</string>
						<fret>4</fret>
					</frame-note>
					<frame-note>
						<string>3</string>
						<fret>3</fret>
					</frame-note>
					<frame-note>
						<string>2</string>
						<fret>1</fret>
					</frame-note>
					<frame-note>
						<string>1</string>
						<fret>2</fret>
					</frame-note>
				</frame>
				<offset>9</offset>
				<staff>1</staff>
			</harmony>
			<note>
				<pitch>
					<step>D</step>
					<octave>6</octave>
				</pitch>
				<duration>20</duration>
				<tie type="start"/>
				<voice>1</voice>
				<type>eighth</type>
				<stem>down</stem>
				<notations>
					<tied type="start" number="1" orientation="over"/>
				</notations>
			</note>
			<note>
				<pitch>
					<step>D</step>
					<octave>6</octave>
				</pitch>
				<duration>80</duration>
				<tie type="stop"/>
				<voice>1</voice>
				<type>half</type>
				<stem>down</stem>
				<notations>
					<tied type="stop" number="1" orientation="over"/>
				</notations>
			</note>
		</measure><!--
===========================================================
-->

		<measure number="19" width="277">
			<print new-system="no"></print>
			<attributes></attributes>
			<harmony default-y="112.8026">
				<root>
					<root-step>G</root-step>
				</root>
				<kind>minor-seventh</kind>
				<frame default-y="101.6058" valign="top">
					<frame-strings>6</frame-strings>
					<frame-frets>6</frame-frets>
					<frame-note>
						<string>6</string>
						<fret>0</fret>
					</frame-note>
					<frame-note>
						<string>5</string>
						<fret>5</fret>
					</frame-note>
					<frame-note>
						<string>4</string>
						<fret>3</fret>
					</frame-note>
					<frame-note>
						<string>3</string>
						<fret>3</fret>
					</frame-note>
					<frame-note>
						<string>2</string>
						<fret>3</fret>
					</frame-note>
					<frame-note>
						<string>1</string>
						<fret>3</fret>
					</frame-note>
				</frame>
				<offset>6</offset>
				<staff>1</staff>
			</harmony>
			<note>
				<pitch>
					<step>D</step>
					<octave>6</octave>
				</pitch>
				<duration>20</duration>
				<voice>1</voice>
				<type>eighth</type>
				<stem>down</stem>
			</note>
			<note>
				<pitch>
					<step>C</step>
					<octave>6</octave>
				</pitch>
				<duration>40</duration>
				<voice>1</voice>
				<type>quarter</type>
				<stem>down</stem>
			</note>
			<note>
				<pitch>
					<step>C</step>
					<octave>6</octave>
				</pitch>
				<duration>20</duration>
				<tie type="start"/>
				<voice>1</voice>
				<type>eighth</type>
				<stem>down</stem>
				<notations>
					<tied type="start" number="1" orientation="over"/>
				</notations>
			</note>
			<harmony default-y="100.3543">
				<root>
					<root-step>C</root-step>
				</root>
				<kind>dominant</kind>
				<frame default-y="89.1575" valign="top">
					<frame-strings>6</frame-strings>
					<frame-frets>5</frame-frets>
					<frame-note>
						<string>6</string>
						<fret>0</fret>
					</frame-note>
					<frame-note>
						<string>5</string>
						<fret>3</fret>
					</frame-note>
					<frame-note>
						<string>4</string>
						<fret>2</fret>
					</frame-note>
					<frame-note>
						<string>3</string>
						<fret>3</fret>
					</frame-note>
					<frame-note>
						<string>2</string>
						<fret>1</fret>
					</frame-note>
					<frame-note>
						<string>1</string>
						<fret>0</fret>
					</frame-note>
				</frame>
				<offset>-3</offset>
				<staff>1</staff>
			</harmony>
			<note>
				<pitch>
					<step>C</step>
					<octave>6</octave>
				</pitch>
				<duration>80</duration>
				<tie type="stop"/>
				<voice>1</voice>
				<type>half</type>
				<stem>down</stem>
				<notations>
					<tied type="stop" number="1" orientation="over"/>
				</notations>
			</note>
		</measure><!--
===========================================================
-->

		<measure number="20" width="291">
			<print new-system="yes">
				<system-layout>
					<system-margins>
						<left-margin>1</left-margin>
						<right-margin>2</right-margin>
					</system-margins>
					<system-distance>121</system-distance>
				</system-layout>
			</print>
			<attributes></attributes>
			<harmony default-y="100.3543">
				<root>
					<root-step>D</root-step>
					<root-alter>-1</root-alter>
				</root>
				<kind>minor-seventh</kind>
				<frame default-y="89.1575" valign="top">
					<frame-strings>6</frame-strings>
					<frame-frets>5</frame-frets>
					<frame-note>
						<string>6</string>
						<fret>0</fret>
					</frame-note>
					<frame-note>
						<string>5</string>
						<fret>2</fret>
					</frame-note>
					<frame-note>
						<string>4</string>
						<fret>2</fret>
					</frame-note>
					<frame-note>
						<string>3</string>
						<fret>1</fret>
					</frame-note>
					<frame-note>
						<string>2</string>
						<fret>2</fret>
					</frame-note>
					<frame-note>
						<string>1</string>
						<fret>0</fret>
					</frame-note>
				</frame>
				<offset>1</offset>
				<staff>1</staff>
			</harmony>
			<note>
				<pitch>
					<step>C</step>
					<octave>6</octave>
				</pitch>
				<duration>40</duration>
				<voice>1</voice>
				<type>quarter</type>
				<stem>down</stem>
			</note>
			<note>
				<pitch>
					<step>D</step>
					<octave>6</octave>
				</pitch>
				<duration>40</duration>
				<voice>1</voice>
				<type>quarter</type>
				<stem>down</stem>
			</note>
			<harmony default-y="100.3543">
				<root>
					<root-step>F</root-step>
				</root>
				<kind>dominant</kind>
				<frame default-y="89.1575" valign="top">
					<frame-strings>6</frame-strings>
					<frame-frets>5</frame-frets>
					<frame-note>
						<string>6</string>
						<fret>1</fret>
					</frame-note>
					<frame-note>
						<string>5</string>
						<fret>3</fret>
					</frame-note>
					<frame-note>
						<string>4</string>
						<fret>1</fret>
					</frame-note>
					<frame-note>
						<string>3</string>
						<fret>2</fret>
					</frame-note>
					<frame-note>
						<string>2</string>
						<fret>1</fret>
					</frame-note>
					<frame-note>
						<string>1</string>
						<fret>1</fret>
					</frame-note>
				</frame>
				<offset>-1</offset>
				<staff>1</staff>
			</harmony>
			<note>
				<pitch>
					<step>D</step>
					<octave>6</octave>
				</pitch>
				<duration>40</duration>
				<voice>1</voice>
				<type>quarter</type>
				<stem>down</stem>
			</note>
			<note>
				<pitch>
					<step>C</step>
					<octave>6</octave>
				</pitch>
				<duration>40</duration>
				<voice>1</voice>
				<type>quarter</type>
				<stem>down</stem>
			</note>
		</measure><!--
===========================================================
-->

		<measure number="21" width="278">
			<print new-system="no"></print>
			<attributes></attributes>
			<harmony default-y="100.3543">
				<root>
					<root-step>B</root-step>
					<root-alter>-1</root-alter>
				</root>
				<kind>major-seventh</kind>
				<frame default-y="89.1575" valign="top">
					<frame-strings>6</frame-strings>
					<frame-frets>5</frame-frets>
					<frame-note>
						<string>6</string>
						<fret>0</fret>
					</frame-note>
					<frame-note>
						<string>5</string>
						<fret>1</fret>
					</frame-note>
					<frame-note>
						<string>4</string>
						<fret>3</fret>
					</frame-note>
					<frame-note>
						<string>3</string>
						<fret>2</fret>
					</frame-note>
					<frame-note>
						<string>2</string>
						<fret>3</fret>
					</frame-note>
					<frame-note>
						<string>1</string>
						<fret>1</fret>
					</frame-note>
				</frame>
				<offset>12</offset>
				<staff>1</staff>
			</harmony>
			<note>
				<pitch>
					<step>G</step>
					<octave>5</octave>
				</pitch>
				<duration>20</duration>
				<voice>1</voice>
				<type>eighth</type>
				<stem>down</stem>
			</note>
			<note>
				<pitch>
					<step>F</step>
					<octave>5</octave>
				</pitch>
				<duration>40</duration>
				<voice>1</voice>
				<type>quarter</type>
				<stem>down</stem>
			</note>
			<harmony default-y="100.3543">
				<root>
					<root-step>E</root-step>
					<root-alter>-1</root-alter>
				</root>
				<kind>dominant</kind>
				<frame default-y="89.1575" valign="top">
					<frame-strings>6</frame-strings>
					<frame-frets>5</frame-frets>
					<frame-note>
						<string>6</string>
						<fret>0</fret>
					</frame-note>
					<frame-note>
						<string>5</string>
						<fret>0</fret>
					</frame-note>
					<frame-note>
						<string>4</string>
						<fret>1</fret>
					</frame-note>
					<frame-note>
						<string>3</string>
						<fret>3</fret>
					</frame-note>
					<frame-note>
						<string>2</string>
						<fret>2</fret>
					</frame-note>
					<frame-note>
						<string>1</string>
						<fret>3</fret>
					</frame-note>
				</frame>
				<offset>12</offset>
				<staff>1</staff>
			</harmony>
			<note>
				<pitch>
					<step>F</step>
					<octave>5</octave>
				</pitch>
				<duration>20</duration>
				<tie type="start"/>
				<voice>1</voice>
				<type>eighth</type>
				<stem>down</stem>
				<notations>
					<tied type="start" number="1" orientation="over"/>
				</notations>
			</note>
			<note>
				<pitch>
					<step>F</step>
					<octave>5</octave>
				</pitch>
				<duration>80</duration>
				<tie type="stop"/>
				<voice>1</voice>
				<type>half</type>
				<stem>down</stem>
				<notations>
					<tied type="stop" number="1" orientation="over"/>
					<articulations>
						<tenuto placement="above"/>
					</articulations>
				</notations>
			</note>
		</measure><!--
===========================================================
-->

		<measure number="22" width="276">
			<print new-system="no"></print>
			<attributes></attributes>
			<harmony default-y="100.3543">
				<root>
					<root-step>F</root-step>
				</root>
				<kind>major-seventh</kind>
				<frame default-y="89.1575" valign="top">
					<frame-strings>6</frame-strings>
					<frame-frets>5</frame-frets>
					<frame-note>
						<string>6</string>
						<fret>0</fret>
					</frame-note>
					<frame-note>
						<string>5</string>
						<fret>0</fret>
					</frame-note>
					<frame-note>
						<string>4</string>
						<fret>3</fret>
					</frame-note>
					<frame-note>
						<string>3</string>
						<fret>2</fret>
					</frame-note>
					<frame-note>
						<string>2</string>
						<fret>1</fret>
					</frame-note>
					<frame-note>
						<string>1</string>
						<fret>0</fret>
					</frame-note>
				</frame>
				<offset>5</offset>
				<staff>1</staff>
			</harmony>
			<note>
				<pitch>
					<step>F</step>
					<octave>5</octave>
				</pitch>
				<duration>20</duration>
				<voice>1</voice>
				<type>eighth</type>
				<stem>down</stem>
			</note>
			<note>
				<pitch>
					<step>G</step>
					<octave>5</octave>
				</pitch>
				<duration>40</duration>
				<voice>1</voice>
				<type>quarter</type>
				<stem>down</stem>
				<notations>
					<articulations>
						<strong-accent placement="above"/>
					</articulations>
				</notations>
			</note>
			<note>
				<pitch>
					<step>G</step>
					<octave>5</octave>
				</pitch>
				<duration>20</duration>
				<tie type="start"/>
				<voice>1</voice>
				<type>eighth</type>
				<stem>down</stem>
				<notations>
					<tied type="start" number="1" orientation="over"/>
				</notations>
			</note>
			<harmony default-y="100.3543">
				<root>
					<root-step>A</root-step>
					<root-alter>-1</root-alter>
				</root>
				<kind>diminished</kind>
				<frame default-y="89.1575" valign="top">
					<frame-strings>6</frame-strings>
					<frame-frets>5</frame-frets>
					<frame-note>
						<string>6</string>
						<fret>4</fret>
					</frame-note>
					<frame-note>
						<string>5</string>
						<fret>0</fret>
					</frame-note>
					<frame-note>
						<string>4</string>
						<fret>3</fret>
					</frame-note>
					<frame-note>
						<string>3</string>
						<fret>4</fret>
					</frame-note>
					<frame-note>
						<string>2</string>
						<fret>3</fret>
					</frame-note>
					<frame-note>
						<string>1</string>
						<fret>0</fret>
					</frame-note>
				</frame>
				<offset>-9</offset>
				<staff>1</staff>
			</harmony>
			<note>
				<pitch>
					<step>G</step>
					<octave>5</octave>
				</pitch>
				<duration>40</duration>
				<tie type="stop"/>
				<tie type="start"/>
				<voice>1</voice>
				<type>quarter</type>
				<stem>down</stem>
				<notations>
					<tied type="stop" number="1" orientation="over"/>
					<tied type="start" number="1" orientation="over"/>
				</notations>
			</note>
			<note>
				<pitch>
					<step>G</step>
					<octave>5</octave>
				</pitch>
				<duration>30</duration>
				<tie type="stop"/>
				<voice>1</voice>
				<type>eighth</type>
				<dot/>
				<stem>down</stem>
				<beam number="1">begin</beam>
				<notations>
					<tied type="stop" number="1" orientation="over"/>
				</notations>
			</note>
			<note>
				<pitch>
					<step>F</step>
					<octave>5</octave>
				</pitch>
				<duration>10</duration>
				<voice>1</voice>
				<type>16th</type>
				<stem>down</stem>
				<beam number="1">end</beam>
				<beam number="2">backward hook</beam>
			</note>
		</measure><!--
===========================================================
-->

		<measure number="23" width="264">
			<print new-system="no"></print>
			<attributes></attributes>
			<note>
				<pitch>
					<step>D</step>
					<octave>5</octave>
				</pitch>
				<duration>20</duration>
				<voice>1</voice>
				<type>eighth</type>
				<stem>down</stem>
			</note>
			<harmony default-y="112.8026">
				<root>
					<root-step>G</root-step>
				</root>
				<kind>minor-seventh</kind>
				<frame default-y="101.6058" valign="top">
					<frame-strings>6</frame-strings>
					<frame-frets>6</frame-frets>
					<frame-note>
						<string>6</string>
						<fret>0</fret>
					</frame-note>
					<frame-note>
						<string>5</string>
						<fret>5</fret>
					</frame-note>
					<frame-note>
						<string>4</string>
						<fret>3</fret>
					</frame-note>
					<frame-note>
						<string>3</string>
						<fret>3</fret>
					</frame-note>
					<frame-note>
						<string>2</string>
						<fret>3</fret>
					</frame-note>
					<frame-note>
						<string>1</string>
						<fret>3</fret>
					</frame-note>
				</frame>
				<offset>3</offset>
				<staff>1</staff>
			</harmony>
			<note>
				<pitch>
					<step>C</step>
					<octave>5</octave>
				</pitch>
				<duration>40</duration>
				<voice>1</voice>
				<type>quarter</type>
				<stem>down</stem>
			</note>
			<note>
				<pitch>
					<step>C</step>
					<octave>5</octave>
				</pitch>
				<duration>20</duration>
				<tie type="start"/>
				<voice>1</voice>
				<type>eighth</type>
				<stem>down</stem>
				<notations>
					<tied type="start" number="1" orientation="over"/>
				</notations>
			</note>
			<note>
				<pitch>
					<step>C</step>
					<octave>5</octave>
				</pitch>
				<duration>40</duration>
				<tie type="stop"/>
				<tie type="start"/>
				<voice>1</voice>
				<type>quarter</type>
				<stem>down</stem>
				<notations>
					<tied type="stop" number="1" orientation="over"/>
					<tied type="start" number="1" orientation="over"/>
				</notations>
			</note>
			<harmony default-y="100.3543">
				<root>
					<root-step>G</root-step>
					<root-alter>-1</root-alter>
				</root>
				<kind>diminished</kind>
				<frame default-y="89.1575" valign="top">
					<frame-strings>6</frame-strings>
					<frame-frets>5</frame-frets>
					<frame-note>
						<string>6</string>
						<fret>0</fret>
					</frame-note>
					<frame-note>
						<string>5</string>
						<fret>0</fret>
					</frame-note>
					<frame-note>
						<string>4</string>
						<fret>4</fret>
					</frame-note>
					<frame-note>
						<string>3</string>
						<fret>3</fret>
					</frame-note>
					<frame-note>
						<string>2</string>
						<fret>1</fret>
					</frame-note>
					<frame-note>
						<string>1</string>
						<fret>2</fret>
					</frame-note>
				</frame>
				<offset>-16</offset>
				<staff>1</staff>
			</harmony>
			<note>
				<pitch>
					<step>C</step>
					<octave>5</octave>
				</pitch>
				<duration>30</duration>
				<tie type="stop"/>
				<voice>1</voice>
				<type>eighth</type>
				<dot/>
				<stem>down</stem>
				<beam number="1">begin</beam>
				<notations>
					<tied type="stop" number="1" orientation="over"/>
				</notations>
			</note>
			<note>
				<pitch>
					<step>C</step>
					<octave>5</octave>
				</pitch>
				<duration>10</duration>
				<voice>1</voice>
				<type>16th</type>
				<stem>down</stem>
				<beam number="1">end</beam>
				<beam number="2">backward hook</beam>
			</note>
		</measure><!--
===========================================================
-->

		<measure number="24" width="378">
			<print new-system="yes">
				<system-layout>
					<system-margins>
						<left-margin>0</left-margin>
						<right-margin>462</right-margin>
					</system-margins>
					<system-distance>117</system-distance>
				</system-layout>
			</print>
			<attributes>
				<staff-details number="1" print-object="yes">
					<staff-size>117</staff-size>
				</staff-details>
			</attributes>
			<note>
				<pitch>
					<step>D</step>
					<octave>5</octave>
				</pitch>
				<duration>30</duration>
				<voice>1</voice>
				<type>eighth</type>
				<dot/>
				<stem>down</stem>
				<beam number="1">begin</beam>
			</note>
			<harmony default-y="117.8202">
				<root>
					<root-step>G</root-step>
				</root>
				<kind>minor-seventh</kind>
				<frame default-y="106.1253" valign="top">
					<frame-strings>6</frame-strings>
					<frame-frets>6</frame-frets>
					<frame-note>
						<string>6</string>
						<fret>0</fret>
					</frame-note>
					<frame-note>
						<string>5</string>
						<fret>5</fret>
					</frame-note>
					<frame-note>
						<string>4</string>
						<fret>3</fret>
					</frame-note>
					<frame-note>
						<string>3</string>
						<fret>3</fret>
					</frame-note>
					<frame-note>
						<string>2</string>
						<fret>3</fret>
					</frame-note>
					<frame-note>
						<string>1</string>
						<fret>3</fret>
					</frame-note>
				</frame>
				<offset>-8</offset>
				<staff>1</staff>
			</harmony>
			<note>
				<pitch>
					<step>F</step>
					<octave>5</octave>
				</pitch>
				<duration>10</duration>
				<voice>1</voice>
				<type>16th</type>
				<stem>down</stem>
				<beam number="1">continue</beam>
				<beam number="2">backward hook</beam>
			</note>
			<note>
				<pitch>
					<step>G</step>
					<octave>5</octave>
				</pitch>
				<duration>30</duration>
				<voice>1</voice>
				<type>eighth</type>
				<dot/>
				<stem>down</stem>
				<beam number="1">continue</beam>
			</note>
			<note>
				<pitch>
					<step>F</step>
					<octave>5</octave>
				</pitch>
				<duration>10</duration>
				<voice>1</voice>
				<type>16th</type>
				<stem>down</stem>
				<beam number="1">end</beam>
				<beam number="2">backward hook</beam>
			</note>
			<harmony default-y="104.8182">
				<root>
					<root-step>C</root-step>
				</root>
				<kind>dominant</kind>
				<frame default-y="93.1233" valign="top">
					<frame-strings>6</frame-strings>
					<frame-frets>5</frame-frets>
					<frame-note>
						<string>6</string>
						<fret>0</fret>
					</frame-note>
					<frame-note>
						<string>5</string>
						<fret>3</fret>
					</frame-note>
					<frame-note>
						<string>4</string>
						<fret>2</fret>
					</frame-note>
					<frame-note>
						<string>3</string>
						<fret>3</fret>
					</frame-note>
					<frame-note>
						<string>2</string>
						<fret>1</fret>
					</frame-note>
					<frame-note>
						<string>1</string>
						<fret>0</fret>
					</frame-note>
				</frame>
				<offset>-4</offset>
				<staff>1</staff>
			</harmony>
			<note>
				<pitch>
					<step>A</step>
					<alter>-1</alter>
					<octave>5</octave>
				</pitch>
				<duration>20</duration>
				<voice>1</voice>
				<type>eighth</type>
				<accidental parentheses="no">flat</accidental>
				<stem>down</stem>
			</note>
			<note>
				<pitch>
					<step>G</step>
					<octave>5</octave>
				</pitch>
				<duration>40</duration>
				<voice>1</voice>
				<type>quarter</type>
				<stem>down</stem>
			</note>
			<note>
				<pitch>
					<step>F</step>
					<octave>5</octave>
				</pitch>
				<duration>20</duration>
				<voice>1</voice>
				<type>eighth</type>
				<stem>down</stem>
			</note>
		</measure><!--
===========================================================
-->

		<measure number="25" width="273">
			<print new-system="no"></print>
			<attributes></attributes>
			<harmony default-y="104.8182">
				<root>
					<root-step>F</root-step>
				</root>
				<kind>major</kind>
				<frame default-y="93.1233" valign="top">
					<frame-strings>6</frame-strings>
					<frame-frets>5</frame-frets>
					<frame-note>
						<string>6</string>
						<fret>1</fret>
					</frame-note>
					<frame-note>
						<string>5</string>
						<fret>3</fret>
					</frame-note>
					<frame-note>
						<string>4</string>
						<fret>3</fret>
					</frame-note>
					<frame-note>
						<string>3</string>
						<fret>2</fret>
					</frame-note>
					<frame-note>
						<string>2</string>
						<fret>1</fret>
					</frame-note>
					<frame-note>
						<string>1</string>
						<fret>1</fret>
					</frame-note>
				</frame>
				<offset>4</offset>
				<staff>1</staff>
			</harmony>
			<note>
				<pitch>
					<step>F</step>
					<octave>5</octave>
				</pitch>
				<duration>80</duration>
				<voice>1</voice>
				<type>half</type>
				<stem>down</stem>
				<notations>
					<articulations>
						<strong-accent placement="above"/>
					</articulations>
				</notations>
			</note>
			<harmony default-y="104.8182">
				<root>
					<root-step>F</root-step>
				</root>
				<kind>major</kind>
				<frame default-y="93.1233" valign="top">
					<frame-strings>6</frame-strings>
					<frame-frets>5</frame-frets>
					<frame-note>
						<string>6</string>
						<fret>1</fret>
					</frame-note>
					<frame-note>
						<string>5</string>
						<fret>3</fret>
					</frame-note>
					<frame-note>
						<string>4</string>
						<fret>3</fret>
					</frame-note>
					<frame-note>
						<string>3</string>
						<fret>2</fret>
					</frame-note>
					<frame-note>
						<string>2</string>
						<fret>1</fret>
					</frame-note>
					<frame-note>
						<string>1</string>
						<fret>1</fret>
					</frame-note>
				</frame>
				<offset>1</offset>
				<staff>1</staff>
			</harmony>
			<note>
				<rest/>
				<duration>80</duration>
				<voice>1</voice>
				<type>half</type>
			</note>
		</measure>
	</part>
</score-partwise>