<?xml version="1.0" encoding="UTF-8" standalone="no"?>
<!DOCTYPE score-partwise PUBLIC "-//Recordare//DTD MusicXML 1.1 Partwise//EN" "http://www.musicxml.org/dtds/partwise.dtd">

<score-partwise version="2.0">
	<movement-title></movement-title>
	<identification>
		<creator type="composer"></creator>
		<encoding>
			<software>SmartScore X2 Songbook Edition</software>
			<encoding-date>2018-02-22</encoding-date>
			<supports attribute="new-system" element="print" type="yes" value="yes"/>
			<supports attribute="new-page" element="print" type="yes" value="yes"/>
		</encoding>
	</identification>
	<defaults>
		<scaling>
			<millimeters>6.00</millimeters>
			<tenths>40</tenths>
		</scaling>
		<page-layout>
			<page-height>1862.67</page-height>
			<page-width>1439.33</page-width>
			<page-margins type="both">
				<left-margin>50.89</left-margin>
				<right-margin>50.89</right-margin>
				<top-margin>402.30</top-margin>
				<bottom-margin>402.30</bottom-margin>
			</page-margins>
		</page-layout>
	</defaults>
	<part-list>
		<score-part id="P1">
			<part-name>Nylon Guitar</part-name>
			<part-abbreviation>GuitNyl</part-abbreviation>
			<score-instrument id="P1-S0V0">
				<instrument-name>Nylon String Guit.</instrument-name>
			</score-instrument>
			<midi-instrument id="P1-S0V0">
				<midi-channel>1</midi-channel>
				<midi-program>25</midi-program>
				<volume>78</volume>
				<pan>0</pan>
			</midi-instrument>
		</score-part>
	</part-list><!--
===========================================================
-->

	<part id="P1">
		<measure number="1" width="155">
			<print>
				<page-layout>
					<page-height>1862.67</page-height>
					<page-width>1439.33</page-width>
					<page-margins>
						<left-margin>50.89</left-margin>
						<right-margin>50.89</right-margin>
						<top-margin>402.30</top-margin>
						<bottom-margin>201.15</bottom-margin>
					</page-margins>
				</page-layout>
				<system-layout>
					<system-margins>
						<left-margin>0</left-margin>
						<right-margin>1</right-margin>
					</system-margins>
					<top-system-distance>0</top-system-distance>
				</system-layout>
			</print>
			<attributes>
				<divisions>20</divisions>
				<key>
					<fifths>0</fifths>
				</key>
				<time>
					<beats>4</beats>
					<beat-type>4</beat-type>
				</time>
				<clef>
					<sign>G</sign>
					<line>2</line>
				</clef>
				<staff-details number="1" print-object="yes">
					<staff-size>83</staff-size>
				</staff-details>
				<transpose>
					<diatonic>0</diatonic>
					<chromatic>0</chromatic>
					<octave-change>-1</octave-change>
				</transpose>
			</attributes>
			<attributes></attributes>
			<forward>
				<duration>80</duration>
			</forward>
		</measure><!--
===========================================================
-->

		<measure number="2" width="348">
			<print new-system="no"></print>
			<attributes></attributes>
			<harmony default-y="70.0751">
				<root>
					<root-step>C</root-step>
				</root>
				<kind>major</kind>
				<frame default-y="61.7927" valign="top">
					<frame-strings>6</frame-strings>
					<frame-frets>5</frame-frets>
					<frame-note>
						<string>6</string>
						<fret>0</fret>
					</frame-note>
					<frame-note>
						<string>5</string>
						<fret>3</fret>
					</frame-note>
					<frame-note>
						<string>4</string>
						<fret>2</fret>
					</frame-note>
					<frame-note>
						<string>3</string>
						<fret>0</fret>
					</frame-note>
					<frame-note>
						<string>2</string>
						<fret>1</fret>
					</frame-note>
					<frame-note>
						<string>1</string>
						<fret>0</fret>
					</frame-note>
				</frame>
				<offset>0</offset>
				<staff>1</staff>
			</harmony>
			<note>
				<pitch>
					<step>C</step>
					<octave>5</octave>
				</pitch>
				<duration>20</duration>
				<voice>1</voice>
				<type>quarter</type>
				<stem>down</stem>
			</note>
			<note>
				<pitch>
					<step>C</step>
					<octave>5</octave>
				</pitch>
				<duration>20</duration>
				<voice>1</voice>
				<type>quarter</type>
				<stem>down</stem>
			</note>
			<harmony default-y="70.0751">
				<root>
					<root-step>C</root-step>
				</root>
				<kind>major</kind>
				<frame default-y="61.7927" valign="top">
					<frame-strings>6</frame-strings>
					<frame-frets>5</frame-frets>
					<frame-note>
						<string>6</string>
						<fret>0</fret>
					</frame-note>
					<frame-note>
						<string>5</string>
						<fret>3</fret>
					</frame-note>
					<frame-note>
						<string>4</string>
						<fret>2</fret>
					</frame-note>
					<frame-note>
						<string>3</string>
						<fret>0</fret>
					</frame-note>
					<frame-note>
						<string>2</string>
						<fret>1</fret>
					</frame-note>
					<frame-note>
						<string>1</string>
						<fret>0</fret>
					</frame-note>
				</frame>
				<offset>1</offset>
				<staff>1</staff>
			</harmony>
			<note>
				<pitch>
					<step>C</step>
					<octave>5</octave>
				</pitch>
				<duration>20</duration>
				<voice>1</voice>
				<type>quarter</type>
				<stem>down</stem>
			</note>
			<note>
				<pitch>
					<step>C</step>
					<octave>5</octave>
				</pitch>
				<duration>20</duration>
				<voice>1</voice>
				<type>quarter</type>
				<stem>down</stem>
			</note>
		</measure><!--
===========================================================
-->

		<measure number="3" width="275">
			<print new-system="no"></print>
			<attributes></attributes>
			<harmony default-y="70.0751">
				<root>
					<root-step>E</root-step>
				</root>
				<kind>minor</kind>
				<frame default-y="61.7927" valign="top">
					<frame-strings>6</frame-strings>
					<frame-frets>5</frame-frets>
					<frame-note>
						<string>6</string>
						<fret>0</fret>
					</frame-note>
					<frame-note>
						<string>5</string>
						<fret>2</fret>
					</frame-note>
					<frame-note>
						<string>4</string>
						<fret>2</fret>
					</frame-note>
					<frame-note>
						<string>3</string>
						<fret>0</fret>
					</frame-note>
					<frame-note>
						<string>2</string>
						<fret>0</fret>
					</frame-note>
					<frame-note>
						<string>1</string>
						<fret>0</fret>
					</frame-note>
				</frame>
				<offset>4</offset>
				<staff>1</staff>
			</harmony>
			<note>
				<pitch>
					<step>G</step>
					<octave>5</octave>
				</pitch>
				<duration>60</duration>
				<voice>1</voice>
				<type>half</type>
				<dot/>
				<stem>down</stem>
			</note>
			<harmony default-y="70.0751">
				<root>
					<root-step>E</root-step>
				</root>
				<kind>minor</kind>
				<frame default-y="61.7927" valign="top">
					<frame-strings>6</frame-strings>
					<frame-frets>5</frame-frets>
					<frame-note>
						<string>6</string>
						<fret>0</fret>
					</frame-note>
					<frame-note>
						<string>5</string>
						<fret>2</fret>
					</frame-note>
					<frame-note>
						<string>4</string>
						<fret>2</fret>
					</frame-note>
					<frame-note>
						<string>3</string>
						<fret>0</fret>
					</frame-note>
					<frame-note>
						<string>2</string>
						<fret>0</fret>
					</frame-note>
					<frame-note>
						<string>1</string>
						<fret>0</fret>
					</frame-note>
				</frame>
				<offset>-11</offset>
				<staff>1</staff>
			</harmony>
			<note>
				<pitch>
					<step>G</step>
					<octave>5</octave>
				</pitch>
				<duration>10</duration>
				<voice>1</voice>
				<type>eighth</type>
				<stem>down</stem>
				<beam number="1">begin</beam>
			</note>
			<note>
				<pitch>
					<step>G</step>
					<octave>5</octave>
				</pitch>
				<duration>10</duration>
				<voice>1</voice>
				<type>eighth</type>
				<stem>down</stem>
				<beam number="1">end</beam>
			</note>
		</measure><!--
===========================================================
-->

		<measure number="4" width="256">
			<print new-system="no"></print>
			<attributes></attributes>
			<harmony default-y="70.0751">
				<root>
					<root-step>D</root-step>
				</root>
				<kind>minor-seventh</kind>
				<frame default-y="61.7927" valign="top">
					<frame-strings>6</frame-strings>
					<frame-frets>5</frame-frets>
					<frame-note>
						<string>6</string>
						<fret>0</fret>
					</frame-note>
					<frame-note>
						<string>5</string>
						<fret>0</fret>
					</frame-note>
					<frame-note>
						<string>4</string>
						<fret>0</fret>
					</frame-note>
					<frame-note>
						<string>3</string>
						<fret>2</fret>
					</frame-note>
					<frame-note>
						<string>2</string>
						<fret>1</fret>
					</frame-note>
					<frame-note>
						<string>1</string>
						<fret>1</fret>
					</frame-note>
				</frame>
				<offset>3</offset>
				<staff>1</staff>
			</harmony>
			<note>
				<pitch>
					<step>A</step>
					<octave>5</octave>
				</pitch>
				<duration>40</duration>
				<voice>1</voice>
				<type>half</type>
				<stem>down</stem>
			</note>
			<harmony default-y="70.0751">
				<root>
					<root-step>F</root-step>
				</root>
				<kind>major</kind>
				<frame default-y="61.7927" valign="top">
					<frame-strings>6</frame-strings>
					<frame-frets>5</frame-frets>
					<frame-note>
						<string>6</string>
						<fret>1</fret>
					</frame-note>
					<frame-note>
						<string>5</string>
						<fret>3</fret>
					</frame-note>
					<frame-note>
						<string>4</string>
						<fret>3</fret>
					</frame-note>
					<frame-note>
						<string>3</string>
						<fret>2</fret>
					</frame-note>
					<frame-note>
						<string>2</string>
						<fret>1</fret>
					</frame-note>
					<frame-note>
						<string>1</string>
						<fret>1</fret>
					</frame-note>
				</frame>
				<offset>1</offset>
				<staff>1</staff>
			</harmony>
			<note>
				<pitch>
					<step>A</step>
					<octave>5</octave>
				</pitch>
				<duration>40</duration>
				<voice>1</voice>
				<type>half</type>
				<stem>down</stem>
			</note>
		</measure><!--
===========================================================
-->

		<measure number="5" width="299">
			<print new-system="no"></print>
			<attributes></attributes>
			<harmony default-y="70.0751">
				<root>
					<root-step>C</root-step>
				</root>
				<kind>major</kind>
				<frame default-y="61.7927" valign="top">
					<frame-strings>6</frame-strings>
					<frame-frets>5</frame-frets>
					<frame-note>
						<string>6</string>
						<fret>0</fret>
					</frame-note>
					<frame-note>
						<string>5</string>
						<fret>3</fret>
					</frame-note>
					<frame-note>
						<string>4</string>
						<fret>2</fret>
					</frame-note>
					<frame-note>
						<string>3</string>
						<fret>0</fret>
					</frame-note>
					<frame-note>
						<string>2</string>
						<fret>1</fret>
					</frame-note>
					<frame-note>
						<string>1</string>
						<fret>0</fret>
					</frame-note>
				</frame>
				<offset>4</offset>
				<staff>1</staff>
			</harmony>
			<note>
				<pitch>
					<step>G</step>
					<octave>5</octave>
				</pitch>
				<duration>20</duration>
				<voice>1</voice>
				<type>quarter</type>
				<stem>down</stem>
			</note>
			<note>
				<pitch>
					<step>G</step>
					<octave>5</octave>
				</pitch>
				<duration>20</duration>
				<voice>1</voice>
				<type>quarter</type>
				<stem>down</stem>
			</note>
			<harmony default-y="70.0751">
				<root>
					<root-step>C</root-step>
				</root>
				<kind>major</kind>
				<frame default-y="61.7927" valign="top">
					<frame-strings>6</frame-strings>
					<frame-frets>5</frame-frets>
					<frame-note>
						<string>6</string>
						<fret>0</fret>
					</frame-note>
					<frame-note>
						<string>5</string>
						<fret>3</fret>
					</frame-note>
					<frame-note>
						<string>4</string>
						<fret>2</fret>
					</frame-note>
					<frame-note>
						<string>3</string>
						<fret>0</fret>
					</frame-note>
					<frame-note>
						<string>2</string>
						<fret>1</fret>
					</frame-note>
					<frame-note>
						<string>1</string>
						<fret>0</fret>
					</frame-note>
				</frame>
				<offset>0</offset>
				<staff>1</staff>
			</harmony>
			<note>
				<pitch>
					<step>E</step>
					<octave>5</octave>
				</pitch>
				<duration>40</duration>
				<voice>1</voice>
				<type>half</type>
				<stem>down</stem>
			</note>
		</measure><!--
===========================================================
-->

		<measure number="6" width="312">
			<print new-system="yes">
				<system-layout>
					<system-margins>
						<left-margin>0</left-margin>
						<right-margin>1</right-margin>
					</system-margins>
					<system-distance>155</system-distance>
				</system-layout>
			</print>
			<attributes></attributes>
			<harmony default-y="70.0751">
				<root>
					<root-step>C</root-step>
				</root>
				<kind>major</kind>
				<frame default-y="61.7927" valign="top">
					<frame-strings>6</frame-strings>
					<frame-frets>5</frame-frets>
					<frame-note>
						<string>6</string>
						<fret>0</fret>
					</frame-note>
					<frame-note>
						<string>5</string>
						<fret>3</fret>
					</frame-note>
					<frame-note>
						<string>4</string>
						<fret>2</fret>
					</frame-note>
					<frame-note>
						<string>3</string>
						<fret>0</fret>
					</frame-note>
					<frame-note>
						<string>2</string>
						<fret>1</fret>
					</frame-note>
					<frame-note>
						<string>1</string>
						<fret>0</fret>
					</frame-note>
				</frame>
				<offset>0</offset>
				<staff>1</staff>
			</harmony>
			<note>
				<rest/>
				<duration>40</duration>
				<voice>1</voice>
				<type>half</type>
			</note>
			<harmony default-y="70.0751">
				<root>
					<root-step>C</root-step>
				</root>
				<kind>major</kind>
				<frame default-y="61.7927" valign="top">
					<frame-strings>6</frame-strings>
					<frame-frets>5</frame-frets>
					<frame-note>
						<string>6</string>
						<fret>0</fret>
					</frame-note>
					<frame-note>
						<string>5</string>
						<fret>3</fret>
					</frame-note>
					<frame-note>
						<string>4</string>
						<fret>2</fret>
					</frame-note>
					<frame-note>
						<string>3</string>
						<fret>0</fret>
					</frame-note>
					<frame-note>
						<string>2</string>
						<fret>1</fret>
					</frame-note>
					<frame-note>
						<string>1</string>
						<fret>0</fret>
					</frame-note>
				</frame>
				<offset>4</offset>
				<staff>1</staff>
			</harmony>
			<note>
				<pitch>
					<step>C</step>
					<octave>6</octave>
				</pitch>
				<duration>20</duration>
				<voice>1</voice>
				<type>quarter</type>
				<stem>down</stem>
			</note>
			<note>
				<pitch>
					<step>B</step>
					<octave>5</octave>
				</pitch>
				<duration>20</duration>
				<voice>1</voice>
				<type>quarter</type>
				<stem>down</stem>
			</note>
		</measure><!--
===========================================================
-->

		<measure number="7" width="306">
			<print new-system="no"></print>
			<attributes></attributes>
			<harmony default-y="70.0751">
				<root>
					<root-step>D</root-step>
				</root>
				<kind>minor-seventh</kind>
				<frame default-y="61.7927" valign="top">
					<frame-strings>6</frame-strings>
					<frame-frets>5</frame-frets>
					<frame-note>
						<string>6</string>
						<fret>0</fret>
					</frame-note>
					<frame-note>
						<string>5</string>
						<fret>0</fret>
					</frame-note>
					<frame-note>
						<string>4</string>
						<fret>0</fret>
					</frame-note>
					<frame-note>
						<string>3</string>
						<fret>2</fret>
					</frame-note>
					<frame-note>
						<string>2</string>
						<fret>1</fret>
					</frame-note>
					<frame-note>
						<string>1</string>
						<fret>1</fret>
					</frame-note>
				</frame>
				<offset>5</offset>
				<staff>1</staff>
			</harmony>
			<note>
				<pitch>
					<step>A</step>
					<octave>5</octave>
				</pitch>
				<duration>20</duration>
				<voice>1</voice>
				<type>quarter</type>
				<stem>down</stem>
			</note>
			<note>
				<pitch>
					<step>B</step>
					<octave>5</octave>
				</pitch>
				<duration>20</duration>
				<voice>1</voice>
				<type>quarter</type>
				<stem>down</stem>
			</note>
			<harmony default-y="70.0751">
				<root>
					<root-step>D</root-step>
				</root>
				<kind>minor-seventh</kind>
				<frame default-y="61.7927" valign="top">
					<frame-strings>6</frame-strings>
					<frame-frets>5</frame-frets>
					<frame-note>
						<string>6</string>
						<fret>0</fret>
					</frame-note>
					<frame-note>
						<string>5</string>
						<fret>0</fret>
					</frame-note>
					<frame-note>
						<string>4</string>
						<fret>0</fret>
					</frame-note>
					<frame-note>
						<string>3</string>
						<fret>2</fret>
					</frame-note>
					<frame-note>
						<string>2</string>
						<fret>1</fret>
					</frame-note>
					<frame-note>
						<string>1</string>
						<fret>1</fret>
					</frame-note>
				</frame>
				<offset>0</offset>
				<staff>1</staff>
			</harmony>
			<note>
				<pitch>
					<step>A</step>
					<octave>5</octave>
				</pitch>
				<duration>20</duration>
				<voice>1</voice>
				<type>quarter</type>
				<stem>down</stem>
			</note>
			<note>
				<pitch>
					<step>G</step>
					<octave>5</octave>
				</pitch>
				<duration>20</duration>
				<voice>1</voice>
				<type>quarter</type>
				<stem>down</stem>
			</note>
		</measure><!--
===========================================================
-->

		<measure number="8" width="178">
			<print new-system="no"></print>
			<attributes></attributes>
			<harmony default-y="70.0751">
				<root>
					<root-step>G</root-step>
				</root>
				<kind>dominant</kind>
				<frame default-y="61.7927" valign="top">
					<frame-strings>6</frame-strings>
					<frame-frets>5</frame-frets>
					<frame-note>
						<string>6</string>
						<fret>3</fret>
					</frame-note>
					<frame-note>
						<string>5</string>
						<fret>2</fret>
					</frame-note>
					<frame-note>
						<string>4</string>
						<fret>0</fret>
					</frame-note>
					<frame-note>
						<string>3</string>
						<fret>0</fret>
					</frame-note>
					<frame-note>
						<string>2</string>
						<fret>0</fret>
					</frame-note>
					<frame-note>
						<string>1</string>
						<fret>1</fret>
					</frame-note>
				</frame>
				<offset>3</offset>
				<staff>1</staff>
			</harmony>
			<harmony default-y="70.0751">
				<root>
					<root-step>G</root-step>
				</root>
				<kind>dominant</kind>
				<frame default-y="61.7927" valign="top">
					<frame-strings>6</frame-strings>
					<frame-frets>5</frame-frets>
					<frame-note>
						<string>6</string>
						<fret>3</fret>
					</frame-note>
					<frame-note>
						<string>5</string>
						<fret>2</fret>
					</frame-note>
					<frame-note>
						<string>4</string>
						<fret>0</fret>
					</frame-note>
					<frame-note>
						<string>3</string>
						<fret>0</fret>
					</frame-note>
					<frame-note>
						<string>2</string>
						<fret>0</fret>
					</frame-note>
					<frame-note>
						<string>1</string>
						<fret>1</fret>
					</frame-note>
				</frame>
				<offset>39</offset>
				<staff>1</staff>
			</harmony>
			<note>
				<pitch>
					<step>G</step>
					<octave>5</octave>
				</pitch>
				<duration>80</duration>
				<tie type="start"/>
				<voice>1</voice>
				<type>whole</type>
				<stem>none</stem>
				<notations>
					<tied type="start" number="1" orientation="over"/>
				</notations>
			</note>
		</measure><!--
===========================================================
-->

		<measure number="9" width="179">
			<print new-system="no"></print>
			<attributes></attributes>
			<harmony default-y="70.0751">
				<root>
					<root-step>G</root-step>
				</root>
				<kind>dominant</kind>
				<frame default-y="61.7927" valign="top">
					<frame-strings>6</frame-strings>
					<frame-frets>5</frame-frets>
					<frame-note>
						<string>6</string>
						<fret>3</fret>
					</frame-note>
					<frame-note>
						<string>5</string>
						<fret>2</fret>
					</frame-note>
					<frame-note>
						<string>4</string>
						<fret>0</fret>
					</frame-note>
					<frame-note>
						<string>3</string>
						<fret>0</fret>
					</frame-note>
					<frame-note>
						<string>2</string>
						<fret>0</fret>
					</frame-note>
					<frame-note>
						<string>1</string>
						<fret>1</fret>
					</frame-note>
				</frame>
				<offset>5</offset>
				<staff>1</staff>
			</harmony>
			<harmony default-y="70.0751">
				<root>
					<root-step>G</root-step>
				</root>
				<kind>dominant</kind>
				<frame default-y="61.7927" valign="top">
					<frame-strings>6</frame-strings>
					<frame-frets>5</frame-frets>
					<frame-note>
						<string>6</string>
						<fret>3</fret>
					</frame-note>
					<frame-note>
						<string>5</string>
						<fret>2</fret>
					</frame-note>
					<frame-note>
						<string>4</string>
						<fret>0</fret>
					</frame-note>
					<frame-note>
						<string>3</string>
						<fret>0</fret>
					</frame-note>
					<frame-note>
						<string>2</string>
						<fret>0</fret>
					</frame-note>
					<frame-note>
						<string>1</string>
						<fret>1</fret>
					</frame-note>
				</frame>
				<offset>48</offset>
				<staff>1</staff>
			</harmony>
			<note>
				<pitch>
					<step>G</step>
					<octave>5</octave>
				</pitch>
				<duration>80</duration>
				<tie type="stop"/>
				<voice>1</voice>
				<type>whole</type>
				<stem>none</stem>
				<notations>
					<tied type="stop" number="1" orientation="over"/>
				</notations>
			</note>
		</measure><!--
===========================================================
-->

		<measure number="10" width="358">
			<print new-system="no"></print>
			<attributes></attributes>
			<harmony default-y="70.0751">
				<root>
					<root-step>A</root-step>
				</root>
				<kind>minor</kind>
				<frame default-y="61.7927" valign="top">
					<frame-strings>6</frame-strings>
					<frame-frets>5</frame-frets>
					<frame-note>
						<string>6</string>
						<fret>0</fret>
					</frame-note>
					<frame-note>
						<string>5</string>
						<fret>0</fret>
					</frame-note>
					<frame-note>
						<string>4</string>
						<fret>2</fret>
					</frame-note>
					<frame-note>
						<string>3</string>
						<fret>2</fret>
					</frame-note>
					<frame-note>
						<string>2</string>
						<fret>1</fret>
					</frame-note>
					<frame-note>
						<string>1</string>
						<fret>0</fret>
					</frame-note>
				</frame>
				<offset>3</offset>
				<staff>1</staff>
			</harmony>
			<note>
				<rest/>
				<duration>20</duration>
				<voice>1</voice>
				<type>quarter</type>
			</note>
			<note>
				<pitch>
					<step>C</step>
					<octave>6</octave>
				</pitch>
				<duration>20</duration>
				<voice>1</voice>
				<type>quarter</type>
				<stem>down</stem>
			</note>
			<harmony default-y="70.0751">
				<root>
					<root-step>A</root-step>
				</root>
				<kind>minor</kind>
				<frame default-y="61.7927" valign="top">
					<frame-strings>6</frame-strings>
					<frame-frets>5</frame-frets>
					<frame-note>
						<string>6</string>
						<fret>0</fret>
					</frame-note>
					<frame-note>
						<string>5</string>
						<fret>0</fret>
					</frame-note>
					<frame-note>
						<string>4</string>
						<fret>2</fret>
					</frame-note>
					<frame-note>
						<string>3</string>
						<fret>2</fret>
					</frame-note>
					<frame-note>
						<string>2</string>
						<fret>1</fret>
					</frame-note>
					<frame-note>
						<string>1</string>
						<fret>0</fret>
					</frame-note>
				</frame>
				<offset>1</offset>
				<staff>1</staff>
			</harmony>
			<note>
				<pitch>
					<step>C</step>
					<octave>6</octave>
				</pitch>
				<duration>10</duration>
				<voice>1</voice>
				<type>eighth</type>
				<stem>down</stem>
				<beam number="1">begin</beam>
			</note>
			<note>
				<pitch>
					<step>C</step>
					<octave>6</octave>
				</pitch>
				<duration>10</duration>
				<voice>1</voice>
				<type>eighth</type>
				<stem>down</stem>
				<beam number="1">continue</beam>
			</note>
			<note>
				<pitch>
					<step>C</step>
					<octave>6</octave>
				</pitch>
				<duration>10</duration>
				<voice>1</voice>
				<type>eighth</type>
				<stem>down</stem>
				<beam number="1">continue</beam>
			</note>
			<note>
				<pitch>
					<step>C</step>
					<octave>6</octave>
				</pitch>
				<duration>10</duration>
				<voice>1</voice>
				<type>eighth</type>
				<stem>down</stem>
				<beam number="1">end</beam>
			</note>
		</measure><!--
===========================================================
-->

		<measure number="11" width="309">
			<print new-system="yes">
				<system-layout>
					<system-margins>
						<left-margin>1</left-margin>
						<right-margin>0</right-margin>
					</system-margins>
					<system-distance>125</system-distance>
				</system-layout>
			</print>
			<attributes></attributes>
			<harmony default-y="70.0751">
				<root>
					<root-step>E</root-step>
				</root>
				<kind>minor</kind>
				<frame default-y="61.7927" valign="top">
					<frame-strings>6</frame-strings>
					<frame-frets>5</frame-frets>
					<frame-note>
						<string>6</string>
						<fret>0</fret>
					</frame-note>
					<frame-note>
						<string>5</string>
						<fret>2</fret>
					</frame-note>
					<frame-note>
						<string>4</string>
						<fret>2</fret>
					</frame-note>
					<frame-note>
						<string>3</string>
						<fret>0</fret>
					</frame-note>
					<frame-note>
						<string>2</string>
						<fret>0</fret>
					</frame-note>
					<frame-note>
						<string>1</string>
						<fret>0</fret>
					</frame-note>
				</frame>
				<offset>0</offset>
				<staff>1</staff>
			</harmony>
			<note>
				<pitch>
					<step>B</step>
					<octave>5</octave>
				</pitch>
				<duration>20</duration>
				<voice>1</voice>
				<type>quarter</type>
				<stem>down</stem>
			</note>
			<note>
				<pitch>
					<step>G</step>
					<octave>5</octave>
				</pitch>
				<duration>20</duration>
				<voice>1</voice>
				<type>quarter</type>
				<stem>down</stem>
			</note>
			<harmony default-y="70.0751">
				<root>
					<root-step>E</root-step>
				</root>
				<kind>minor</kind>
				<frame default-y="61.7927" valign="top">
					<frame-strings>6</frame-strings>
					<frame-frets>5</frame-frets>
					<frame-note>
						<string>6</string>
						<fret>0</fret>
					</frame-note>
					<frame-note>
						<string>5</string>
						<fret>2</fret>
					</frame-note>
					<frame-note>
						<string>4</string>
						<fret>2</fret>
					</frame-note>
					<frame-note>
						<string>3</string>
						<fret>0</fret>
					</frame-note>
					<frame-note>
						<string>2</string>
						<fret>0</fret>
					</frame-note>
					<frame-note>
						<string>1</string>
						<fret>0</fret>
					</frame-note>
				</frame>
				<offset>0</offset>
				<staff>1</staff>
			</harmony>
			<note>
				<pitch>
					<step>G</step>
					<octave>5</octave>
				</pitch>
				<duration>20</duration>
				<voice>1</voice>
				<type>quarter</type>
				<stem>down</stem>
			</note>
			<note>
				<pitch>
					<step>G</step>
					<octave>5</octave>
				</pitch>
				<duration>20</duration>
				<voice>1</voice>
				<type>quarter</type>
				<stem>down</stem>
			</note>
		</measure><!--
===========================================================
-->

		<measure number="12" width="260">
			<print new-system="no"></print>
			<attributes></attributes>
			<harmony default-y="70.0751">
				<root>
					<root-step>D</root-step>
				</root>
				<kind>minor-seventh</kind>
				<frame default-y="61.7927" valign="top">
					<frame-strings>6</frame-strings>
					<frame-frets>5</frame-frets>
					<frame-note>
						<string>6</string>
						<fret>0</fret>
					</frame-note>
					<frame-note>
						<string>5</string>
						<fret>0</fret>
					</frame-note>
					<frame-note>
						<string>4</string>
						<fret>0</fret>
					</frame-note>
					<frame-note>
						<string>3</string>
						<fret>2</fret>
					</frame-note>
					<frame-note>
						<string>2</string>
						<fret>1</fret>
					</frame-note>
					<frame-note>
						<string>1</string>
						<fret>1</fret>
					</frame-note>
				</frame>
				<offset>4</offset>
				<staff>1</staff>
			</harmony>
			<note>
				<pitch>
					<step>A</step>
					<octave>5</octave>
				</pitch>
				<duration>30</duration>
				<voice>1</voice>
				<type>quarter</type>
				<dot/>
				<stem>down</stem>
			</note>
			<note>
				<pitch>
					<step>A</step>
					<octave>5</octave>
				</pitch>
				<duration>10</duration>
				<voice>1</voice>
				<type>eighth</type>
				<stem>down</stem>
			</note>
			<harmony default-y="70.0751">
				<root>
					<root-step>F</root-step>
				</root>
				<kind>dominant</kind>
				<frame default-y="61.7927" valign="top">
					<frame-strings>6</frame-strings>
					<frame-frets>5</frame-frets>
					<frame-note>
						<string>6</string>
						<fret>1</fret>
					</frame-note>
					<frame-note>
						<string>5</string>
						<fret>3</fret>
					</frame-note>
					<frame-note>
						<string>4</string>
						<fret>1</fret>
					</frame-note>
					<frame-note>
						<string>3</string>
						<fret>2</fret>
					</frame-note>
					<frame-note>
						<string>2</string>
						<fret>1</fret>
					</frame-note>
					<frame-note>
						<string>1</string>
						<fret>1</fret>
					</frame-note>
				</frame>
				<offset>0</offset>
				<staff>1</staff>
			</harmony>
			<note>
				<pitch>
					<step>A</step>
					<octave>5</octave>
				</pitch>
				<duration>20</duration>
				<voice>1</voice>
				<type>quarter</type>
				<stem>down</stem>
			</note>
			<note>
				<pitch>
					<step>A</step>
					<octave>5</octave>
				</pitch>
				<duration>20</duration>
				<voice>1</voice>
				<type>quarter</type>
				<stem>down</stem>
			</note>
		</measure><!--
===========================================================
-->

		<measure number="13" width="260">
			<print new-system="no"></print>
			<attributes></attributes>
			<harmony default-y="70.0751">
				<root>
					<root-step>C</root-step>
				</root>
				<kind>major</kind>
				<frame default-y="61.7927" valign="top">
					<frame-strings>6</frame-strings>
					<frame-frets>5</frame-frets>
					<frame-note>
						<string>6</string>
						<fret>0</fret>
					</frame-note>
					<frame-note>
						<string>5</string>
						<fret>3</fret>
					</frame-note>
					<frame-note>
						<string>4</string>
						<fret>2</fret>
					</frame-note>
					<frame-note>
						<string>3</string>
						<fret>0</fret>
					</frame-note>
					<frame-note>
						<string>2</string>
						<fret>1</fret>
					</frame-note>
					<frame-note>
						<string>1</string>
						<fret>0</fret>
					</frame-note>
				</frame>
				<offset>1</offset>
				<staff>1</staff>
			</harmony>
			<note>
				<pitch>
					<step>G</step>
					<octave>5</octave>
				</pitch>
				<duration>20</duration>
				<voice>1</voice>
				<type>quarter</type>
				<stem>down</stem>
				<notations>
					<articulations>
						<strong-accent placement="below"/>
					</articulations>
				</notations>
			</note>
			<note>
				<pitch>
					<step>E</step>
					<octave>5</octave>
				</pitch>
				<duration>20</duration>
				<voice>1</voice>
				<type>quarter</type>
				<stem>down</stem>
			</note>
			<harmony default-y="70.0751">
				<root>
					<root-step>C</root-step>
				</root>
				<kind>major</kind>
				<frame default-y="61.7927" valign="top">
					<frame-strings>6</frame-strings>
					<frame-frets>5</frame-frets>
					<frame-note>
						<string>6</string>
						<fret>0</fret>
					</frame-note>
					<frame-note>
						<string>5</string>
						<fret>3</fret>
					</frame-note>
					<frame-note>
						<string>4</string>
						<fret>2</fret>
					</frame-note>
					<frame-note>
						<string>3</string>
						<fret>0</fret>
					</frame-note>
					<frame-note>
						<string>2</string>
						<fret>1</fret>
					</frame-note>
					<frame-note>
						<string>1</string>
						<fret>0</fret>
					</frame-note>
				</frame>
				<offset>2</offset>
				<staff>1</staff>
			</harmony>
			<note>
				<pitch>
					<step>C</step>
					<octave>5</octave>
				</pitch>
				<duration>20</duration>
				<voice>1</voice>
				<type>quarter</type>
				<stem>down</stem>
			</note>
			<note>
				<pitch>
					<step>D</step>
					<octave>5</octave>
				</pitch>
				<duration>20</duration>
				<voice>1</voice>
				<type>quarter</type>
				<stem>down</stem>
			</note>
		</measure><!--
===========================================================
-->

		<measure number="14" width="251">
			<print new-system="no"></print>
			<attributes></attributes>
			<harmony default-y="70.0751">
				<root>
					<root-step>D</root-step>
				</root>
				<kind>minor-seventh</kind>
				<frame default-y="61.7927" valign="top">
					<frame-strings>6</frame-strings>
					<frame-frets>5</frame-frets>
					<frame-note>
						<string>6</string>
						<fret>0</fret>
					</frame-note>
					<frame-note>
						<string>5</string>
						<fret>0</fret>
					</frame-note>
					<frame-note>
						<string>4</string>
						<fret>0</fret>
					</frame-note>
					<frame-note>
						<string>3</string>
						<fret>2</fret>
					</frame-note>
					<frame-note>
						<string>2</string>
						<fret>1</fret>
					</frame-note>
					<frame-note>
						<string>1</string>
						<fret>1</fret>
					</frame-note>
				</frame>
				<offset>3</offset>
				<staff>1</staff>
			</harmony>
			<note>
				<pitch>
					<step>E</step>
					<octave>5</octave>
				</pitch>
				<duration>40</duration>
				<voice>1</voice>
				<type>half</type>
				<stem>down</stem>
			</note>
			<harmony default-y="70.0751">
				<root>
					<root-step>D</root-step>
				</root>
				<kind>minor-seventh</kind>
				<frame default-y="61.7927" valign="top">
					<frame-strings>6</frame-strings>
					<frame-frets>5</frame-frets>
					<frame-note>
						<string>6</string>
						<fret>0</fret>
					</frame-note>
					<frame-note>
						<string>5</string>
						<fret>0</fret>
					</frame-note>
					<frame-note>
						<string>4</string>
						<fret>0</fret>
					</frame-note>
					<frame-note>
						<string>3</string>
						<fret>2</fret>
					</frame-note>
					<frame-note>
						<string>2</string>
						<fret>1</fret>
					</frame-note>
					<frame-note>
						<string>1</string>
						<fret>1</fret>
					</frame-note>
				</frame>
				<offset>3</offset>
				<staff>1</staff>
			</harmony>
			<note>
				<pitch>
					<step>E</step>
					<octave>5</octave>
				</pitch>
				<duration>20</duration>
				<voice>1</voice>
				<type>quarter</type>
				<stem>down</stem>
			</note>
			<note>
				<pitch>
					<step>E</step>
					<octave>5</octave>
				</pitch>
				<duration>20</duration>
				<voice>1</voice>
				<type>quarter</type>
				<stem>down</stem>
			</note>
		</measure><!--
===========================================================
-->

		<measure number="15" width="253">
			<print new-system="no"></print>
			<attributes></attributes>
			<harmony default-y="70.0751">
				<root>
					<root-step>F</root-step>
					<root-alter>1</root-alter>
				</root>
				<kind>major</kind>
				<frame default-y="61.7927" valign="top">
					<frame-strings>6</frame-strings>
					<frame-frets>5</frame-frets>
					<frame-note>
						<string>6</string>
						<fret>2</fret>
					</frame-note>
					<frame-note>
						<string>5</string>
						<fret>4</fret>
					</frame-note>
					<frame-note>
						<string>4</string>
						<fret>4</fret>
					</frame-note>
					<frame-note>
						<string>3</string>
						<fret>3</fret>
					</frame-note>
					<frame-note>
						<string>2</string>
						<fret>2</fret>
					</frame-note>
					<frame-note>
						<string>1</string>
						<fret>2</fret>
					</frame-note>
				</frame>
				<offset>4</offset>
				<staff>1</staff>
			</harmony>
			<note>
				<pitch>
					<step>D</step>
					<octave>5</octave>
				</pitch>
				<duration>40</duration>
				<voice>1</voice>
				<type>half</type>
				<stem>down</stem>
			</note>
			<harmony default-y="70.0751">
				<root>
					<root-step>D</root-step>
				</root>
				<kind>minor-seventh</kind>
				<frame default-y="61.7927" valign="top">
					<frame-strings>6</frame-strings>
					<frame-frets>5</frame-frets>
					<frame-note>
						<string>6</string>
						<fret>0</fret>
					</frame-note>
					<frame-note>
						<string>5</string>
						<fret>0</fret>
					</frame-note>
					<frame-note>
						<string>4</string>
						<fret>0</fret>
					</frame-note>
					<frame-note>
						<string>3</string>
						<fret>2</fret>
					</frame-note>
					<frame-note>
						<string>2</string>
						<fret>1</fret>
					</frame-note>
					<frame-note>
						<string>1</string>
						<fret>1</fret>
					</frame-note>
				</frame>
				<offset>0</offset>
				<staff>1</staff>
			</harmony>
			<note>
				<pitch>
					<step>C</step>
					<octave>5</octave>
				</pitch>
				<duration>20</duration>
				<voice>1</voice>
				<type>quarter</type>
				<stem>down</stem>
			</note>
			<note>
				<pitch>
					<step>D</step>
					<octave>5</octave>
				</pitch>
				<duration>20</duration>
				<voice>1</voice>
				<type>quarter</type>
				<stem>down</stem>
			</note>
		</measure><!--
===========================================================
-->

		<measure number="16" width="210">
			<print new-system="yes">
				<system-layout>
					<system-margins>
						<left-margin>0</left-margin>
						<right-margin>1</right-margin>
					</system-margins>
					<system-distance>174</system-distance>
				</system-layout>
			</print>
			<attributes></attributes>
			<harmony default-y="70.0751">
				<root>
					<root-step>F</root-step>
				</root>
				<kind>major</kind>
				<frame default-y="61.7927" valign="top">
					<frame-strings>6</frame-strings>
					<frame-frets>5</frame-frets>
					<frame-note>
						<string>6</string>
						<fret>1</fret>
					</frame-note>
					<frame-note>
						<string>5</string>
						<fret>3</fret>
					</frame-note>
					<frame-note>
						<string>4</string>
						<fret>3</fret>
					</frame-note>
					<frame-note>
						<string>3</string>
						<fret>2</fret>
					</frame-note>
					<frame-note>
						<string>2</string>
						<fret>1</fret>
					</frame-note>
					<frame-note>
						<string>1</string>
						<fret>1</fret>
					</frame-note>
				</frame>
				<offset>1</offset>
				<staff>1</staff>
			</harmony>
			<harmony default-y="70.0751">
				<root>
					<root-step>F</root-step>
				</root>
				<kind>major</kind>
				<frame default-y="61.7927" valign="top">
					<frame-strings>6</frame-strings>
					<frame-frets>5</frame-frets>
					<frame-note>
						<string>6</string>
						<fret>1</fret>
					</frame-note>
					<frame-note>
						<string>5</string>
						<fret>3</fret>
					</frame-note>
					<frame-note>
						<string>4</string>
						<fret>3</fret>
					</frame-note>
					<frame-note>
						<string>3</string>
						<fret>2</fret>
					</frame-note>
					<frame-note>
						<string>2</string>
						<fret>1</fret>
					</frame-note>
					<frame-note>
						<string>1</string>
						<fret>1</fret>
					</frame-note>
				</frame>
				<offset>44</offset>
				<staff>1</staff>
			</harmony>
			<note>
				<pitch>
					<step>C</step>
					<octave>5</octave>
				</pitch>
				<duration>80</duration>
				<tie type="start"/>
				<voice>1</voice>
				<type>whole</type>
				<stem>none</stem>
				<notations>
					<tied type="start" number="1" orientation="over"/>
				</notations>
			</note>
		</measure><!--
===========================================================
-->

		<measure number="17" width="246">
			<print new-system="no"></print>
			<attributes></attributes>
			<harmony default-y="70.0751">
				<root>
					<root-step>C</root-step>
				</root>
				<kind>major</kind>
				<frame default-y="61.7927" valign="top">
					<frame-strings>6</frame-strings>
					<frame-frets>5</frame-frets>
					<frame-note>
						<string>6</string>
						<fret>0</fret>
					</frame-note>
					<frame-note>
						<string>5</string>
						<fret>3</fret>
					</frame-note>
					<frame-note>
						<string>4</string>
						<fret>2</fret>
					</frame-note>
					<frame-note>
						<string>3</string>
						<fret>0</fret>
					</frame-note>
					<frame-note>
						<string>2</string>
						<fret>1</fret>
					</frame-note>
					<frame-note>
						<string>1</string>
						<fret>0</fret>
					</frame-note>
				</frame>
				<offset>4</offset>
				<staff>1</staff>
			</harmony>
			<note>
				<pitch>
					<step>C</step>
					<octave>5</octave>
				</pitch>
				<duration>40</duration>
				<tie type="stop"/>
				<voice>1</voice>
				<type>half</type>
				<stem>down</stem>
				<notations>
					<tied type="stop" number="1" orientation="over"/>
				</notations>
			</note>
			<harmony default-y="70.0751">
				<root>
					<root-step>C</root-step>
				</root>
				<kind>major</kind>
				<frame default-y="61.7927" valign="top">
					<frame-strings>6</frame-strings>
					<frame-frets>5</frame-frets>
					<frame-note>
						<string>6</string>
						<fret>0</fret>
					</frame-note>
					<frame-note>
						<string>5</string>
						<fret>3</fret>
					</frame-note>
					<frame-note>
						<string>4</string>
						<fret>2</fret>
					</frame-note>
					<frame-note>
						<string>3</string>
						<fret>0</fret>
					</frame-note>
					<frame-note>
						<string>2</string>
						<fret>1</fret>
					</frame-note>
					<frame-note>
						<string>1</string>
						<fret>0</fret>
					</frame-note>
				</frame>
				<offset>5</offset>
				<staff>1</staff>
			</harmony>
			<note>
				<rest/>
				<duration>20</duration>
				<voice>1</voice>
				<type>quarter</type>
			</note>
			<note>
				<pitch>
					<step>G</step>
					<octave>4</octave>
				</pitch>
				<duration>20</duration>
				<voice>1</voice>
				<type>quarter</type>
				<stem>up</stem>
			</note>
		</measure><!--
===========================================================
-->

		<measure number="18" width="175">
			<print new-system="no"></print>
			<attributes></attributes>
			<harmony default-y="70.0751">
				<root>
					<root-step>C</root-step>
				</root>
				<kind>major</kind>
				<frame default-y="61.7927" valign="top">
					<frame-strings>6</frame-strings>
					<frame-frets>5</frame-frets>
					<frame-note>
						<string>6</string>
						<fret>0</fret>
					</frame-note>
					<frame-note>
						<string>5</string>
						<fret>3</fret>
					</frame-note>
					<frame-note>
						<string>4</string>
						<fret>2</fret>
					</frame-note>
					<frame-note>
						<string>3</string>
						<fret>0</fret>
					</frame-note>
					<frame-note>
						<string>2</string>
						<fret>1</fret>
					</frame-note>
					<frame-note>
						<string>1</string>
						<fret>0</fret>
					</frame-note>
				</frame>
				<offset>2</offset>
				<staff>1</staff>
			</harmony>
			<harmony default-y="70.0751">
				<root>
					<root-step>C</root-step>
				</root>
				<kind>major</kind>
				<frame default-y="61.7927" valign="top">
					<frame-strings>6</frame-strings>
					<frame-frets>5</frame-frets>
					<frame-note>
						<string>6</string>
						<fret>0</fret>
					</frame-note>
					<frame-note>
						<string>5</string>
						<fret>3</fret>
					</frame-note>
					<frame-note>
						<string>4</string>
						<fret>2</fret>
					</frame-note>
					<frame-note>
						<string>3</string>
						<fret>0</fret>
					</frame-note>
					<frame-note>
						<string>2</string>
						<fret>1</fret>
					</frame-note>
					<frame-note>
						<string>1</string>
						<fret>0</fret>
					</frame-note>
				</frame>
				<offset>38</offset>
				<staff>1</staff>
			</harmony>
			<note>
				<pitch>
					<step>C</step>
					<octave>5</octave>
				</pitch>
				<duration>80</duration>
				<tie type="start"/>
				<voice>1</voice>
				<type>whole</type>
				<stem>none</stem>
				<notations>
					<tied type="start" number="1" orientation="over"/>
				</notations>
			</note>
		</measure><!--
===========================================================
-->

		<measure number="19" width="160">
			<print new-system="no"></print>
			<attributes></attributes>
			<harmony default-y="70.0751">
				<root>
					<root-step>C</root-step>
				</root>
				<kind>major</kind>
				<frame default-y="61.7927" valign="top">
					<frame-strings>6</frame-strings>
					<frame-frets>5</frame-frets>
					<frame-note>
						<string>6</string>
						<fret>0</fret>
					</frame-note>
					<frame-note>
						<string>5</string>
						<fret>3</fret>
					</frame-note>
					<frame-note>
						<string>4</string>
						<fret>2</fret>
					</frame-note>
					<frame-note>
						<string>3</string>
						<fret>0</fret>
					</frame-note>
					<frame-note>
						<string>2</string>
						<fret>1</fret>
					</frame-note>
					<frame-note>
						<string>1</string>
						<fret>0</fret>
					</frame-note>
				</frame>
				<offset>10</offset>
				<staff>1</staff>
			</harmony>
			<harmony default-y="70.0751">
				<root>
					<root-step>C</root-step>
				</root>
				<kind>major</kind>
				<frame default-y="61.7927" valign="top">
					<frame-strings>6</frame-strings>
					<frame-frets>5</frame-frets>
					<frame-note>
						<string>6</string>
						<fret>0</fret>
					</frame-note>
					<frame-note>
						<string>5</string>
						<fret>3</fret>
					</frame-note>
					<frame-note>
						<string>4</string>
						<fret>2</fret>
					</frame-note>
					<frame-note>
						<string>3</string>
						<fret>0</fret>
					</frame-note>
					<frame-note>
						<string>2</string>
						<fret>1</fret>
					</frame-note>
					<frame-note>
						<string>1</string>
						<fret>0</fret>
					</frame-note>
				</frame>
				<offset>50</offset>
				<staff>1</staff>
			</harmony>
			<note>
				<pitch>
					<step>C</step>
					<octave>5</octave>
				</pitch>
				<duration>80</duration>
				<tie type="stop"/>
				<voice>1</voice>
				<type>whole</type>
				<stem>none</stem>
				<notations>
					<tied type="stop" number="1" orientation="over"/>
				</notations>
			</note>
		</measure><!--
===========================================================
-->

		<measure number="20" width="286">
			<print new-system="no"></print>
			<attributes></attributes>
			<harmony default-y="70.0751">
				<root>
					<root-step>F</root-step>
				</root>
				<kind>major</kind>
				<frame default-y="61.7927" valign="top">
					<frame-strings>6</frame-strings>
					<frame-frets>5</frame-frets>
					<frame-note>
						<string>6</string>
						<fret>1</fret>
					</frame-note>
					<frame-note>
						<string>5</string>
						<fret>3</fret>
					</frame-note>
					<frame-note>
						<string>4</string>
						<fret>3</fret>
					</frame-note>
					<frame-note>
						<string>3</string>
						<fret>2</fret>
					</frame-note>
					<frame-note>
						<string>2</string>
						<fret>1</fret>
					</frame-note>
					<frame-note>
						<string>1</string>
						<fret>1</fret>
					</frame-note>
				</frame>
				<offset>0</offset>
				<staff>1</staff>
			</harmony>
			<note>
				<rest/>
				<duration>40</duration>
				<voice>1</voice>
				<type>half</type>
			</note>
			<harmony default-y="70.0751">
				<root>
					<root-step>F</root-step>
				</root>
				<kind>major</kind>
				<frame default-y="61.7927" valign="top">
					<frame-strings>6</frame-strings>
					<frame-frets>5</frame-frets>
					<frame-note>
						<string>6</string>
						<fret>1</fret>
					</frame-note>
					<frame-note>
						<string>5</string>
						<fret>3</fret>
					</frame-note>
					<frame-note>
						<string>4</string>
						<fret>3</fret>
					</frame-note>
					<frame-note>
						<string>3</string>
						<fret>2</fret>
					</frame-note>
					<frame-note>
						<string>2</string>
						<fret>1</fret>
					</frame-note>
					<frame-note>
						<string>1</string>
						<fret>1</fret>
					</frame-note>
				</frame>
				<offset>0</offset>
				<staff>1</staff>
			</harmony>
			<note>
				<pitch>
					<step>C</step>
					<octave>6</octave>
				</pitch>
				<duration>10</duration>
				<voice>1</voice>
				<type>eighth</type>
				<stem>down</stem>
				<beam number="1">begin</beam>
			</note>
			<note>
				<pitch>
					<step>C</step>
					<octave>6</octave>
				</pitch>
				<duration>10</duration>
				<voice>1</voice>
				<type>eighth</type>
				<stem>down</stem>
				<beam number="1">end</beam>
			</note>
			<note>
				<pitch>
					<step>C</step>
					<octave>6</octave>
				</pitch>
				<duration>20</duration>
				<voice>1</voice>
				<type>quarter</type>
				<stem>down</stem>
			</note>
		</measure><!--
===========================================================
-->

		<measure number="21" width="256">
			<print new-system="no"></print>
			<attributes></attributes>
			<harmony default-y="70.0751">
				<root>
					<root-step>E</root-step>
				</root>
				<kind>minor</kind>
				<frame default-y="61.7927" valign="top">
					<frame-strings>6</frame-strings>
					<frame-frets>5</frame-frets>
					<frame-note>
						<string>6</string>
						<fret>0</fret>
					</frame-note>
					<frame-note>
						<string>5</string>
						<fret>2</fret>
					</frame-note>
					<frame-note>
						<string>4</string>
						<fret>2</fret>
					</frame-note>
					<frame-note>
						<string>3</string>
						<fret>0</fret>
					</frame-note>
					<frame-note>
						<string>2</string>
						<fret>0</fret>
					</frame-note>
					<frame-note>
						<string>1</string>
						<fret>0</fret>
					</frame-note>
				</frame>
				<offset>0</offset>
				<staff>1</staff>
			</harmony>
			<note>
				<pitch>
					<step>B</step>
					<octave>5</octave>
				</pitch>
				<duration>20</duration>
				<voice>1</voice>
				<type>quarter</type>
				<stem>down</stem>
			</note>
			<note>
				<pitch>
					<step>G</step>
					<octave>5</octave>
				</pitch>
				<duration>40</duration>
				<voice>1</voice>
				<type>half</type>
				<stem>down</stem>
			</note>
			<harmony default-y="70.0751">
				<root>
					<root-step>E</root-step>
				</root>
				<kind>minor</kind>
				<frame default-y="61.7927" valign="top">
					<frame-strings>6</frame-strings>
					<frame-frets>5</frame-frets>
					<frame-note>
						<string>6</string>
						<fret>0</fret>
					</frame-note>
					<frame-note>
						<string>5</string>
						<fret>2</fret>
					</frame-note>
					<frame-note>
						<string>4</string>
						<fret>2</fret>
					</frame-note>
					<frame-note>
						<string>3</string>
						<fret>0</fret>
					</frame-note>
					<frame-note>
						<string>2</string>
						<fret>0</fret>
					</frame-note>
					<frame-note>
						<string>1</string>
						<fret>0</fret>
					</frame-note>
				</frame>
				<offset>-15</offset>
				<staff>1</staff>
			</harmony>
			<note>
				<pitch>
					<step>G</step>
					<octave>5</octave>
				</pitch>
				<duration>20</duration>
				<voice>1</voice>
				<type>quarter</type>
				<stem>down</stem>
			</note>
		</measure><!--
===========================================================
-->

		<measure number="22" width="306">
			<print new-system="yes">
				<system-layout>
					<system-margins>
						<left-margin>0</left-margin>
						<right-margin>0</right-margin>
					</system-margins>
					<system-distance>120</system-distance>
				</system-layout>
			</print>
			<attributes></attributes>
			<direction placement="below">
				<direction-type>
					<pedal type="stop"></pedal>
				</direction-type>
				<staff>1</staff>
			</direction>
			<harmony default-y="70.0751">
				<root>
					<root-step>D</root-step>
				</root>
				<kind>minor-seventh</kind>
				<frame default-y="61.7927" valign="top">
					<frame-strings>6</frame-strings>
					<frame-frets>5</frame-frets>
					<frame-note>
						<string>6</string>
						<fret>0</fret>
					</frame-note>
					<frame-note>
						<string>5</string>
						<fret>0</fret>
					</frame-note>
					<frame-note>
						<string>4</string>
						<fret>0</fret>
					</frame-note>
					<frame-note>
						<string>3</string>
						<fret>2</fret>
					</frame-note>
					<frame-note>
						<string>2</string>
						<fret>1</fret>
					</frame-note>
					<frame-note>
						<string>1</string>
						<fret>1</fret>
					</frame-note>
				</frame>
				<offset>4</offset>
				<staff>1</staff>
			</harmony>
			<note>
				<pitch>
					<step>A</step>
					<octave>5</octave>
				</pitch>
				<duration>40</duration>
				<voice>1</voice>
				<type>half</type>
				<stem>down</stem>
			</note>
			<harmony default-y="70.0751">
				<root>
					<root-step>F</root-step>
				</root>
				<kind>major</kind>
				<frame default-y="61.7927" valign="top">
					<frame-strings>6</frame-strings>
					<frame-frets>5</frame-frets>
					<frame-note>
						<string>6</string>
						<fret>1</fret>
					</frame-note>
					<frame-note>
						<string>5</string>
						<fret>3</fret>
					</frame-note>
					<frame-note>
						<string>4</string>
						<fret>3</fret>
					</frame-note>
					<frame-note>
						<string>3</string>
						<fret>2</fret>
					</frame-note>
					<frame-note>
						<string>2</string>
						<fret>1</fret>
					</frame-note>
					<frame-note>
						<string>1</string>
						<fret>1</fret>
					</frame-note>
				</frame>
				<offset>1</offset>
				<staff>1</staff>
			</harmony>
			<note>
				<pitch>
					<step>A</step>
					<octave>5</octave>
				</pitch>
				<duration>20</duration>
				<voice>1</voice>
				<type>quarter</type>
				<stem>down</stem>
			</note>
			<note>
				<pitch>
					<step>G</step>
					<octave>5</octave>
				</pitch>
				<duration>20</duration>
				<voice>1</voice>
				<type>quarter</type>
				<stem>down</stem>
			</note>
		</measure><!--
===========================================================
-->

		<measure number="23" width="255">
			<print new-system="no"></print>
			<attributes></attributes>
			<harmony default-y="70.0751">
				<root>
					<root-step>C</root-step>
				</root>
				<kind>major</kind>
				<frame default-y="61.7927" valign="top">
					<frame-strings>6</frame-strings>
					<frame-frets>5</frame-frets>
					<frame-note>
						<string>6</string>
						<fret>0</fret>
					</frame-note>
					<frame-note>
						<string>5</string>
						<fret>3</fret>
					</frame-note>
					<frame-note>
						<string>4</string>
						<fret>2</fret>
					</frame-note>
					<frame-note>
						<string>3</string>
						<fret>0</fret>
					</frame-note>
					<frame-note>
						<string>2</string>
						<fret>1</fret>
					</frame-note>
					<frame-note>
						<string>1</string>
						<fret>0</fret>
					</frame-note>
				</frame>
				<offset>1</offset>
				<staff>1</staff>
			</harmony>
			<note>
				<pitch>
					<step>C</step>
					<octave>5</octave>
				</pitch>
				<duration>20</duration>
				<voice>1</voice>
				<type>quarter</type>
				<stem>down</stem>
			</note>
			<harmony default-y="70.0751">
				<root>
					<root-step>E</root-step>
				</root>
				<kind>minor</kind>
				<frame default-y="61.7927" valign="top">
					<frame-strings>6</frame-strings>
					<frame-frets>5</frame-frets>
					<frame-note>
						<string>6</string>
						<fret>0</fret>
					</frame-note>
					<frame-note>
						<string>5</string>
						<fret>2</fret>
					</frame-note>
					<frame-note>
						<string>4</string>
						<fret>2</fret>
					</frame-note>
					<frame-note>
						<string>3</string>
						<fret>0</fret>
					</frame-note>
					<frame-note>
						<string>2</string>
						<fret>0</fret>
					</frame-note>
					<frame-note>
						<string>1</string>
						<fret>0</fret>
					</frame-note>
				</frame>
				<offset>3</offset>
				<staff>1</staff>
			</harmony>
			<note>
				<pitch>
					<step>D</step>
					<octave>5</octave>
				</pitch>
				<duration>60</duration>
				<voice>1</voice>
				<type>half</type>
				<dot/>
				<stem>down</stem>
			</note>
		</measure><!--
===========================================================
-->

		<measure number="24" width="287">
			<print new-system="no"></print>
			<attributes></attributes>
			<harmony default-y="70.0751">
				<root>
					<root-step>F</root-step>
				</root>
				<kind>major</kind>
				<frame default-y="61.7927" valign="top">
					<frame-strings>6</frame-strings>
					<frame-frets>5</frame-frets>
					<frame-note>
						<string>6</string>
						<fret>1</fret>
					</frame-note>
					<frame-note>
						<string>5</string>
						<fret>3</fret>
					</frame-note>
					<frame-note>
						<string>4</string>
						<fret>3</fret>
					</frame-note>
					<frame-note>
						<string>3</string>
						<fret>2</fret>
					</frame-note>
					<frame-note>
						<string>2</string>
						<fret>1</fret>
					</frame-note>
					<frame-note>
						<string>1</string>
						<fret>1</fret>
					</frame-note>
				</frame>
				<offset>1</offset>
				<staff>1</staff>
			</harmony>
			<note>
				<rest/>
				<duration>40</duration>
				<voice>1</voice>
				<type>half</type>
			</note>
			<harmony default-y="70.0751">
				<root>
					<root-step>F</root-step>
				</root>
				<kind>major</kind>
				<frame default-y="61.7927" valign="top">
					<frame-strings>6</frame-strings>
					<frame-frets>5</frame-frets>
					<frame-note>
						<string>6</string>
						<fret>1</fret>
					</frame-note>
					<frame-note>
						<string>5</string>
						<fret>3</fret>
					</frame-note>
					<frame-note>
						<string>4</string>
						<fret>3</fret>
					</frame-note>
					<frame-note>
						<string>3</string>
						<fret>2</fret>
					</frame-note>
					<frame-note>
						<string>2</string>
						<fret>1</fret>
					</frame-note>
					<frame-note>
						<string>1</string>
						<fret>1</fret>
					</frame-note>
				</frame>
				<offset>0</offset>
				<staff>1</staff>
			</harmony>
			<note>
				<pitch>
					<step>C</step>
					<octave>6</octave>
				</pitch>
				<duration>10</duration>
				<voice>1</voice>
				<type>eighth</type>
				<stem>down</stem>
				<beam number="1">begin</beam>
			</note>
			<note>
				<pitch>
					<step>C</step>
					<octave>6</octave>
				</pitch>
				<duration>10</duration>
				<voice>1</voice>
				<type>eighth</type>
				<stem>down</stem>
				<beam number="1">end</beam>
			</note>
			<note>
				<pitch>
					<step>C</step>
					<octave>6</octave>
				</pitch>
				<duration>20</duration>
				<voice>1</voice>
				<type>quarter</type>
				<stem>down</stem>
			</note>
		</measure><!--
===========================================================
-->

		<measure number="25" width="263">
			<print new-system="no"></print>
			<attributes></attributes>
			<harmony default-y="70.0751">
				<root>
					<root-step>E</root-step>
				</root>
				<kind>minor</kind>
				<frame default-y="61.7927" valign="top">
					<frame-strings>6</frame-strings>
					<frame-frets>5</frame-frets>
					<frame-note>
						<string>6</string>
						<fret>0</fret>
					</frame-note>
					<frame-note>
						<string>5</string>
						<fret>2</fret>
					</frame-note>
					<frame-note>
						<string>4</string>
						<fret>2</fret>
					</frame-note>
					<frame-note>
						<string>3</string>
						<fret>0</fret>
					</frame-note>
					<frame-note>
						<string>2</string>
						<fret>0</fret>
					</frame-note>
					<frame-note>
						<string>1</string>
						<fret>0</fret>
					</frame-note>
				</frame>
				<offset>2</offset>
				<staff>1</staff>
			</harmony>
			<note>
				<pitch>
					<step>B</step>
					<octave>5</octave>
				</pitch>
				<duration>20</duration>
				<voice>1</voice>
				<type>quarter</type>
				<stem>down</stem>
			</note>
			<note>
				<pitch>
					<step>G</step>
					<octave>5</octave>
				</pitch>
				<duration>40</duration>
				<voice>1</voice>
				<type>half</type>
				<stem>down</stem>
			</note>
			<harmony default-y="70.0751">
				<root>
					<root-step>E</root-step>
				</root>
				<kind>minor</kind>
				<frame default-y="61.7927" valign="top">
					<frame-strings>6</frame-strings>
					<frame-frets>5</frame-frets>
					<frame-note>
						<string>6</string>
						<fret>0</fret>
					</frame-note>
					<frame-note>
						<string>5</string>
						<fret>2</fret>
					</frame-note>
					<frame-note>
						<string>4</string>
						<fret>2</fret>
					</frame-note>
					<frame-note>
						<string>3</string>
						<fret>0</fret>
					</frame-note>
					<frame-note>
						<string>2</string>
						<fret>0</fret>
					</frame-note>
					<frame-note>
						<string>1</string>
						<fret>0</fret>
					</frame-note>
				</frame>
				<offset>-15</offset>
				<staff>1</staff>
			</harmony>
			<note>
				<pitch>
					<step>G</step>
					<octave>5</octave>
				</pitch>
				<duration>20</duration>
				<voice>1</voice>
				<type>quarter</type>
				<stem>down</stem>
			</note>
		</measure><!--
===========================================================
-->

		<measure number="26" width="223">
			<print new-system="no"></print>
			<attributes></attributes>
			<harmony default-y="70.0751">
				<root>
					<root-step>D</root-step>
				</root>
				<kind>minor-seventh</kind>
				<frame default-y="61.7927" valign="top">
					<frame-strings>6</frame-strings>
					<frame-frets>5</frame-frets>
					<frame-note>
						<string>6</string>
						<fret>0</fret>
					</frame-note>
					<frame-note>
						<string>5</string>
						<fret>0</fret>
					</frame-note>
					<frame-note>
						<string>4</string>
						<fret>0</fret>
					</frame-note>
					<frame-note>
						<string>3</string>
						<fret>2</fret>
					</frame-note>
					<frame-note>
						<string>2</string>
						<fret>1</fret>
					</frame-note>
					<frame-note>
						<string>1</string>
						<fret>1</fret>
					</frame-note>
				</frame>
				<offset>4</offset>
				<staff>1</staff>
			</harmony>
			<note>
				<pitch>
					<step>A</step>
					<octave>5</octave>
				</pitch>
				<duration>60</duration>
				<voice>1</voice>
				<type>half</type>
				<dot/>
				<stem>down</stem>
			</note>
			<harmony default-y="70.0751">
				<root>
					<root-step>F</root-step>
				</root>
				<kind>major</kind>
				<frame default-y="61.7927" valign="top">
					<frame-strings>6</frame-strings>
					<frame-frets>5</frame-frets>
					<frame-note>
						<string>6</string>
						<fret>1</fret>
					</frame-note>
					<frame-note>
						<string>5</string>
						<fret>3</fret>
					</frame-note>
					<frame-note>
						<string>4</string>
						<fret>3</fret>
					</frame-note>
					<frame-note>
						<string>3</string>
						<fret>2</fret>
					</frame-note>
					<frame-note>
						<string>2</string>
						<fret>1</fret>
					</frame-note>
					<frame-note>
						<string>1</string>
						<fret>1</fret>
					</frame-note>
				</frame>
				<offset>-5</offset>
				<staff>1</staff>
			</harmony>
			<note>
				<pitch>
					<step>G</step>
					<octave>5</octave>
				</pitch>
				<duration>20</duration>
				<voice>1</voice>
				<type>quarter</type>
				<stem>down</stem>
			</note>
		</measure><!--
===========================================================
-->

		<measure number="27" width="310">
			<print new-system="yes">
				<system-layout>
					<system-margins>
						<left-margin>0</left-margin>
						<right-margin>1</right-margin>
					</system-margins>
					<system-distance>113</system-distance>
				</system-layout>
			</print>
			<attributes></attributes>
			<harmony default-y="70.0751">
				<root>
					<root-step>D</root-step>
				</root>
				<kind>minor-seventh</kind>
				<frame default-y="61.7927" valign="top">
					<frame-strings>6</frame-strings>
					<frame-frets>5</frame-frets>
					<frame-note>
						<string>6</string>
						<fret>0</fret>
					</frame-note>
					<frame-note>
						<string>5</string>
						<fret>0</fret>
					</frame-note>
					<frame-note>
						<string>4</string>
						<fret>0</fret>
					</frame-note>
					<frame-note>
						<string>3</string>
						<fret>2</fret>
					</frame-note>
					<frame-note>
						<string>2</string>
						<fret>1</fret>
					</frame-note>
					<frame-note>
						<string>1</string>
						<fret>1</fret>
					</frame-note>
				</frame>
				<offset>1</offset>
				<staff>1</staff>
			</harmony>
			<note>
				<pitch>
					<step>C</step>
					<octave>5</octave>
				</pitch>
				<duration>60</duration>
				<voice>1</voice>
				<type>half</type>
				<dot/>
				<stem>down</stem>
			</note>
			<harmony default-y="70.0751">
				<root>
					<root-step>F</root-step>
				</root>
				<kind>major</kind>
				<frame default-y="61.7927" valign="top">
					<frame-strings>6</frame-strings>
					<frame-frets>5</frame-frets>
					<frame-note>
						<string>6</string>
						<fret>1</fret>
					</frame-note>
					<frame-note>
						<string>5</string>
						<fret>3</fret>
					</frame-note>
					<frame-note>
						<string>4</string>
						<fret>3</fret>
					</frame-note>
					<frame-note>
						<string>3</string>
						<fret>2</fret>
					</frame-note>
					<frame-note>
						<string>2</string>
						<fret>1</fret>
					</frame-note>
					<frame-note>
						<string>1</string>
						<fret>1</fret>
					</frame-note>
				</frame>
				<offset>-18</offset>
				<staff>1</staff>
			</harmony>
			<note>
				<pitch>
					<step>D</step>
					<octave>5</octave>
				</pitch>
				<duration>20</duration>
				<voice>1</voice>
				<type>quarter</type>
				<stem>down</stem>
			</note>
		</measure><!--
===========================================================
-->

		<measure number="28" width="269">
			<print new-system="no"></print>
			<attributes></attributes>
			<harmony default-y="70.0751">
				<root>
					<root-step>C</root-step>
				</root>
				<kind>major</kind>
				<frame default-y="61.7927" valign="top">
					<frame-strings>6</frame-strings>
					<frame-frets>5</frame-frets>
					<frame-note>
						<string>6</string>
						<fret>0</fret>
					</frame-note>
					<frame-note>
						<string>5</string>
						<fret>3</fret>
					</frame-note>
					<frame-note>
						<string>4</string>
						<fret>2</fret>
					</frame-note>
					<frame-note>
						<string>3</string>
						<fret>0</fret>
					</frame-note>
					<frame-note>
						<string>2</string>
						<fret>1</fret>
					</frame-note>
					<frame-note>
						<string>1</string>
						<fret>0</fret>
					</frame-note>
				</frame>
				<offset>2</offset>
				<staff>1</staff>
			</harmony>
			<note>
				<pitch>
					<step>E</step>
					<octave>5</octave>
				</pitch>
				<duration>10</duration>
				<voice>1</voice>
				<type>eighth</type>
				<stem>down</stem>
				<beam number="1">begin</beam>
			</note>
			<note>
				<pitch>
					<step>G</step>
					<octave>5</octave>
				</pitch>
				<duration>10</duration>
				<voice>1</voice>
				<type>eighth</type>
				<stem>down</stem>
				<beam number="1">end</beam>
			</note>
			<harmony default-y="70.0751">
				<root>
					<root-step>C</root-step>
				</root>
				<kind>major</kind>
				<frame default-y="61.7927" valign="top">
					<frame-strings>6</frame-strings>
					<frame-frets>5</frame-frets>
					<frame-note>
						<string>6</string>
						<fret>0</fret>
					</frame-note>
					<frame-note>
						<string>5</string>
						<fret>3</fret>
					</frame-note>
					<frame-note>
						<string>4</string>
						<fret>2</fret>
					</frame-note>
					<frame-note>
						<string>3</string>
						<fret>0</fret>
					</frame-note>
					<frame-note>
						<string>2</string>
						<fret>1</fret>
					</frame-note>
					<frame-note>
						<string>1</string>
						<fret>0</fret>
					</frame-note>
				</frame>
				<offset>15</offset>
				<staff>1</staff>
			</harmony>
			<note>
				<pitch>
					<step>E</step>
					<octave>5</octave>
				</pitch>
				<duration>60</duration>
				<voice>1</voice>
				<type>half</type>
				<dot/>
				<stem>down</stem>
			</note>
		</measure><!--
===========================================================
-->

		<measure number="29" width="251">
			<print new-system="no"></print>
			<attributes></attributes>
			<harmony default-y="70.0751">
				<root>
					<root-step>C</root-step>
				</root>
				<kind>major</kind>
				<frame default-y="61.7927" valign="top">
					<frame-strings>6</frame-strings>
					<frame-frets>5</frame-frets>
					<frame-note>
						<string>6</string>
						<fret>0</fret>
					</frame-note>
					<frame-note>
						<string>5</string>
						<fret>3</fret>
					</frame-note>
					<frame-note>
						<string>4</string>
						<fret>2</fret>
					</frame-note>
					<frame-note>
						<string>3</string>
						<fret>0</fret>
					</frame-note>
					<frame-note>
						<string>2</string>
						<fret>1</fret>
					</frame-note>
					<frame-note>
						<string>1</string>
						<fret>0</fret>
					</frame-note>
				</frame>
				<offset>6</offset>
				<staff>1</staff>
			</harmony>
			<note>
				<rest/>
				<duration>40</duration>
				<voice>1</voice>
				<type>half</type>
			</note>
			<harmony default-y="70.0751">
				<root>
					<root-step>C</root-step>
				</root>
				<kind>major</kind>
				<frame default-y="61.7927" valign="top">
					<frame-strings>6</frame-strings>
					<frame-frets>5</frame-frets>
					<frame-note>
						<string>6</string>
						<fret>0</fret>
					</frame-note>
					<frame-note>
						<string>5</string>
						<fret>3</fret>
					</frame-note>
					<frame-note>
						<string>4</string>
						<fret>2</fret>
					</frame-note>
					<frame-note>
						<string>3</string>
						<fret>0</fret>
					</frame-note>
					<frame-note>
						<string>2</string>
						<fret>1</fret>
					</frame-note>
					<frame-note>
						<string>1</string>
						<fret>0</fret>
					</frame-note>
				</frame>
				<offset>9</offset>
				<staff>1</staff>
			</harmony>
			<note>
				<rest/>
				<duration>20</duration>
				<voice>1</voice>
				<type>quarter</type>
			</note>
			<note>
				<pitch>
					<step>E</step>
					<octave>5</octave>
				</pitch>
				<duration>20</duration>
				<voice>1</voice>
				<type>quarter</type>
				<stem>down</stem>
			</note>
		</measure><!--
===========================================================
-->

		<measure number="30" width="252">
			<print new-system="no"></print>
			<attributes></attributes>
			<harmony default-y="70.0751">
				<root>
					<root-step>G</root-step>
				</root>
				<kind>minor-seventh</kind>
				<frame default-y="61.7927" valign="top">
					<frame-strings>6</frame-strings>
					<frame-frets>5</frame-frets>
					<frame-note>
						<string>6</string>
						<fret>0</fret>
					</frame-note>
					<frame-note>
						<string>5</string>
						<fret>0</fret>
					</frame-note>
					<frame-note>
						<string>4</string>
						<fret>3</fret>
					</frame-note>
					<frame-note>
						<string>3</string>
						<fret>3</fret>
					</frame-note>
					<frame-note>
						<string>2</string>
						<fret>3</fret>
					</frame-note>
					<frame-note>
						<string>1</string>
						<fret>3</fret>
					</frame-note>
				</frame>
				<offset>2</offset>
				<staff>1</staff>
			</harmony>
			<note>
				<pitch>
					<step>D</step>
					<octave>5</octave>
				</pitch>
				<duration>60</duration>
				<voice>1</voice>
				<type>half</type>
				<dot/>
				<stem>down</stem>
			</note>
			<harmony default-y="70.0751">
				<root>
					<root-step>G</root-step>
				</root>
				<kind>minor-seventh</kind>
				<frame default-y="61.7927" valign="top">
					<frame-strings>6</frame-strings>
					<frame-frets>5</frame-frets>
					<frame-note>
						<string>6</string>
						<fret>0</fret>
					</frame-note>
					<frame-note>
						<string>5</string>
						<fret>0</fret>
					</frame-note>
					<frame-note>
						<string>4</string>
						<fret>3</fret>
					</frame-note>
					<frame-note>
						<string>3</string>
						<fret>3</fret>
					</frame-note>
					<frame-note>
						<string>2</string>
						<fret>3</fret>
					</frame-note>
					<frame-note>
						<string>1</string>
						<fret>3</fret>
					</frame-note>
				</frame>
				<offset>-15</offset>
				<staff>1</staff>
			</harmony>
			<note>
				<pitch>
					<step>G</step>
					<octave>5</octave>
				</pitch>
				<duration>20</duration>
				<voice>1</voice>
				<type>quarter</type>
				<stem>down</stem>
			</note>
		</measure><!--
===========================================================
-->

		<measure number="31" width="253">
			<print new-system="no"></print>
			<attributes></attributes>
			<harmony default-y="70.0751">
				<root>
					<root-step>A</root-step>
					<root-alter>1</root-alter>
				</root>
				<kind>major</kind>
				<frame default-y="61.7927" valign="top">
					<frame-strings>6</frame-strings>
					<frame-frets>5</frame-frets>
					<frame-note>
						<string>6</string>
						<fret>0</fret>
					</frame-note>
					<frame-note>
						<string>5</string>
						<fret>0</fret>
					</frame-note>
					<frame-note>
						<string>4</string>
						<fret>3</fret>
					</frame-note>
					<frame-note>
						<string>3</string>
						<fret>3</fret>
					</frame-note>
					<frame-note>
						<string>2</string>
						<fret>3</fret>
					</frame-note>
					<frame-note>
						<string>1</string>
						<fret>1</fret>
					</frame-note>
				</frame>
				<offset>4</offset>
				<staff>1</staff>
			</harmony>
			<harmony default-y="70.0751">
				<root>
					<root-step>A</root-step>
					<root-alter>1</root-alter>
				</root>
				<kind>major</kind>
				<frame default-y="61.7927" valign="top">
					<frame-strings>6</frame-strings>
					<frame-frets>5</frame-frets>
					<frame-note>
						<string>6</string>
						<fret>0</fret>
					</frame-note>
					<frame-note>
						<string>5</string>
						<fret>0</fret>
					</frame-note>
					<frame-note>
						<string>4</string>
						<fret>3</fret>
					</frame-note>
					<frame-note>
						<string>3</string>
						<fret>3</fret>
					</frame-note>
					<frame-note>
						<string>2</string>
						<fret>3</fret>
					</frame-note>
					<frame-note>
						<string>1</string>
						<fret>1</fret>
					</frame-note>
				</frame>
				<offset>43</offset>
				<staff>1</staff>
			</harmony>
			<note>
				<pitch>
					<step>D</step>
					<octave>5</octave>
				</pitch>
				<duration>80</duration>
				<voice>1</voice>
				<type>whole</type>
				<stem>none</stem>
			</note>
		</measure><!--
===========================================================
-->

		<measure number="32" width="333">
			<print new-system="yes">
				<system-layout>
					<system-margins>
						<left-margin>0</left-margin>
						<right-margin>0</right-margin>
					</system-margins>
					<system-distance>95</system-distance>
				</system-layout>
			</print>
			<attributes></attributes>
			<harmony default-y="70.0751">
				<root>
					<root-step>A</root-step>
					<root-alter>1</root-alter>
				</root>
				<kind>major</kind>
				<frame default-y="61.7927" valign="top">
					<frame-strings>6</frame-strings>
					<frame-frets>5</frame-frets>
					<frame-note>
						<string>6</string>
						<fret>0</fret>
					</frame-note>
					<frame-note>
						<string>5</string>
						<fret>0</fret>
					</frame-note>
					<frame-note>
						<string>4</string>
						<fret>3</fret>
					</frame-note>
					<frame-note>
						<string>3</string>
						<fret>3</fret>
					</frame-note>
					<frame-note>
						<string>2</string>
						<fret>3</fret>
					</frame-note>
					<frame-note>
						<string>1</string>
						<fret>1</fret>
					</frame-note>
				</frame>
				<offset>0</offset>
				<staff>1</staff>
			</harmony>
			<note>
				<rest/>
				<duration>40</duration>
				<voice>1</voice>
				<type>half</type>
			</note>
			<harmony default-y="70.0751">
				<root>
					<root-step>A</root-step>
					<root-alter>1</root-alter>
				</root>
				<kind>major</kind>
				<frame default-y="61.7927" valign="top">
					<frame-strings>6</frame-strings>
					<frame-frets>5</frame-frets>
					<frame-note>
						<string>6</string>
						<fret>0</fret>
					</frame-note>
					<frame-note>
						<string>5</string>
						<fret>0</fret>
					</frame-note>
					<frame-note>
						<string>4</string>
						<fret>3</fret>
					</frame-note>
					<frame-note>
						<string>3</string>
						<fret>3</fret>
					</frame-note>
					<frame-note>
						<string>2</string>
						<fret>3</fret>
					</frame-note>
					<frame-note>
						<string>1</string>
						<fret>1</fret>
					</frame-note>
				</frame>
				<offset>21</offset>
				<staff>1</staff>
			</harmony>
			<note>
				<pitch>
					<step>C</step>
					<octave>6</octave>
				</pitch>
				<duration>40</duration>
				<voice>1</voice>
				<type>half</type>
				<stem>down</stem>
			</note>
		</measure><!--
===========================================================
-->

		<measure number="33" width="225">
			<print new-system="no"></print>
			<attributes></attributes>
			<harmony default-y="70.0751">
				<root>
					<root-step>E</root-step>
				</root>
				<kind>minor</kind>
				<frame default-y="61.7927" valign="top">
					<frame-strings>6</frame-strings>
					<frame-frets>5</frame-frets>
					<frame-note>
						<string>6</string>
						<fret>0</fret>
					</frame-note>
					<frame-note>
						<string>5</string>
						<fret>2</fret>
					</frame-note>
					<frame-note>
						<string>4</string>
						<fret>2</fret>
					</frame-note>
					<frame-note>
						<string>3</string>
						<fret>0</fret>
					</frame-note>
					<frame-note>
						<string>2</string>
						<fret>0</fret>
					</frame-note>
					<frame-note>
						<string>1</string>
						<fret>0</fret>
					</frame-note>
				</frame>
				<offset>4</offset>
				<staff>1</staff>
			</harmony>
			<harmony default-y="70.0751">
				<root>
					<root-step>E</root-step>
				</root>
				<kind>minor</kind>
				<frame default-y="61.7927" valign="top">
					<frame-strings>6</frame-strings>
					<frame-frets>5</frame-frets>
					<frame-note>
						<string>6</string>
						<fret>0</fret>
					</frame-note>
					<frame-note>
						<string>5</string>
						<fret>2</fret>
					</frame-note>
					<frame-note>
						<string>4</string>
						<fret>2</fret>
					</frame-note>
					<frame-note>
						<string>3</string>
						<fret>0</fret>
					</frame-note>
					<frame-note>
						<string>2</string>
						<fret>0</fret>
					</frame-note>
					<frame-note>
						<string>1</string>
						<fret>0</fret>
					</frame-note>
				</frame>
				<offset>40</offset>
				<staff>1</staff>
			</harmony>
			<note>
				<pitch>
					<step>B</step>
					<octave>5</octave>
				</pitch>
				<duration>80</duration>
				<voice>1</voice>
				<type>whole</type>
				<stem>none</stem>
			</note>
		</measure><!--
===========================================================
-->

		<measure number="34" width="287">
			<print new-system="no"></print>
			<attributes></attributes>
			<harmony default-y="70.0751">
				<root>
					<root-step>D</root-step>
				</root>
				<kind>minor-seventh</kind>
				<frame default-y="61.7927" valign="top">
					<frame-strings>6</frame-strings>
					<frame-frets>5</frame-frets>
					<frame-note>
						<string>6</string>
						<fret>0</fret>
					</frame-note>
					<frame-note>
						<string>5</string>
						<fret>0</fret>
					</frame-note>
					<frame-note>
						<string>4</string>
						<fret>0</fret>
					</frame-note>
					<frame-note>
						<string>3</string>
						<fret>2</fret>
					</frame-note>
					<frame-note>
						<string>2</string>
						<fret>1</fret>
					</frame-note>
					<frame-note>
						<string>1</string>
						<fret>1</fret>
					</frame-note>
				</frame>
				<offset>2</offset>
				<staff>1</staff>
			</harmony>
			<note>
				<pitch>
					<step>A</step>
					<octave>5</octave>
				</pitch>
				<duration>60</duration>
				<voice>1</voice>
				<type>half</type>
				<dot/>
				<stem>down</stem>
			</note>
			<harmony default-y="70.0751">
				<root>
					<root-step>D</root-step>
				</root>
				<kind>minor-seventh</kind>
				<frame default-y="61.7927" valign="top">
					<frame-strings>6</frame-strings>
					<frame-frets>5</frame-frets>
					<frame-note>
						<string>6</string>
						<fret>0</fret>
					</frame-note>
					<frame-note>
						<string>5</string>
						<fret>0</fret>
					</frame-note>
					<frame-note>
						<string>4</string>
						<fret>0</fret>
					</frame-note>
					<frame-note>
						<string>3</string>
						<fret>2</fret>
					</frame-note>
					<frame-note>
						<string>2</string>
						<fret>1</fret>
					</frame-note>
					<frame-note>
						<string>1</string>
						<fret>1</fret>
					</frame-note>
				</frame>
				<offset>-14</offset>
				<staff>1</staff>
			</harmony>
			<note>
				<pitch>
					<step>G</step>
					<octave>5</octave>
				</pitch>
				<duration>20</duration>
				<voice>1</voice>
				<type>quarter</type>
				<stem>down</stem>
			</note>
		</measure><!--
===========================================================
-->

		<measure number="35" width="489">
			<print new-system="no"></print>
			<attributes></attributes>
			<harmony default-y="70.0751">
				<root>
					<root-step>G</root-step>
				</root>
				<kind>major</kind>
				<frame default-y="61.7927" valign="top">
					<frame-strings>6</frame-strings>
					<frame-frets>5</frame-frets>
					<frame-note>
						<string>6</string>
						<fret>3</fret>
					</frame-note>
					<frame-note>
						<string>5</string>
						<fret>2</fret>
					</frame-note>
					<frame-note>
						<string>4</string>
						<fret>0</fret>
					</frame-note>
					<frame-note>
						<string>3</string>
						<fret>0</fret>
					</frame-note>
					<frame-note>
						<string>2</string>
						<fret>0</fret>
					</frame-note>
					<frame-note>
						<string>1</string>
						<fret>3</fret>
					</frame-note>
				</frame>
				<offset>1</offset>
				<staff>1</staff>
			</harmony>
			<note>
				<pitch>
					<step>A</step>
					<octave>5</octave>
				</pitch>
				<duration>10</duration>
				<voice>1</voice>
				<type>eighth</type>
				<stem>down</stem>
				<beam number="1">begin</beam>
				<notations>
					<articulations>
						<strong-accent placement="below"/>
					</articulations>
				</notations>
			</note>
			<note>
				<pitch>
					<step>G</step>
					<octave>5</octave>
				</pitch>
				<duration>10</duration>
				<voice>1</voice>
				<type>eighth</type>
				<stem>down</stem>
				<beam number="1">continue</beam>
			</note>
			<note>
				<pitch>
					<step>A</step>
					<octave>5</octave>
				</pitch>
				<duration>10</duration>
				<voice>1</voice>
				<type>eighth</type>
				<stem>down</stem>
				<beam number="1">continue</beam>
			</note>
			<note>
				<pitch>
					<step>G</step>
					<octave>5</octave>
				</pitch>
				<duration>10</duration>
				<voice>1</voice>
				<type>eighth</type>
				<stem>down</stem>
				<beam number="1">end</beam>
			</note>
			<harmony default-y="70.0751">
				<root>
					<root-step>G</root-step>
				</root>
				<kind>dominant</kind>
				<frame default-y="61.7927" valign="top">
					<frame-strings>6</frame-strings>
					<frame-frets>5</frame-frets>
					<frame-note>
						<string>6</string>
						<fret>3</fret>
					</frame-note>
					<frame-note>
						<string>5</string>
						<fret>2</fret>
					</frame-note>
					<frame-note>
						<string>4</string>
						<fret>0</fret>
					</frame-note>
					<frame-note>
						<string>3</string>
						<fret>0</fret>
					</frame-note>
					<frame-note>
						<string>2</string>
						<fret>0</fret>
					</frame-note>
					<frame-note>
						<string>1</string>
						<fret>1</fret>
					</frame-note>
				</frame>
				<offset>0</offset>
				<staff>1</staff>
			</harmony>
			<note>
				<pitch>
					<step>A</step>
					<octave>5</octave>
				</pitch>
				<duration>20</duration>
				<voice>1</voice>
				<type>quarter</type>
				<stem>down</stem>
			</note>
			<note>
				<pitch>
					<step>B</step>
					<octave>5</octave>
				</pitch>
				<duration>10</duration>
				<voice>1</voice>
				<type>eighth</type>
				<stem>down</stem>
				<beam number="1">begin</beam>
			</note>
			<note>
				<pitch>
					<step>G</step>
					<octave>5</octave>
				</pitch>
				<duration>10</duration>
				<voice>1</voice>
				<type>eighth</type>
				<stem>down</stem>
				<beam number="1">end</beam>
			</note>
			<barline location="right">
				<bar-style>light-light</bar-style>
			</barline>
		</measure>
	</part>
</score-partwise>