<?xml version="1.0" encoding="UTF-8" standalone="no"?>
<!DOCTYPE score-partwise PUBLIC "-//Recordare//DTD MusicXML 1.1 Partwise//EN" "http://www.musicxml.org/dtds/partwise.dtd">

<score-partwise version="2.0">
	<movement-title></movement-title>
	<identification>
		<creator type="composer"></creator>
		<encoding>
			<software>SmartScore X2 Songbook Edition</software>
			<encoding-date>2018-02-24</encoding-date>
			<supports attribute="new-system" element="print" type="yes" value="yes"/>
			<supports attribute="new-page" element="print" type="yes" value="yes"/>
		</encoding>
	</identification>
	<defaults>
		<scaling>
			<millimeters>6.00</millimeters>
			<tenths>40</tenths>
		</scaling>
		<page-layout>
			<page-height>1862.67</page-height>
			<page-width>1439.33</page-width>
			<page-margins type="both">
				<left-margin>50.89</left-margin>
				<right-margin>50.89</right-margin>
				<top-margin>245.57</top-margin>
				<bottom-margin>245.57</bottom-margin>
			</page-margins>
		</page-layout>
	</defaults>
	<part-list>
		<score-part id="P1">
			<part-name>Nylon Guitar</part-name>
			<part-abbreviation>GuitNyl</part-abbreviation>
			<score-instrument id="P1-S0V0">
				<instrument-name>Nylon String Guit.</instrument-name>
			</score-instrument>
			<midi-instrument id="P1-S0V0">
				<midi-channel>1</midi-channel>
				<midi-program>25</midi-program>
				<volume>78</volume>
				<pan>0</pan>
			</midi-instrument>
		</score-part>
	</part-list><!--
===========================================================
-->

	<part id="P1">
		<measure number="1" width="47">
			<print>
				<page-layout>
					<page-height>1862.67</page-height>
					<page-width>1439.33</page-width>
					<page-margins>
						<left-margin>50.89</left-margin>
						<right-margin>50.89</right-margin>
						<top-margin>245.57</top-margin>
						<bottom-margin>122.79</bottom-margin>
					</page-margins>
				</page-layout>
				<system-layout>
					<system-margins>
						<left-margin>2</left-margin>
						<right-margin>0</right-margin>
					</system-margins>
					<top-system-distance>164</top-system-distance>
				</system-layout>
			</print>
			<attributes>
				<divisions>20</divisions>
				<key>
					<fifths>-2</fifths>
				</key>
				<time>
					<beats>4</beats>
					<beat-type>4</beat-type>
				</time>
				<clef>
					<sign>G</sign>
					<line>2</line>
				</clef>
				<staff-details number="1" print-object="yes">
					<staff-size>83</staff-size>
				</staff-details>
				<transpose>
					<diatonic>0</diatonic>
					<chromatic>0</chromatic>
					<octave-change>-1</octave-change>
				</transpose>
			</attributes>
			<attributes></attributes>
			<forward>
				<duration>80</duration>
			</forward>
		</measure><!--
===========================================================
-->

		<measure number="2" width="209">
			<print new-system="no"></print>
			<attributes></attributes>
			<note>
				<pitch>
					<step>C</step>
					<octave>5</octave>
				</pitch>
				<duration>10</duration>
				<voice>1</voice>
				<type>eighth</type>
				<stem>down</stem>
			</note>
			<harmony default-y="49.2880">
				<root>
					<root-step>F</root-step>
				</root>
				<kind>major</kind>
				<frame default-y="41.0057" valign="top">
					<frame-strings>6</frame-strings>
					<frame-frets>5</frame-frets>
					<frame-note>
						<string>6</string>
						<fret>1</fret>
					</frame-note>
					<frame-note>
						<string>5</string>
						<fret>3</fret>
					</frame-note>
					<frame-note>
						<string>4</string>
						<fret>3</fret>
					</frame-note>
					<frame-note>
						<string>3</string>
						<fret>2</fret>
					</frame-note>
					<frame-note>
						<string>2</string>
						<fret>1</fret>
					</frame-note>
					<frame-note>
						<string>1</string>
						<fret>1</fret>
					</frame-note>
				</frame>
				<offset>-5</offset>
				<staff>1</staff>
			</harmony>
			<note>
				<pitch>
					<step>A</step>
					<octave>4</octave>
				</pitch>
				<duration>30</duration>
				<voice>1</voice>
				<type>quarter</type>
				<dot/>
				<stem>up</stem>
			</note>
			<harmony default-y="49.2880">
				<root>
					<root-step>F</root-step>
				</root>
				<kind>major</kind>
				<frame default-y="41.0057" valign="top">
					<frame-strings>6</frame-strings>
					<frame-frets>5</frame-frets>
					<frame-note>
						<string>6</string>
						<fret>1</fret>
					</frame-note>
					<frame-note>
						<string>5</string>
						<fret>3</fret>
					</frame-note>
					<frame-note>
						<string>4</string>
						<fret>3</fret>
					</frame-note>
					<frame-note>
						<string>3</string>
						<fret>2</fret>
					</frame-note>
					<frame-note>
						<string>2</string>
						<fret>1</fret>
					</frame-note>
					<frame-note>
						<string>1</string>
						<fret>1</fret>
					</frame-note>
				</frame>
				<offset>1</offset>
				<staff>1</staff>
			</harmony>
			<note>
				<pitch>
					<step>G</step>
					<octave>4</octave>
				</pitch>
				<duration>10</duration>
				<voice>1</voice>
				<type>eighth</type>
				<stem>up</stem>
			</note>
			<note>
				<pitch>
					<step>F</step>
					<octave>4</octave>
				</pitch>
				<duration>30</duration>
				<voice>1</voice>
				<type>quarter</type>
				<dot/>
				<stem>up</stem>
			</note>
		</measure><!--
===========================================================
-->

		<measure number="3" width="287">
			<print new-system="no"></print>
			<attributes></attributes>
			<harmony default-y="49.2880">
				<root>
					<root-step>D</root-step>
				</root>
				<kind>dominant</kind>
				<frame default-y="41.0057" valign="top">
					<frame-strings>6</frame-strings>
					<frame-frets>5</frame-frets>
					<frame-note>
						<string>6</string>
						<fret>0</fret>
					</frame-note>
					<frame-note>
						<string>5</string>
						<fret>0</fret>
					</frame-note>
					<frame-note>
						<string>4</string>
						<fret>0</fret>
					</frame-note>
					<frame-note>
						<string>3</string>
						<fret>2</fret>
					</frame-note>
					<frame-note>
						<string>2</string>
						<fret>1</fret>
					</frame-note>
					<frame-note>
						<string>1</string>
						<fret>2</fret>
					</frame-note>
				</frame>
				<offset>1</offset>
				<staff>1</staff>
			</harmony>
			<note>
				<pitch>
					<step>D</step>
					<octave>5</octave>
				</pitch>
				<duration>10</duration>
				<voice>1</voice>
				<type>eighth</type>
				<stem>down</stem>
				<beam number="1">begin</beam>
			</note>
			<note>
				<pitch>
					<step>E</step>
					<alter>-1</alter>
					<octave>5</octave>
				</pitch>
				<duration>10</duration>
				<voice>1</voice>
				<type>eighth</type>
				<stem>down</stem>
				<beam number="1">continue</beam>
			</note>
			<note>
				<pitch>
					<step>D</step>
					<octave>5</octave>
				</pitch>
				<duration>10</duration>
				<voice>1</voice>
				<type>eighth</type>
				<stem>down</stem>
				<beam number="1">continue</beam>
			</note>
			<note>
				<pitch>
					<step>C</step>
					<octave>5</octave>
				</pitch>
				<duration>10</duration>
				<tie type="start"/>
				<voice>1</voice>
				<type>eighth</type>
				<stem>down</stem>
				<beam number="1">end</beam>
				<notations>
					<tied type="start" number="1" orientation="over"/>
				</notations>
			</note>
			<harmony default-y="49.2880">
				<root>
					<root-step>D</root-step>
				</root>
				<kind>dominant</kind>
				<frame default-y="41.0057" valign="top">
					<frame-strings>6</frame-strings>
					<frame-frets>5</frame-frets>
					<frame-note>
						<string>6</string>
						<fret>0</fret>
					</frame-note>
					<frame-note>
						<string>5</string>
						<fret>0</fret>
					</frame-note>
					<frame-note>
						<string>4</string>
						<fret>0</fret>
					</frame-note>
					<frame-note>
						<string>3</string>
						<fret>2</fret>
					</frame-note>
					<frame-note>
						<string>2</string>
						<fret>1</fret>
					</frame-note>
					<frame-note>
						<string>1</string>
						<fret>2</fret>
					</frame-note>
				</frame>
				<offset>1</offset>
				<staff>1</staff>
			</harmony>
			<note>
				<pitch>
					<step>C</step>
					<octave>5</octave>
				</pitch>
				<duration>10</duration>
				<tie type="stop"/>
				<voice>1</voice>
				<type>eighth</type>
				<stem>down</stem>
				<beam number="1">begin</beam>
				<notations>
					<tied type="stop" number="1" orientation="over"/>
				</notations>
			</note>
			<note>
				<pitch>
					<step>D</step>
					<octave>5</octave>
				</pitch>
				<duration>10</duration>
				<voice>1</voice>
				<type>eighth</type>
				<stem>down</stem>
				<beam number="1">continue</beam>
			</note>
			<note>
				<pitch>
					<step>C</step>
					<octave>5</octave>
				</pitch>
				<duration>10</duration>
				<voice>1</voice>
				<type>eighth</type>
				<stem>down</stem>
				<beam number="1">continue</beam>
			</note>
			<note>
				<pitch>
					<step>B</step>
					<alter>-1</alter>
					<octave>4</octave>
				</pitch>
				<duration>10</duration>
				<voice>1</voice>
				<type>eighth</type>
				<stem>down</stem>
				<beam number="1">end</beam>
			</note>
		</measure><!--
===========================================================
-->

		<measure number="4" width="225">
			<print new-system="no"></print>
			<attributes></attributes>
			<harmony default-y="58.4960">
				<root>
					<root-step>G</root-step>
				</root>
				<kind>minor</kind>
				<frame default-y="50.2137" valign="top">
					<frame-strings>6</frame-strings>
					<frame-frets>6</frame-frets>
					<frame-note>
						<string>6</string>
						<fret>0</fret>
					</frame-note>
					<frame-note>
						<string>5</string>
						<fret>0</fret>
					</frame-note>
					<frame-note>
						<string>4</string>
						<fret>5</fret>
					</frame-note>
					<frame-note>
						<string>3</string>
						<fret>3</fret>
					</frame-note>
					<frame-note>
						<string>2</string>
						<fret>3</fret>
					</frame-note>
					<frame-note>
						<string>1</string>
						<fret>3</fret>
					</frame-note>
				</frame>
				<offset>4</offset>
				<staff>1</staff>
			</harmony>
			<note>
				<pitch>
					<step>B</step>
					<alter>-1</alter>
					<octave>4</octave>
				</pitch>
				<duration>30</duration>
				<voice>1</voice>
				<type>quarter</type>
				<dot/>
				<stem>up</stem>
			</note>
			<note>
				<pitch>
					<step>B</step>
					<alter>-1</alter>
					<octave>4</octave>
				</pitch>
				<duration>10</duration>
				<voice>1</voice>
				<type>eighth</type>
				<stem>up</stem>
			</note>
			<harmony default-y="58.4960">
				<root>
					<root-step>G</root-step>
				</root>
				<kind>minor</kind>
				<frame default-y="50.2137" valign="top">
					<frame-strings>6</frame-strings>
					<frame-frets>6</frame-frets>
					<frame-note>
						<string>6</string>
						<fret>0</fret>
					</frame-note>
					<frame-note>
						<string>5</string>
						<fret>0</fret>
					</frame-note>
					<frame-note>
						<string>4</string>
						<fret>5</fret>
					</frame-note>
					<frame-note>
						<string>3</string>
						<fret>3</fret>
					</frame-note>
					<frame-note>
						<string>2</string>
						<fret>3</fret>
					</frame-note>
					<frame-note>
						<string>1</string>
						<fret>3</fret>
					</frame-note>
				</frame>
				<offset>4</offset>
				<staff>1</staff>
			</harmony>
			<note>
				<pitch>
					<step>C</step>
					<octave>5</octave>
				</pitch>
				<duration>10</duration>
				<voice>1</voice>
				<type>eighth</type>
				<stem>down</stem>
				<beam number="1">begin</beam>
			</note>
			<note>
				<pitch>
					<step>B</step>
					<alter>-1</alter>
					<octave>4</octave>
				</pitch>
				<duration>10</duration>
				<voice>1</voice>
				<type>eighth</type>
				<stem>down</stem>
				<beam number="1">end</beam>
			</note>
			<note>
				<rest/>
				<duration>20</duration>
				<voice>1</voice>
				<type>quarter</type>
			</note>
		</measure><!--
===========================================================
-->

		<measure number="5" width="227">
			<print new-system="no"></print>
			<attributes></attributes>
			<harmony default-y="49.2880">
				<root>
					<root-step>E</root-step>
					<root-alter>-1</root-alter>
				</root>
				<kind>major</kind>
				<frame default-y="41.0057" valign="top">
					<frame-strings>6</frame-strings>
					<frame-frets>5</frame-frets>
					<frame-note>
						<string>6</string>
						<fret>0</fret>
					</frame-note>
					<frame-note>
						<string>5</string>
						<fret>0</fret>
					</frame-note>
					<frame-note>
						<string>4</string>
						<fret>1</fret>
					</frame-note>
					<frame-note>
						<string>3</string>
						<fret>3</fret>
					</frame-note>
					<frame-note>
						<string>2</string>
						<fret>4</fret>
					</frame-note>
					<frame-note>
						<string>1</string>
						<fret>3</fret>
					</frame-note>
				</frame>
				<offset>5</offset>
				<staff>1</staff>
			</harmony>
			<note>
				<rest/>
				<duration>40</duration>
				<voice>1</voice>
				<type>half</type>
			</note>
			<harmony default-y="49.2880">
				<root>
					<root-step>E</root-step>
					<root-alter>-1</root-alter>
				</root>
				<kind>major</kind>
				<frame default-y="41.0057" valign="top">
					<frame-strings>6</frame-strings>
					<frame-frets>5</frame-frets>
					<frame-note>
						<string>6</string>
						<fret>0</fret>
					</frame-note>
					<frame-note>
						<string>5</string>
						<fret>0</fret>
					</frame-note>
					<frame-note>
						<string>4</string>
						<fret>1</fret>
					</frame-note>
					<frame-note>
						<string>3</string>
						<fret>3</fret>
					</frame-note>
					<frame-note>
						<string>2</string>
						<fret>4</fret>
					</frame-note>
					<frame-note>
						<string>1</string>
						<fret>3</fret>
					</frame-note>
				</frame>
				<offset>4</offset>
				<staff>1</staff>
			</harmony>
			<note>
				<pitch>
					<step>B</step>
					<alter>-1</alter>
					<octave>4</octave>
				</pitch>
				<duration>10</duration>
				<voice>1</voice>
				<type>eighth</type>
				<stem>down</stem>
				<beam number="1">begin</beam>
			</note>
			<note>
				<pitch>
					<step>B</step>
					<alter>-1</alter>
					<octave>4</octave>
				</pitch>
				<duration>10</duration>
				<voice>1</voice>
				<type>eighth</type>
				<stem>down</stem>
				<beam number="1">continue</beam>
			</note>
			<note>
				<pitch>
					<step>B</step>
					<alter>-1</alter>
					<octave>4</octave>
				</pitch>
				<duration>10</duration>
				<voice>1</voice>
				<type>eighth</type>
				<stem>down</stem>
				<beam number="1">continue</beam>
			</note>
			<note>
				<pitch>
					<step>C</step>
					<octave>5</octave>
				</pitch>
				<duration>10</duration>
				<voice>1</voice>
				<type>eighth</type>
				<stem>down</stem>
				<beam number="1">end</beam>
			</note>
		</measure><!--
===========================================================
-->

		<measure number="6" width="337">
			<print new-system="no"></print>
			<attributes></attributes>
			<harmony default-y="49.2880">
				<root>
					<root-step>F</root-step>
				</root>
				<kind>major</kind>
				<frame default-y="41.0057" valign="top">
					<frame-strings>6</frame-strings>
					<frame-frets>5</frame-frets>
					<frame-note>
						<string>6</string>
						<fret>1</fret>
					</frame-note>
					<frame-note>
						<string>5</string>
						<fret>3</fret>
					</frame-note>
					<frame-note>
						<string>4</string>
						<fret>3</fret>
					</frame-note>
					<frame-note>
						<string>3</string>
						<fret>2</fret>
					</frame-note>
					<frame-note>
						<string>2</string>
						<fret>1</fret>
					</frame-note>
					<frame-note>
						<string>1</string>
						<fret>1</fret>
					</frame-note>
				</frame>
				<offset>1</offset>
				<staff>1</staff>
			</harmony>
			<note>
				<pitch>
					<step>C</step>
					<octave>5</octave>
				</pitch>
				<duration>20</duration>
				<voice>1</voice>
				<type>quarter</type>
				<stem>down</stem>
			</note>
			<note>
				<pitch>
					<step>A</step>
					<octave>4</octave>
				</pitch>
				<duration>10</duration>
				<voice>1</voice>
				<type>eighth</type>
				<stem>up</stem>
			</note>
			<note>
				<pitch>
					<step>G</step>
					<octave>4</octave>
				</pitch>
				<duration>10</duration>
				<voice>1</voice>
				<type>eighth</type>
				<stem>up</stem>
			</note>
			<harmony default-y="49.2880">
				<root>
					<root-step>F</root-step>
				</root>
				<kind>major</kind>
				<frame default-y="41.0057" valign="top">
					<frame-strings>6</frame-strings>
					<frame-frets>5</frame-frets>
					<frame-note>
						<string>6</string>
						<fret>1</fret>
					</frame-note>
					<frame-note>
						<string>5</string>
						<fret>3</fret>
					</frame-note>
					<frame-note>
						<string>4</string>
						<fret>3</fret>
					</frame-note>
					<frame-note>
						<string>3</string>
						<fret>2</fret>
					</frame-note>
					<frame-note>
						<string>2</string>
						<fret>1</fret>
					</frame-note>
					<frame-note>
						<string>1</string>
						<fret>1</fret>
					</frame-note>
				</frame>
				<offset>2</offset>
				<staff>1</staff>
			</harmony>
			<note>
				<pitch>
					<step>A</step>
					<octave>4</octave>
				</pitch>
				<duration>10</duration>
				<voice>1</voice>
				<type>eighth</type>
				<stem>up</stem>
				<beam number="1">begin</beam>
			</note>
			<note>
				<pitch>
					<step>A</step>
					<octave>4</octave>
				</pitch>
				<duration>10</duration>
				<voice>1</voice>
				<type>eighth</type>
				<stem>up</stem>
				<beam number="1">continue</beam>
			</note>
			<note>
				<pitch>
					<step>F</step>
					<octave>4</octave>
				</pitch>
				<duration>10</duration>
				<voice>1</voice>
				<type>eighth</type>
				<stem>up</stem>
				<beam number="1">continue</beam>
			</note>
			<note>
				<pitch>
					<step>G</step>
					<octave>4</octave>
				</pitch>
				<duration>10</duration>
				<tie type="start"/>
				<voice>1</voice>
				<type>eighth</type>
				<stem>up</stem>
				<beam number="1">end</beam>
				<notations>
					<tied type="start" number="1" orientation="under"/>
				</notations>
			</note>
		</measure><!--
===========================================================
-->

		<measure number="7" width="165">
			<print new-system="yes">
				<system-layout>
					<system-margins>
						<left-margin>2</left-margin>
						<right-margin>0</right-margin>
					</system-margins>
					<system-distance>193</system-distance>
				</system-layout>
			</print>
			<attributes></attributes>
			<harmony default-y="58.4960">
				<root>
					<root-step>G</root-step>
				</root>
				<kind>minor</kind>
				<frame default-y="50.2137" valign="top">
					<frame-strings>6</frame-strings>
					<frame-frets>6</frame-frets>
					<frame-note>
						<string>6</string>
						<fret>0</fret>
					</frame-note>
					<frame-note>
						<string>5</string>
						<fret>0</fret>
					</frame-note>
					<frame-note>
						<string>4</string>
						<fret>5</fret>
					</frame-note>
					<frame-note>
						<string>3</string>
						<fret>3</fret>
					</frame-note>
					<frame-note>
						<string>2</string>
						<fret>3</fret>
					</frame-note>
					<frame-note>
						<string>1</string>
						<fret>3</fret>
					</frame-note>
				</frame>
				<offset>0</offset>
				<staff>1</staff>
			</harmony>
			<harmony default-y="58.4960">
				<root>
					<root-step>G</root-step>
				</root>
				<kind>minor</kind>
				<frame default-y="50.2137" valign="top">
					<frame-strings>6</frame-strings>
					<frame-frets>6</frame-frets>
					<frame-note>
						<string>6</string>
						<fret>0</fret>
					</frame-note>
					<frame-note>
						<string>5</string>
						<fret>0</fret>
					</frame-note>
					<frame-note>
						<string>4</string>
						<fret>5</fret>
					</frame-note>
					<frame-note>
						<string>3</string>
						<fret>3</fret>
					</frame-note>
					<frame-note>
						<string>2</string>
						<fret>3</fret>
					</frame-note>
					<frame-note>
						<string>1</string>
						<fret>3</fret>
					</frame-note>
				</frame>
				<offset>41</offset>
				<staff>1</staff>
			</harmony>
			<note>
				<pitch>
					<step>G</step>
					<octave>4</octave>
				</pitch>
				<duration>80</duration>
				<tie type="stop"/>
				<voice>1</voice>
				<type>whole</type>
				<stem>none</stem>
				<notations>
					<tied type="stop" number="1" orientation="under"/>
				</notations>
			</note>
		</measure><!--
===========================================================
-->

		<measure number="8" width="231">
			<print new-system="no"></print>
			<attributes></attributes>
			<harmony default-y="58.4960">
				<root>
					<root-step>G</root-step>
				</root>
				<kind>minor</kind>
				<frame default-y="50.2137" valign="top">
					<frame-strings>6</frame-strings>
					<frame-frets>6</frame-frets>
					<frame-note>
						<string>6</string>
						<fret>0</fret>
					</frame-note>
					<frame-note>
						<string>5</string>
						<fret>0</fret>
					</frame-note>
					<frame-note>
						<string>4</string>
						<fret>5</fret>
					</frame-note>
					<frame-note>
						<string>3</string>
						<fret>3</fret>
					</frame-note>
					<frame-note>
						<string>2</string>
						<fret>3</fret>
					</frame-note>
					<frame-note>
						<string>1</string>
						<fret>3</fret>
					</frame-note>
				</frame>
				<offset>4</offset>
				<staff>1</staff>
			</harmony>
			<note>
				<rest/>
				<duration>40</duration>
				<voice>1</voice>
				<type>half</type>
			</note>
			<note>
				<rest/>
				<duration>10</duration>
				<voice>1</voice>
				<type>eighth</type>
			</note>
			<harmony default-y="58.4960">
				<root>
					<root-step>G</root-step>
				</root>
				<kind>minor</kind>
				<frame default-y="50.2137" valign="top">
					<frame-strings>6</frame-strings>
					<frame-frets>6</frame-frets>
					<frame-note>
						<string>6</string>
						<fret>0</fret>
					</frame-note>
					<frame-note>
						<string>5</string>
						<fret>0</fret>
					</frame-note>
					<frame-note>
						<string>4</string>
						<fret>5</fret>
					</frame-note>
					<frame-note>
						<string>3</string>
						<fret>3</fret>
					</frame-note>
					<frame-note>
						<string>2</string>
						<fret>3</fret>
					</frame-note>
					<frame-note>
						<string>1</string>
						<fret>3</fret>
					</frame-note>
				</frame>
				<offset>-3</offset>
				<staff>1</staff>
			</harmony>
			<note>
				<pitch>
					<step>A</step>
					<octave>4</octave>
				</pitch>
				<duration>10</duration>
				<voice>1</voice>
				<type>eighth</type>
				<stem>up</stem>
			</note>
			<note>
				<pitch>
					<step>B</step>
					<alter>-1</alter>
					<octave>4</octave>
				</pitch>
				<duration>10</duration>
				<voice>1</voice>
				<type>eighth</type>
				<stem>down</stem>
				<beam number="1">begin</beam>
			</note>
			<note>
				<pitch>
					<step>C</step>
					<octave>5</octave>
				</pitch>
				<duration>10</duration>
				<tie type="start"/>
				<voice>1</voice>
				<type>eighth</type>
				<stem>down</stem>
				<beam number="1">end</beam>
				<notations>
					<tied type="start" number="1" orientation="over"/>
				</notations>
			</note>
		</measure><!--
===========================================================
-->

		<measure number="9" width="238">
			<print new-system="no"></print>
			<attributes></attributes>
			<note>
				<pitch>
					<step>C</step>
					<octave>5</octave>
				</pitch>
				<duration>10</duration>
				<tie type="stop"/>
				<voice>1</voice>
				<type>eighth</type>
				<stem>down</stem>
				<notations>
					<tied type="stop" number="1" orientation="over"/>
				</notations>
			</note>
			<harmony default-y="49.2880">
				<root>
					<root-step>E</root-step>
					<root-alter>-1</root-alter>
				</root>
				<kind>major</kind>
				<frame default-y="41.0057" valign="top">
					<frame-strings>6</frame-strings>
					<frame-frets>5</frame-frets>
					<frame-note>
						<string>6</string>
						<fret>0</fret>
					</frame-note>
					<frame-note>
						<string>5</string>
						<fret>0</fret>
					</frame-note>
					<frame-note>
						<string>4</string>
						<fret>1</fret>
					</frame-note>
					<frame-note>
						<string>3</string>
						<fret>3</fret>
					</frame-note>
					<frame-note>
						<string>2</string>
						<fret>4</fret>
					</frame-note>
					<frame-note>
						<string>1</string>
						<fret>3</fret>
					</frame-note>
				</frame>
				<offset>-5</offset>
				<staff>1</staff>
			</harmony>
			<note>
				<pitch>
					<step>D</step>
					<octave>5</octave>
				</pitch>
				<duration>20</duration>
				<voice>1</voice>
				<type>quarter</type>
				<stem>down</stem>
			</note>
			<note>
				<pitch>
					<step>B</step>
					<alter>-1</alter>
					<octave>4</octave>
				</pitch>
				<duration>10</duration>
				<tie type="start"/>
				<voice>1</voice>
				<type>eighth</type>
				<stem>up</stem>
				<notations>
					<tied type="start" number="1" orientation="under"/>
				</notations>
			</note>
			<harmony default-y="49.2880">
				<root>
					<root-step>E</root-step>
					<root-alter>-1</root-alter>
				</root>
				<kind>major</kind>
				<frame default-y="41.0057" valign="top">
					<frame-strings>6</frame-strings>
					<frame-frets>5</frame-frets>
					<frame-note>
						<string>6</string>
						<fret>0</fret>
					</frame-note>
					<frame-note>
						<string>5</string>
						<fret>0</fret>
					</frame-note>
					<frame-note>
						<string>4</string>
						<fret>1</fret>
					</frame-note>
					<frame-note>
						<string>3</string>
						<fret>3</fret>
					</frame-note>
					<frame-note>
						<string>2</string>
						<fret>4</fret>
					</frame-note>
					<frame-note>
						<string>1</string>
						<fret>3</fret>
					</frame-note>
				</frame>
				<offset>-3</offset>
				<staff>1</staff>
			</harmony>
			<note>
				<pitch>
					<step>B</step>
					<alter>-1</alter>
					<octave>4</octave>
				</pitch>
				<duration>10</duration>
				<tie type="stop"/>
				<voice>1</voice>
				<type>eighth</type>
				<stem>up</stem>
				<notations>
					<tied type="stop" number="1" orientation="under"/>
				</notations>
			</note>
			<note>
				<pitch>
					<step>G</step>
					<octave>4</octave>
				</pitch>
				<duration>30</duration>
				<voice>1</voice>
				<type>quarter</type>
				<dot/>
				<stem>up</stem>
			</note>
		</measure><!--
===========================================================
-->

		<measure number="10" width="131">
			<print new-system="no"></print>
			<attributes></attributes>
			<harmony default-y="49.2880">
				<root>
					<root-step>E</root-step>
					<root-alter>-1</root-alter>
				</root>
				<kind>major</kind>
				<frame default-y="41.0057" valign="top">
					<frame-strings>6</frame-strings>
					<frame-frets>5</frame-frets>
					<frame-note>
						<string>6</string>
						<fret>0</fret>
					</frame-note>
					<frame-note>
						<string>5</string>
						<fret>0</fret>
					</frame-note>
					<frame-note>
						<string>4</string>
						<fret>1</fret>
					</frame-note>
					<frame-note>
						<string>3</string>
						<fret>3</fret>
					</frame-note>
					<frame-note>
						<string>2</string>
						<fret>4</fret>
					</frame-note>
					<frame-note>
						<string>1</string>
						<fret>3</fret>
					</frame-note>
				</frame>
				<offset>6</offset>
				<staff>1</staff>
			</harmony>
			<note>
				<rest/>
				<duration>20</duration>
				<voice>1</voice>
				<type>quarter</type>
			</note>
			<note>
				<rest/>
				<duration>20</duration>
				<voice>1</voice>
				<type>quarter</type>
			</note>
			<harmony default-y="49.2880">
				<root>
					<root-step>E</root-step>
					<root-alter>-1</root-alter>
				</root>
				<kind>major</kind>
				<frame default-y="41.0057" valign="top">
					<frame-strings>6</frame-strings>
					<frame-frets>5</frame-frets>
					<frame-note>
						<string>6</string>
						<fret>0</fret>
					</frame-note>
					<frame-note>
						<string>5</string>
						<fret>0</fret>
					</frame-note>
					<frame-note>
						<string>4</string>
						<fret>1</fret>
					</frame-note>
					<frame-note>
						<string>3</string>
						<fret>3</fret>
					</frame-note>
					<frame-note>
						<string>2</string>
						<fret>4</fret>
					</frame-note>
					<frame-note>
						<string>1</string>
						<fret>3</fret>
					</frame-note>
				</frame>
				<offset>6</offset>
				<staff>1</staff>
			</harmony>
			<note>
				<rest/>
				<duration>20</duration>
				<voice>1</voice>
				<type>quarter</type>
			</note>
			<note>
				<rest/>
				<duration>20</duration>
				<voice>1</voice>
				<type>quarter</type>
			</note>
		</measure><!--
===========================================================
-->

		<measure number="11" width="276">
			<print new-system="no"></print>
			<attributes></attributes>
			<harmony default-y="49.2880">
				<root>
					<root-step>F</root-step>
				</root>
				<kind>dominant</kind>
				<frame default-y="41.0057" valign="top">
					<frame-strings>6</frame-strings>
					<frame-frets>5</frame-frets>
					<frame-note>
						<string>6</string>
						<fret>1</fret>
					</frame-note>
					<frame-note>
						<string>5</string>
						<fret>3</fret>
					</frame-note>
					<frame-note>
						<string>4</string>
						<fret>1</fret>
					</frame-note>
					<frame-note>
						<string>3</string>
						<fret>2</fret>
					</frame-note>
					<frame-note>
						<string>2</string>
						<fret>1</fret>
					</frame-note>
					<frame-note>
						<string>1</string>
						<fret>1</fret>
					</frame-note>
				</frame>
				<offset>4</offset>
				<staff>1</staff>
			</harmony>
			<note>
				<rest/>
				<duration>20</duration>
				<voice>1</voice>
				<type>quarter</type>
			</note>
			<note>
				<rest/>
				<duration>10</duration>
				<voice>1</voice>
				<type>eighth</type>
			</note>
			<note>
				<pitch>
					<step>F</step>
					<octave>4</octave>
				</pitch>
				<duration>10</duration>
				<voice>1</voice>
				<type>eighth</type>
				<stem>up</stem>
			</note>
			<harmony default-y="49.2880">
				<root>
					<root-step>F</root-step>
				</root>
				<kind>dominant</kind>
				<frame default-y="41.0057" valign="top">
					<frame-strings>6</frame-strings>
					<frame-frets>5</frame-frets>
					<frame-note>
						<string>6</string>
						<fret>1</fret>
					</frame-note>
					<frame-note>
						<string>5</string>
						<fret>3</fret>
					</frame-note>
					<frame-note>
						<string>4</string>
						<fret>1</fret>
					</frame-note>
					<frame-note>
						<string>3</string>
						<fret>2</fret>
					</frame-note>
					<frame-note>
						<string>2</string>
						<fret>1</fret>
					</frame-note>
					<frame-note>
						<string>1</string>
						<fret>1</fret>
					</frame-note>
				</frame>
				<offset>1</offset>
				<staff>1</staff>
			</harmony>
			<note>
				<pitch>
					<step>F</step>
					<octave>4</octave>
				</pitch>
				<duration>10</duration>
				<voice>1</voice>
				<type>eighth</type>
				<stem>up</stem>
				<beam number="1">begin</beam>
			</note>
			<note>
				<pitch>
					<step>F</step>
					<octave>4</octave>
				</pitch>
				<duration>10</duration>
				<voice>1</voice>
				<type>eighth</type>
				<stem>up</stem>
				<beam number="1">continue</beam>
				<notations>
					<articulations>
						<staccato placement="above"/>
					</articulations>
				</notations>
			</note>
			<note>
				<pitch>
					<step>F</step>
					<octave>4</octave>
				</pitch>
				<duration>10</duration>
				<voice>1</voice>
				<type>eighth</type>
				<stem>up</stem>
				<beam number="1">continue</beam>
			</note>
			<note>
				<pitch>
					<step>E</step>
					<alter>-1</alter>
					<octave>5</octave>
				</pitch>
				<duration>10</duration>
				<tie type="start"/>
				<voice>1</voice>
				<type>eighth</type>
				<stem>up</stem>
				<beam number="1">end</beam>
				<notations>
					<tied type="start" number="1" orientation="over"/>
				</notations>
			</note>
		</measure><!--
===========================================================
-->

		<measure number="12" width="292">
			<print new-system="no"></print>
			<attributes></attributes>
			<harmony default-y="49.2880">
				<root>
					<root-step>E</root-step>
					<root-alter>-1</root-alter>
				</root>
				<kind>major</kind>
				<frame default-y="41.0057" valign="top">
					<frame-strings>6</frame-strings>
					<frame-frets>5</frame-frets>
					<frame-note>
						<string>6</string>
						<fret>0</fret>
					</frame-note>
					<frame-note>
						<string>5</string>
						<fret>0</fret>
					</frame-note>
					<frame-note>
						<string>4</string>
						<fret>1</fret>
					</frame-note>
					<frame-note>
						<string>3</string>
						<fret>3</fret>
					</frame-note>
					<frame-note>
						<string>2</string>
						<fret>4</fret>
					</frame-note>
					<frame-note>
						<string>1</string>
						<fret>3</fret>
					</frame-note>
				</frame>
				<offset>4</offset>
				<staff>1</staff>
			</harmony>
			<note>
				<pitch>
					<step>E</step>
					<alter>-1</alter>
					<octave>5</octave>
				</pitch>
				<duration>10</duration>
				<tie type="stop"/>
				<voice>1</voice>
				<type>eighth</type>
				<stem>down</stem>
				<notations>
					<tied type="stop" number="1" orientation="over"/>
				</notations>
			</note>
			<note>
				<pitch>
					<step>D</step>
					<octave>5</octave>
				</pitch>
				<duration>20</duration>
				<voice>1</voice>
				<type>quarter</type>
				<stem>down</stem>
			</note>
			<note>
				<pitch>
					<step>B</step>
					<alter>-1</alter>
					<octave>4</octave>
				</pitch>
				<duration>10</duration>
				<voice>1</voice>
				<type>eighth</type>
				<stem>up</stem>
			</note>
			<harmony default-y="49.2880">
				<root>
					<root-step>E</root-step>
					<root-alter>-1</root-alter>
				</root>
				<kind>major</kind>
				<frame default-y="41.0057" valign="top">
					<frame-strings>6</frame-strings>
					<frame-frets>5</frame-frets>
					<frame-note>
						<string>6</string>
						<fret>0</fret>
					</frame-note>
					<frame-note>
						<string>5</string>
						<fret>0</fret>
					</frame-note>
					<frame-note>
						<string>4</string>
						<fret>1</fret>
					</frame-note>
					<frame-note>
						<string>3</string>
						<fret>3</fret>
					</frame-note>
					<frame-note>
						<string>2</string>
						<fret>4</fret>
					</frame-note>
					<frame-note>
						<string>1</string>
						<fret>3</fret>
					</frame-note>
				</frame>
				<offset>0</offset>
				<staff>1</staff>
			</harmony>
			<note>
				<pitch>
					<step>B</step>
					<alter>-1</alter>
					<octave>4</octave>
				</pitch>
				<duration>10</duration>
				<voice>1</voice>
				<type>eighth</type>
				<stem>up</stem>
			</note>
			<note>
				<pitch>
					<step>B</step>
					<alter>-1</alter>
					<octave>4</octave>
				</pitch>
				<duration>20</duration>
				<voice>1</voice>
				<type>quarter</type>
				<stem>up</stem>
			</note>
			<note>
				<pitch>
					<step>B</step>
					<alter>-1</alter>
					<octave>4</octave>
				</pitch>
				<duration>10</duration>
				<voice>1</voice>
				<type>eighth</type>
				<stem>up</stem>
				<notations>
					<articulations>
						<strong-accent placement="below"/>
					</articulations>
				</notations>
			</note>
		</measure><!--
===========================================================
-->

		<measure number="13" width="309">
			<print new-system="yes">
				<system-layout>
					<system-margins>
						<left-margin>1</left-margin>
						<right-margin>1</right-margin>
					</system-margins>
					<system-distance>430</system-distance>
				</system-layout>
			</print>
			<attributes></attributes>
			<harmony default-y="49.2880">
				<root>
					<root-step>E</root-step>
					<root-alter>-1</root-alter>
				</root>
				<kind>major</kind>
				<frame default-y="41.0057" valign="top">
					<frame-strings>6</frame-strings>
					<frame-frets>5</frame-frets>
					<frame-note>
						<string>6</string>
						<fret>0</fret>
					</frame-note>
					<frame-note>
						<string>5</string>
						<fret>0</fret>
					</frame-note>
					<frame-note>
						<string>4</string>
						<fret>1</fret>
					</frame-note>
					<frame-note>
						<string>3</string>
						<fret>3</fret>
					</frame-note>
					<frame-note>
						<string>2</string>
						<fret>4</fret>
					</frame-note>
					<frame-note>
						<string>1</string>
						<fret>3</fret>
					</frame-note>
				</frame>
				<offset>0</offset>
				<staff>1</staff>
			</harmony>
			<note>
				<rest/>
				<duration>20</duration>
				<voice>1</voice>
				<type>quarter</type>
			</note>
			<note>
				<pitch>
					<step>G</step>
					<octave>4</octave>
				</pitch>
				<duration>10</duration>
				<voice>1</voice>
				<type>eighth</type>
				<stem>up</stem>
				<beam number="1">begin</beam>
			</note>
			<note>
				<pitch>
					<step>B</step>
					<alter>-1</alter>
					<octave>4</octave>
				</pitch>
				<duration>10</duration>
				<tie type="start"/>
				<voice>1</voice>
				<type>eighth</type>
				<stem>up</stem>
				<beam number="1">end</beam>
				<notations>
					<tied type="start" number="1" orientation="under"/>
				</notations>
			</note>
			<note>
				<pitch>
					<step>B</step>
					<alter>-1</alter>
					<octave>4</octave>
				</pitch>
				<duration>10</duration>
				<tie type="stop"/>
				<voice>1</voice>
				<type>eighth</type>
				<stem>up</stem>
				<notations>
					<tied type="stop" number="1" orientation="under"/>
				</notations>
			</note>
			<harmony default-y="49.2880">
				<root>
					<root-step>E</root-step>
					<root-alter>-1</root-alter>
				</root>
				<kind>major</kind>
				<frame default-y="41.0057" valign="top">
					<frame-strings>6</frame-strings>
					<frame-frets>5</frame-frets>
					<frame-note>
						<string>6</string>
						<fret>0</fret>
					</frame-note>
					<frame-note>
						<string>5</string>
						<fret>0</fret>
					</frame-note>
					<frame-note>
						<string>4</string>
						<fret>1</fret>
					</frame-note>
					<frame-note>
						<string>3</string>
						<fret>3</fret>
					</frame-note>
					<frame-note>
						<string>2</string>
						<fret>4</fret>
					</frame-note>
					<frame-note>
						<string>1</string>
						<fret>3</fret>
					</frame-note>
				</frame>
				<offset>-2</offset>
				<staff>1</staff>
			</harmony>
			<note>
				<pitch>
					<step>C</step>
					<octave>5</octave>
				</pitch>
				<duration>20</duration>
				<voice>1</voice>
				<type>quarter</type>
				<stem>down</stem>
			</note>
			<note>
				<pitch>
					<step>B</step>
					<alter>-1</alter>
					<octave>4</octave>
				</pitch>
				<duration>10</duration>
				<tie type="start"/>
				<voice>1</voice>
				<type>eighth</type>
				<stem>up</stem>
				<notations>
					<tied type="start" number="1" orientation="under"/>
				</notations>
			</note>
		</measure><!--
===========================================================
-->

		<measure number="14" width="272">
			<print new-system="no"></print>
			<attributes></attributes>
			<harmony default-y="49.2880">
				<root>
					<root-step>E</root-step>
					<root-alter>-1</root-alter>
				</root>
				<kind>major</kind>
				<frame default-y="41.0057" valign="top">
					<frame-strings>6</frame-strings>
					<frame-frets>5</frame-frets>
					<frame-note>
						<string>6</string>
						<fret>0</fret>
					</frame-note>
					<frame-note>
						<string>5</string>
						<fret>0</fret>
					</frame-note>
					<frame-note>
						<string>4</string>
						<fret>1</fret>
					</frame-note>
					<frame-note>
						<string>3</string>
						<fret>3</fret>
					</frame-note>
					<frame-note>
						<string>2</string>
						<fret>4</fret>
					</frame-note>
					<frame-note>
						<string>1</string>
						<fret>3</fret>
					</frame-note>
				</frame>
				<offset>5</offset>
				<staff>1</staff>
			</harmony>
			<note>
				<pitch>
					<step>B</step>
					<alter>-1</alter>
					<octave>4</octave>
				</pitch>
				<duration>10</duration>
				<tie type="stop"/>
				<voice>1</voice>
				<type>eighth</type>
				<stem>up</stem>
				<beam number="1">begin</beam>
				<notations>
					<tied type="stop" number="1" orientation="under"/>
				</notations>
			</note>
			<note>
				<pitch>
					<step>G</step>
					<octave>4</octave>
				</pitch>
				<duration>10</duration>
				<tie type="start"/>
				<voice>1</voice>
				<type>eighth</type>
				<stem>up</stem>
				<beam number="1">end</beam>
				<notations>
					<tied type="start" number="1" orientation="under"/>
				</notations>
			</note>
			<note>
				<pitch>
					<step>G</step>
					<octave>4</octave>
				</pitch>
				<duration>20</duration>
				<tie type="stop"/>
				<voice>1</voice>
				<type>quarter</type>
				<stem>up</stem>
				<notations>
					<tied type="stop" number="1" orientation="under"/>
				</notations>
			</note>
			<harmony default-y="49.2880">
				<root>
					<root-step>E</root-step>
					<root-alter>-1</root-alter>
				</root>
				<kind>major</kind>
				<frame default-y="41.0057" valign="top">
					<frame-strings>6</frame-strings>
					<frame-frets>5</frame-frets>
					<frame-note>
						<string>6</string>
						<fret>0</fret>
					</frame-note>
					<frame-note>
						<string>5</string>
						<fret>0</fret>
					</frame-note>
					<frame-note>
						<string>4</string>
						<fret>1</fret>
					</frame-note>
					<frame-note>
						<string>3</string>
						<fret>3</fret>
					</frame-note>
					<frame-note>
						<string>2</string>
						<fret>4</fret>
					</frame-note>
					<frame-note>
						<string>1</string>
						<fret>3</fret>
					</frame-note>
				</frame>
				<offset>3</offset>
				<staff>1</staff>
			</harmony>
			<note>
				<rest/>
				<duration>10</duration>
				<voice>1</voice>
				<type>eighth</type>
			</note>
			<note>
				<pitch>
					<step>G</step>
					<octave>4</octave>
				</pitch>
				<duration>10</duration>
				<voice>1</voice>
				<type>eighth</type>
				<stem>up</stem>
				<notations>
					<articulations>
						<strong-accent placement="below"/>
					</articulations>
				</notations>
			</note>
			<note>
				<pitch>
					<step>B</step>
					<alter>-1</alter>
					<octave>4</octave>
				</pitch>
				<duration>20</duration>
				<voice>1</voice>
				<type>quarter</type>
				<stem>up</stem>
			</note>
		</measure><!--
===========================================================
-->

		<measure number="15" width="272">
			<print new-system="no"></print>
			<attributes></attributes>
			<harmony default-y="49.2880">
				<root>
					<root-step>B</root-step>
					<root-alter>-1</root-alter>
				</root>
				<kind>major</kind>
				<frame default-y="41.0057" valign="top">
					<frame-strings>6</frame-strings>
					<frame-frets>5</frame-frets>
					<frame-note>
						<string>6</string>
						<fret>0</fret>
					</frame-note>
					<frame-note>
						<string>5</string>
						<fret>1</fret>
					</frame-note>
					<frame-note>
						<string>4</string>
						<fret>3</fret>
					</frame-note>
					<frame-note>
						<string>3</string>
						<fret>3</fret>
					</frame-note>
					<frame-note>
						<string>2</string>
						<fret>3</fret>
					</frame-note>
					<frame-note>
						<string>1</string>
						<fret>1</fret>
					</frame-note>
				</frame>
				<offset>3</offset>
				<staff>1</staff>
			</harmony>
			<note>
				<rest/>
				<duration>20</duration>
				<voice>1</voice>
				<type>quarter</type>
			</note>
			<note>
				<pitch>
					<step>D</step>
					<octave>5</octave>
				</pitch>
				<duration>10</duration>
				<voice>1</voice>
				<type>eighth</type>
				<stem>down</stem>
				<beam number="1">begin</beam>
			</note>
			<note>
				<pitch>
					<step>B</step>
					<alter>-1</alter>
					<octave>4</octave>
				</pitch>
				<duration>10</duration>
				<tie type="start"/>
				<voice>1</voice>
				<type>eighth</type>
				<stem>down</stem>
				<beam number="1">end</beam>
				<notations>
					<tied type="start" number="1" orientation="under"/>
				</notations>
			</note>
			<note>
				<pitch>
					<step>B</step>
					<alter>-1</alter>
					<octave>4</octave>
				</pitch>
				<duration>10</duration>
				<tie type="stop"/>
				<voice>1</voice>
				<type>eighth</type>
				<stem>up</stem>
				<notations>
					<tied type="stop" number="1" orientation="under"/>
				</notations>
			</note>
			<harmony default-y="49.2880">
				<root>
					<root-step>B</root-step>
					<root-alter>-1</root-alter>
				</root>
				<kind>major</kind>
				<frame default-y="41.0057" valign="top">
					<frame-strings>6</frame-strings>
					<frame-frets>5</frame-frets>
					<frame-note>
						<string>6</string>
						<fret>0</fret>
					</frame-note>
					<frame-note>
						<string>5</string>
						<fret>1</fret>
					</frame-note>
					<frame-note>
						<string>4</string>
						<fret>3</fret>
					</frame-note>
					<frame-note>
						<string>3</string>
						<fret>3</fret>
					</frame-note>
					<frame-note>
						<string>2</string>
						<fret>3</fret>
					</frame-note>
					<frame-note>
						<string>1</string>
						<fret>1</fret>
					</frame-note>
				</frame>
				<offset>-1</offset>
				<staff>1</staff>
			</harmony>
			<note>
				<pitch>
					<step>C</step>
					<octave>5</octave>
				</pitch>
				<duration>20</duration>
				<voice>1</voice>
				<type>quarter</type>
				<stem>down</stem>
			</note>
			<note>
				<pitch>
					<step>B</step>
					<alter>-1</alter>
					<octave>4</octave>
				</pitch>
				<duration>10</duration>
				<voice>1</voice>
				<type>eighth</type>
				<stem>up</stem>
			</note>
		</measure><!--
===========================================================
-->

		<measure number="16" width="251">
			<print new-system="no"></print>
			<attributes></attributes>
			<harmony default-y="49.2880">
				<root>
					<root-step>B</root-step>
					<root-alter>-1</root-alter>
				</root>
				<kind>major</kind>
				<frame default-y="41.0057" valign="top">
					<frame-strings>6</frame-strings>
					<frame-frets>5</frame-frets>
					<frame-note>
						<string>6</string>
						<fret>0</fret>
					</frame-note>
					<frame-note>
						<string>5</string>
						<fret>1</fret>
					</frame-note>
					<frame-note>
						<string>4</string>
						<fret>3</fret>
					</frame-note>
					<frame-note>
						<string>3</string>
						<fret>3</fret>
					</frame-note>
					<frame-note>
						<string>2</string>
						<fret>3</fret>
					</frame-note>
					<frame-note>
						<string>1</string>
						<fret>1</fret>
					</frame-note>
				</frame>
				<offset>3</offset>
				<staff>1</staff>
			</harmony>
			<note>
				<pitch>
					<step>B</step>
					<alter>-1</alter>
					<octave>4</octave>
				</pitch>
				<duration>20</duration>
				<voice>1</voice>
				<type>quarter</type>
				<stem>up</stem>
			</note>
			<note>
				<pitch>
					<step>D</step>
					<octave>5</octave>
				</pitch>
				<duration>10</duration>
				<voice>1</voice>
				<type>eighth</type>
				<stem>down</stem>
				<beam number="1">begin</beam>
			</note>
			<note>
				<pitch>
					<step>C</step>
					<octave>5</octave>
				</pitch>
				<duration>10</duration>
				<voice>1</voice>
				<type>eighth</type>
				<stem>down</stem>
				<beam number="1">end</beam>
				<notations>
					<articulations>
						<strong-accent placement="below"/>
					</articulations>
				</notations>
			</note>
			<harmony default-y="49.2880">
				<root>
					<root-step>B</root-step>
					<root-alter>-1</root-alter>
				</root>
				<kind>major</kind>
				<frame default-y="41.0057" valign="top">
					<frame-strings>6</frame-strings>
					<frame-frets>5</frame-frets>
					<frame-note>
						<string>6</string>
						<fret>0</fret>
					</frame-note>
					<frame-note>
						<string>5</string>
						<fret>1</fret>
					</frame-note>
					<frame-note>
						<string>4</string>
						<fret>3</fret>
					</frame-note>
					<frame-note>
						<string>3</string>
						<fret>3</fret>
					</frame-note>
					<frame-note>
						<string>2</string>
						<fret>3</fret>
					</frame-note>
					<frame-note>
						<string>1</string>
						<fret>1</fret>
					</frame-note>
				</frame>
				<offset>4</offset>
				<staff>1</staff>
			</harmony>
			<note>
				<pitch>
					<step>C</step>
					<octave>5</octave>
				</pitch>
				<duration>10</duration>
				<voice>1</voice>
				<type>eighth</type>
				<stem>down</stem>
			</note>
			<note>
				<pitch>
					<step>B</step>
					<alter>-1</alter>
					<octave>4</octave>
				</pitch>
				<duration>30</duration>
				<voice>1</voice>
				<type>quarter</type>
				<dot/>
				<stem>up</stem>
				<notations>
					<articulations>
						<tenuto placement="above"/>
					</articulations>
				</notations>
			</note>
		</measure><!--
===========================================================
-->

		<measure number="17" width="229">
			<print new-system="no"></print>
			<attributes></attributes>
			<harmony default-y="49.2880">
				<root>
					<root-step>E</root-step>
					<root-alter>-1</root-alter>
				</root>
				<kind>major</kind>
				<frame default-y="41.0057" valign="top">
					<frame-strings>6</frame-strings>
					<frame-frets>5</frame-frets>
					<frame-note>
						<string>6</string>
						<fret>0</fret>
					</frame-note>
					<frame-note>
						<string>5</string>
						<fret>0</fret>
					</frame-note>
					<frame-note>
						<string>4</string>
						<fret>1</fret>
					</frame-note>
					<frame-note>
						<string>3</string>
						<fret>3</fret>
					</frame-note>
					<frame-note>
						<string>2</string>
						<fret>4</fret>
					</frame-note>
					<frame-note>
						<string>1</string>
						<fret>3</fret>
					</frame-note>
				</frame>
				<offset>3</offset>
				<staff>1</staff>
			</harmony>
			<note>
				<pitch>
					<step>B</step>
					<alter>-1</alter>
					<octave>4</octave>
				</pitch>
				<duration>20</duration>
				<voice>1</voice>
				<type>quarter</type>
				<stem>up</stem>
			</note>
			<note>
				<pitch>
					<step>C</step>
					<octave>5</octave>
				</pitch>
				<duration>10</duration>
				<voice>1</voice>
				<type>eighth</type>
				<stem>up</stem>
				<beam number="1">begin</beam>
			</note>
			<note>
				<pitch>
					<step>G</step>
					<octave>4</octave>
				</pitch>
				<duration>10</duration>
				<voice>1</voice>
				<type>eighth</type>
				<stem>up</stem>
				<beam number="1">end</beam>
			</note>
			<harmony default-y="49.2880">
				<root>
					<root-step>E</root-step>
					<root-alter>-1</root-alter>
				</root>
				<kind>major</kind>
				<frame default-y="41.0057" valign="top">
					<frame-strings>6</frame-strings>
					<frame-frets>5</frame-frets>
					<frame-note>
						<string>6</string>
						<fret>0</fret>
					</frame-note>
					<frame-note>
						<string>5</string>
						<fret>0</fret>
					</frame-note>
					<frame-note>
						<string>4</string>
						<fret>1</fret>
					</frame-note>
					<frame-note>
						<string>3</string>
						<fret>3</fret>
					</frame-note>
					<frame-note>
						<string>2</string>
						<fret>4</fret>
					</frame-note>
					<frame-note>
						<string>1</string>
						<fret>3</fret>
					</frame-note>
				</frame>
				<offset>0</offset>
				<staff>1</staff>
			</harmony>
			<note>
				<pitch>
					<step>G</step>
					<octave>4</octave>
				</pitch>
				<duration>40</duration>
				<voice>1</voice>
				<type>half</type>
				<stem>up</stem>
			</note>
		</measure><!--
===========================================================
-->

		<measure number="18" width="277">
			<print new-system="yes">
				<system-layout>
					<system-margins>
						<left-margin>0</left-margin>
						<right-margin>0</right-margin>
					</system-margins>
					<system-distance>171</system-distance>
				</system-layout>
			</print>
			<attributes></attributes>
			<harmony default-y="49.2880">
				<root>
					<root-step>E</root-step>
					<root-alter>-1</root-alter>
				</root>
				<kind>major</kind>
				<frame default-y="41.0057" valign="top">
					<frame-strings>6</frame-strings>
					<frame-frets>5</frame-frets>
					<frame-note>
						<string>6</string>
						<fret>0</fret>
					</frame-note>
					<frame-note>
						<string>5</string>
						<fret>0</fret>
					</frame-note>
					<frame-note>
						<string>4</string>
						<fret>1</fret>
					</frame-note>
					<frame-note>
						<string>3</string>
						<fret>3</fret>
					</frame-note>
					<frame-note>
						<string>2</string>
						<fret>4</fret>
					</frame-note>
					<frame-note>
						<string>1</string>
						<fret>3</fret>
					</frame-note>
				</frame>
				<offset>0</offset>
				<staff>1</staff>
			</harmony>
			<note>
				<rest/>
				<duration>40</duration>
				<voice>1</voice>
				<type>half</type>
			</note>
			<harmony default-y="49.2880">
				<root>
					<root-step>E</root-step>
					<root-alter>-1</root-alter>
				</root>
				<kind>major</kind>
				<frame default-y="41.0057" valign="top">
					<frame-strings>6</frame-strings>
					<frame-frets>5</frame-frets>
					<frame-note>
						<string>6</string>
						<fret>0</fret>
					</frame-note>
					<frame-note>
						<string>5</string>
						<fret>0</fret>
					</frame-note>
					<frame-note>
						<string>4</string>
						<fret>1</fret>
					</frame-note>
					<frame-note>
						<string>3</string>
						<fret>3</fret>
					</frame-note>
					<frame-note>
						<string>2</string>
						<fret>4</fret>
					</frame-note>
					<frame-note>
						<string>1</string>
						<fret>3</fret>
					</frame-note>
				</frame>
				<offset>3</offset>
				<staff>1</staff>
			</harmony>
			<note>
				<rest/>
				<duration>10</duration>
				<voice>1</voice>
				<type>eighth</type>
			</note>
			<note>
				<pitch>
					<step>G</step>
					<octave>4</octave>
				</pitch>
				<duration>10</duration>
				<voice>1</voice>
				<type>eighth</type>
				<stem>up</stem>
			</note>
			<note>
				<pitch>
					<step>B</step>
					<alter>-1</alter>
					<octave>4</octave>
				</pitch>
				<duration>10</duration>
				<voice>1</voice>
				<type>eighth</type>
				<stem>down</stem>
				<beam number="1">begin</beam>
			</note>
			<note>
				<pitch>
					<step>D</step>
					<octave>5</octave>
				</pitch>
				<duration>10</duration>
				<tie type="start"/>
				<voice>1</voice>
				<type>eighth</type>
				<stem>down</stem>
				<beam number="1">end</beam>
				<notations>
					<tied type="start" number="1" orientation="over"/>
				</notations>
			</note>
		</measure><!--
===========================================================
-->

		<measure number="19" width="245">
			<print new-system="no"></print>
			<attributes></attributes>
			<harmony default-y="49.2880">
				<root>
					<root-step>B</root-step>
					<root-alter>-1</root-alter>
				</root>
				<kind>major</kind>
				<frame default-y="41.0057" valign="top">
					<frame-strings>6</frame-strings>
					<frame-frets>5</frame-frets>
					<frame-note>
						<string>6</string>
						<fret>0</fret>
					</frame-note>
					<frame-note>
						<string>5</string>
						<fret>1</fret>
					</frame-note>
					<frame-note>
						<string>4</string>
						<fret>3</fret>
					</frame-note>
					<frame-note>
						<string>3</string>
						<fret>3</fret>
					</frame-note>
					<frame-note>
						<string>2</string>
						<fret>3</fret>
					</frame-note>
					<frame-note>
						<string>1</string>
						<fret>1</fret>
					</frame-note>
				</frame>
				<offset>6</offset>
				<staff>1</staff>
			</harmony>
			<note>
				<pitch>
					<step>D</step>
					<octave>5</octave>
				</pitch>
				<duration>30</duration>
				<tie type="stop"/>
				<voice>1</voice>
				<type>quarter</type>
				<dot/>
				<stem>down</stem>
				<notations>
					<tied type="stop" number="1" orientation="over"/>
				</notations>
			</note>
			<note>
				<pitch>
					<step>B</step>
					<alter>-1</alter>
					<octave>4</octave>
				</pitch>
				<duration>10</duration>
				<tie type="start"/>
				<voice>1</voice>
				<type>eighth</type>
				<stem>up</stem>
				<notations>
					<tied type="start" number="1" orientation="under"/>
				</notations>
			</note>
			<note>
				<pitch>
					<step>B</step>
					<alter>-1</alter>
					<octave>4</octave>
				</pitch>
				<duration>10</duration>
				<tie type="stop"/>
				<voice>1</voice>
				<type>eighth</type>
				<stem>up</stem>
				<notations>
					<tied type="stop" number="1" orientation="under"/>
				</notations>
			</note>
			<harmony default-y="49.2880">
				<root>
					<root-step>B</root-step>
					<root-alter>-1</root-alter>
				</root>
				<kind>major</kind>
				<frame default-y="41.0057" valign="top">
					<frame-strings>6</frame-strings>
					<frame-frets>5</frame-frets>
					<frame-note>
						<string>6</string>
						<fret>0</fret>
					</frame-note>
					<frame-note>
						<string>5</string>
						<fret>1</fret>
					</frame-note>
					<frame-note>
						<string>4</string>
						<fret>3</fret>
					</frame-note>
					<frame-note>
						<string>3</string>
						<fret>3</fret>
					</frame-note>
					<frame-note>
						<string>2</string>
						<fret>3</fret>
					</frame-note>
					<frame-note>
						<string>1</string>
						<fret>1</fret>
					</frame-note>
				</frame>
				<offset>0</offset>
				<staff>1</staff>
			</harmony>
			<note>
				<pitch>
					<step>C</step>
					<octave>5</octave>
				</pitch>
				<duration>20</duration>
				<voice>1</voice>
				<type>quarter</type>
				<stem>down</stem>
			</note>
			<note>
				<pitch>
					<step>B</step>
					<alter>-1</alter>
					<octave>4</octave>
				</pitch>
				<duration>10</duration>
				<voice>1</voice>
				<type>eighth</type>
				<stem>up</stem>
			</note>
		</measure><!--
===========================================================
-->

		<measure number="20" width="285">
			<print new-system="no"></print>
			<attributes></attributes>
			<harmony default-y="49.2880">
				<root>
					<root-step>B</root-step>
					<root-alter>-1</root-alter>
				</root>
				<kind>major</kind>
				<frame default-y="41.0057" valign="top">
					<frame-strings>6</frame-strings>
					<frame-frets>5</frame-frets>
					<frame-note>
						<string>6</string>
						<fret>0</fret>
					</frame-note>
					<frame-note>
						<string>5</string>
						<fret>1</fret>
					</frame-note>
					<frame-note>
						<string>4</string>
						<fret>3</fret>
					</frame-note>
					<frame-note>
						<string>3</string>
						<fret>3</fret>
					</frame-note>
					<frame-note>
						<string>2</string>
						<fret>3</fret>
					</frame-note>
					<frame-note>
						<string>1</string>
						<fret>1</fret>
					</frame-note>
				</frame>
				<offset>4</offset>
				<staff>1</staff>
			</harmony>
			<note>
				<pitch>
					<step>B</step>
					<alter>-1</alter>
					<octave>4</octave>
				</pitch>
				<duration>20</duration>
				<voice>1</voice>
				<type>quarter</type>
				<stem>up</stem>
			</note>
			<note>
				<pitch>
					<step>D</step>
					<octave>5</octave>
				</pitch>
				<duration>10</duration>
				<voice>1</voice>
				<type>eighth</type>
				<stem>down</stem>
				<beam number="1">begin</beam>
			</note>
			<note>
				<pitch>
					<step>C</step>
					<octave>5</octave>
				</pitch>
				<duration>10</duration>
				<tie type="start"/>
				<voice>1</voice>
				<type>eighth</type>
				<stem>down</stem>
				<beam number="1">end</beam>
				<notations>
					<tied type="start" number="1" orientation="over"/>
				</notations>
			</note>
			<harmony default-y="49.2880">
				<root>
					<root-step>B</root-step>
					<root-alter>-1</root-alter>
				</root>
				<kind>major</kind>
				<frame default-y="41.0057" valign="top">
					<frame-strings>6</frame-strings>
					<frame-frets>5</frame-frets>
					<frame-note>
						<string>6</string>
						<fret>0</fret>
					</frame-note>
					<frame-note>
						<string>5</string>
						<fret>1</fret>
					</frame-note>
					<frame-note>
						<string>4</string>
						<fret>3</fret>
					</frame-note>
					<frame-note>
						<string>3</string>
						<fret>3</fret>
					</frame-note>
					<frame-note>
						<string>2</string>
						<fret>3</fret>
					</frame-note>
					<frame-note>
						<string>1</string>
						<fret>1</fret>
					</frame-note>
				</frame>
				<offset>2</offset>
				<staff>1</staff>
			</harmony>
			<note>
				<pitch>
					<step>C</step>
					<octave>5</octave>
				</pitch>
				<duration>10</duration>
				<tie type="stop"/>
				<voice>1</voice>
				<type>eighth</type>
				<stem>down</stem>
				<beam number="1">begin</beam>
				<notations>
					<tied type="stop" number="1" orientation="over"/>
				</notations>
			</note>
			<note>
				<pitch>
					<step>B</step>
					<alter>-1</alter>
					<octave>4</octave>
				</pitch>
				<duration>10</duration>
				<voice>1</voice>
				<type>eighth</type>
				<stem>down</stem>
				<beam number="1">continue</beam>
			</note>
			<note>
				<pitch>
					<step>C</step>
					<octave>5</octave>
				</pitch>
				<duration>10</duration>
				<voice>1</voice>
				<type>eighth</type>
				<stem>down</stem>
				<beam number="1">continue</beam>
			</note>
			<note>
				<pitch>
					<step>B</step>
					<alter>-1</alter>
					<octave>4</octave>
				</pitch>
				<duration>10</duration>
				<tie type="start"/>
				<voice>1</voice>
				<type>eighth</type>
				<stem>down</stem>
				<beam number="1">end</beam>
				<notations>
					<tied type="start" number="1" orientation="under"/>
				</notations>
			</note>
		</measure><!--
===========================================================
-->

		<measure number="21" width="240">
			<print new-system="no"></print>
			<attributes></attributes>
			<harmony default-y="58.4960">
				<root>
					<root-step>G</root-step>
				</root>
				<kind>minor</kind>
				<frame default-y="50.2137" valign="top">
					<frame-strings>6</frame-strings>
					<frame-frets>6</frame-frets>
					<frame-note>
						<string>6</string>
						<fret>0</fret>
					</frame-note>
					<frame-note>
						<string>5</string>
						<fret>0</fret>
					</frame-note>
					<frame-note>
						<string>4</string>
						<fret>5</fret>
					</frame-note>
					<frame-note>
						<string>3</string>
						<fret>3</fret>
					</frame-note>
					<frame-note>
						<string>2</string>
						<fret>3</fret>
					</frame-note>
					<frame-note>
						<string>1</string>
						<fret>3</fret>
					</frame-note>
				</frame>
				<offset>4</offset>
				<staff>1</staff>
			</harmony>
			<note>
				<pitch>
					<step>B</step>
					<alter>-1</alter>
					<octave>4</octave>
				</pitch>
				<duration>10</duration>
				<tie type="stop"/>
				<voice>1</voice>
				<type>eighth</type>
				<stem>up</stem>
				<beam number="1">begin</beam>
				<notations>
					<tied type="stop" number="1" orientation="under"/>
				</notations>
			</note>
			<note>
				<pitch>
					<step>G</step>
					<octave>4</octave>
				</pitch>
				<duration>10</duration>
				<tie type="start"/>
				<voice>1</voice>
				<type>eighth</type>
				<stem>up</stem>
				<beam number="1">end</beam>
				<notations>
					<tied type="start" number="1" orientation="under"/>
				</notations>
			</note>
			<note>
				<pitch>
					<step>G</step>
					<octave>4</octave>
				</pitch>
				<duration>40</duration>
				<tie type="stop"/>
				<voice>1</voice>
				<type>half</type>
				<stem>up</stem>
				<notations>
					<tied type="stop" number="1" orientation="under"/>
				</notations>
			</note>
			<harmony default-y="58.4960">
				<root>
					<root-step>G</root-step>
				</root>
				<kind>minor</kind>
				<frame default-y="50.2137" valign="top">
					<frame-strings>6</frame-strings>
					<frame-frets>6</frame-frets>
					<frame-note>
						<string>6</string>
						<fret>0</fret>
					</frame-note>
					<frame-note>
						<string>5</string>
						<fret>0</fret>
					</frame-note>
					<frame-note>
						<string>4</string>
						<fret>5</fret>
					</frame-note>
					<frame-note>
						<string>3</string>
						<fret>3</fret>
					</frame-note>
					<frame-note>
						<string>2</string>
						<fret>3</fret>
					</frame-note>
					<frame-note>
						<string>1</string>
						<fret>3</fret>
					</frame-note>
				</frame>
				<offset>-5</offset>
				<staff>1</staff>
			</harmony>
			<note>
				<rest/>
				<duration>10</duration>
				<voice>1</voice>
				<type>eighth</type>
			</note>
			<note>
				<pitch>
					<step>G</step>
					<octave>4</octave>
				</pitch>
				<duration>10</duration>
				<voice>1</voice>
				<type>eighth</type>
				<stem>up</stem>
			</note>
		</measure><!--
===========================================================
-->

		<measure number="22" width="287">
			<print new-system="no"></print>
			<attributes></attributes>
			<harmony default-y="58.4960">
				<root>
					<root-step>G</root-step>
				</root>
				<kind>minor</kind>
				<frame default-y="50.2137" valign="top">
					<frame-strings>6</frame-strings>
					<frame-frets>6</frame-frets>
					<frame-note>
						<string>6</string>
						<fret>0</fret>
					</frame-note>
					<frame-note>
						<string>5</string>
						<fret>0</fret>
					</frame-note>
					<frame-note>
						<string>4</string>
						<fret>5</fret>
					</frame-note>
					<frame-note>
						<string>3</string>
						<fret>3</fret>
					</frame-note>
					<frame-note>
						<string>2</string>
						<fret>3</fret>
					</frame-note>
					<frame-note>
						<string>1</string>
						<fret>3</fret>
					</frame-note>
				</frame>
				<offset>5</offset>
				<staff>1</staff>
			</harmony>
			<note>
				<pitch>
					<step>D</step>
					<octave>5</octave>
				</pitch>
				<duration>10</duration>
				<voice>1</voice>
				<type>eighth</type>
				<stem>down</stem>
			</note>
			<note>
				<pitch>
					<step>D</step>
					<octave>5</octave>
				</pitch>
				<duration>20</duration>
				<voice>1</voice>
				<type>quarter</type>
				<stem>down</stem>
			</note>
			<note>
				<pitch>
					<step>C</step>
					<octave>5</octave>
				</pitch>
				<duration>10</duration>
				<voice>1</voice>
				<type>eighth</type>
				<stem>down</stem>
			</note>
			<harmony default-y="58.4960">
				<root>
					<root-step>G</root-step>
				</root>
				<kind>minor</kind>
				<frame default-y="50.2137" valign="top">
					<frame-strings>6</frame-strings>
					<frame-frets>6</frame-frets>
					<frame-note>
						<string>6</string>
						<fret>0</fret>
					</frame-note>
					<frame-note>
						<string>5</string>
						<fret>0</fret>
					</frame-note>
					<frame-note>
						<string>4</string>
						<fret>5</fret>
					</frame-note>
					<frame-note>
						<string>3</string>
						<fret>3</fret>
					</frame-note>
					<frame-note>
						<string>2</string>
						<fret>3</fret>
					</frame-note>
					<frame-note>
						<string>1</string>
						<fret>3</fret>
					</frame-note>
				</frame>
				<offset>3</offset>
				<staff>1</staff>
			</harmony>
			<note>
				<pitch>
					<step>C</step>
					<octave>5</octave>
				</pitch>
				<duration>10</duration>
				<voice>1</voice>
				<type>eighth</type>
				<stem>down</stem>
				<beam number="1">begin</beam>
			</note>
			<note>
				<pitch>
					<step>B</step>
					<alter>-1</alter>
					<octave>4</octave>
				</pitch>
				<duration>10</duration>
				<voice>1</voice>
				<type>eighth</type>
				<stem>down</stem>
				<beam number="1">continue</beam>
				<notations>
					<articulations>
						<tenuto placement="above"/>
					</articulations>
				</notations>
			</note>
			<note>
				<pitch>
					<step>C</step>
					<octave>5</octave>
				</pitch>
				<duration>10</duration>
				<voice>1</voice>
				<type>eighth</type>
				<stem>down</stem>
				<beam number="1">continue</beam>
			</note>
			<note>
				<pitch>
					<step>B</step>
					<alter>-1</alter>
					<octave>4</octave>
				</pitch>
				<duration>10</duration>
				<tie type="start"/>
				<voice>1</voice>
				<type>eighth</type>
				<stem>down</stem>
				<beam number="1">end</beam>
				<notations>
					<tied type="start" number="1" orientation="under"/>
				</notations>
			</note>
		</measure><!--
===========================================================
-->

		<measure number="23" width="186">
			<print new-system="yes">
				<system-layout>
					<system-margins>
						<left-margin>0</left-margin>
						<right-margin>227</right-margin>
					</system-margins>
					<system-distance>207</system-distance>
				</system-layout>
			</print>
			<attributes></attributes>
			<harmony default-y="49.2880">
				<root>
					<root-step>E</root-step>
					<root-alter>-1</root-alter>
				</root>
				<kind>major</kind>
				<frame default-y="41.0057" valign="top">
					<frame-strings>6</frame-strings>
					<frame-frets>5</frame-frets>
					<frame-note>
						<string>6</string>
						<fret>0</fret>
					</frame-note>
					<frame-note>
						<string>5</string>
						<fret>0</fret>
					</frame-note>
					<frame-note>
						<string>4</string>
						<fret>1</fret>
					</frame-note>
					<frame-note>
						<string>3</string>
						<fret>3</fret>
					</frame-note>
					<frame-note>
						<string>2</string>
						<fret>4</fret>
					</frame-note>
					<frame-note>
						<string>1</string>
						<fret>3</fret>
					</frame-note>
				</frame>
				<offset>4</offset>
				<staff>1</staff>
			</harmony>
			<note>
				<pitch>
					<step>B</step>
					<alter>-1</alter>
					<octave>4</octave>
				</pitch>
				<duration>20</duration>
				<tie type="stop"/>
				<voice>1</voice>
				<type>quarter</type>
				<stem>up</stem>
				<notations>
					<tied type="stop" number="1" orientation="under"/>
				</notations>
			</note>
			<harmony default-y="49.2880">
				<root>
					<root-step>E</root-step>
					<root-alter>-1</root-alter>
				</root>
				<kind>major</kind>
				<frame default-y="41.0057" valign="top">
					<frame-strings>6</frame-strings>
					<frame-frets>5</frame-frets>
					<frame-note>
						<string>6</string>
						<fret>0</fret>
					</frame-note>
					<frame-note>
						<string>5</string>
						<fret>0</fret>
					</frame-note>
					<frame-note>
						<string>4</string>
						<fret>1</fret>
					</frame-note>
					<frame-note>
						<string>3</string>
						<fret>3</fret>
					</frame-note>
					<frame-note>
						<string>2</string>
						<fret>4</fret>
					</frame-note>
					<frame-note>
						<string>1</string>
						<fret>3</fret>
					</frame-note>
				</frame>
				<offset>11</offset>
				<staff>1</staff>
			</harmony>
			<note>
				<pitch>
					<step>G</step>
					<octave>4</octave>
				</pitch>
				<duration>60</duration>
				<voice>1</voice>
				<type>half</type>
				<dot/>
				<stem>up</stem>
			</note>
		</measure><!--
===========================================================
-->

		<measure number="24" width="203">
			<print new-system="no"></print>
			<attributes></attributes>
			<harmony default-y="49.2880">
				<root>
					<root-step>E</root-step>
					<root-alter>-1</root-alter>
				</root>
				<kind>minor</kind>
				<frame default-y="41.0057" valign="top">
					<frame-strings>6</frame-strings>
					<frame-frets>5</frame-frets>
					<frame-note>
						<string>6</string>
						<fret>0</fret>
					</frame-note>
					<frame-note>
						<string>5</string>
						<fret>0</fret>
					</frame-note>
					<frame-note>
						<string>4</string>
						<fret>4</fret>
					</frame-note>
					<frame-note>
						<string>3</string>
						<fret>3</fret>
					</frame-note>
					<frame-note>
						<string>2</string>
						<fret>4</fret>
					</frame-note>
					<frame-note>
						<string>1</string>
						<fret>2</fret>
					</frame-note>
				</frame>
				<offset>2</offset>
				<staff>1</staff>
			</harmony>
			<note>
				<pitch>
					<step>B</step>
					<alter>-1</alter>
					<octave>5</octave>
				</pitch>
				<duration>20</duration>
				<voice>1</voice>
				<type>quarter</type>
				<stem>down</stem>
			</note>
			<note>
				<pitch>
					<step>G</step>
					<alter>-1</alter>
					<octave>5</octave>
				</pitch>
				<duration>20</duration>
				<voice>1</voice>
				<type>quarter</type>
				<accidental parentheses="no">flat</accidental>
				<stem>down</stem>
			</note>
			<harmony default-y="49.2880">
				<root>
					<root-step>E</root-step>
					<root-alter>-1</root-alter>
				</root>
				<kind>minor</kind>
				<frame default-y="41.0057" valign="top">
					<frame-strings>6</frame-strings>
					<frame-frets>5</frame-frets>
					<frame-note>
						<string>6</string>
						<fret>0</fret>
					</frame-note>
					<frame-note>
						<string>5</string>
						<fret>0</fret>
					</frame-note>
					<frame-note>
						<string>4</string>
						<fret>4</fret>
					</frame-note>
					<frame-note>
						<string>3</string>
						<fret>3</fret>
					</frame-note>
					<frame-note>
						<string>2</string>
						<fret>4</fret>
					</frame-note>
					<frame-note>
						<string>1</string>
						<fret>2</fret>
					</frame-note>
				</frame>
				<offset>2</offset>
				<staff>1</staff>
			</harmony>
			<note>
				<pitch>
					<step>E</step>
					<alter>-1</alter>
					<octave>5</octave>
				</pitch>
				<duration>20</duration>
				<voice>1</voice>
				<type>quarter</type>
				<stem>down</stem>
			</note>
			<note>
				<pitch>
					<step>B</step>
					<alter>-1</alter>
					<octave>4</octave>
				</pitch>
				<duration>20</duration>
				<voice>1</voice>
				<type>quarter</type>
				<stem>up</stem>
			</note>
		</measure><!--
===========================================================
-->

		<measure number="25" width="118">
			<print new-system="no"></print>
			<attributes></attributes>
			<harmony default-y="49.2880">
				<root>
					<root-step>B</root-step>
					<root-alter>-1</root-alter>
				</root>
				<kind>major</kind>
				<frame default-y="41.0057" valign="top">
					<frame-strings>6</frame-strings>
					<frame-frets>5</frame-frets>
					<frame-note>
						<string>6</string>
						<fret>0</fret>
					</frame-note>
					<frame-note>
						<string>5</string>
						<fret>1</fret>
					</frame-note>
					<frame-note>
						<string>4</string>
						<fret>3</fret>
					</frame-note>
					<frame-note>
						<string>3</string>
						<fret>3</fret>
					</frame-note>
					<frame-note>
						<string>2</string>
						<fret>3</fret>
					</frame-note>
					<frame-note>
						<string>1</string>
						<fret>1</fret>
					</frame-note>
				</frame>
				<offset>4</offset>
				<staff>1</staff>
			</harmony>
			<harmony default-y="49.2880">
				<root>
					<root-step>B</root-step>
					<root-alter>-1</root-alter>
				</root>
				<kind>major</kind>
				<frame default-y="41.0057" valign="top">
					<frame-strings>6</frame-strings>
					<frame-frets>5</frame-frets>
					<frame-note>
						<string>6</string>
						<fret>0</fret>
					</frame-note>
					<frame-note>
						<string>5</string>
						<fret>1</fret>
					</frame-note>
					<frame-note>
						<string>4</string>
						<fret>3</fret>
					</frame-note>
					<frame-note>
						<string>3</string>
						<fret>3</fret>
					</frame-note>
					<frame-note>
						<string>2</string>
						<fret>3</fret>
					</frame-note>
					<frame-note>
						<string>1</string>
						<fret>1</fret>
					</frame-note>
				</frame>
				<offset>46</offset>
				<staff>1</staff>
			</harmony>
			<note>
				<pitch>
					<step>D</step>
					<octave>5</octave>
				</pitch>
				<duration>80</duration>
				<voice>1</voice>
				<type>whole</type>
				<stem>none</stem>
			</note>
		</measure><!--
===========================================================
-->

		<measure number="26" width="265">
			<print new-system="no"></print>
			<attributes></attributes>
			<harmony default-y="49.2880">
				<root>
					<root-step>G</root-step>
				</root>
				<kind>dominant</kind>
				<frame default-y="41.0057" valign="top">
					<frame-strings>6</frame-strings>
					<frame-frets>5</frame-frets>
					<frame-note>
						<string>6</string>
						<fret>3</fret>
					</frame-note>
					<frame-note>
						<string>5</string>
						<fret>2</fret>
					</frame-note>
					<frame-note>
						<string>4</string>
						<fret>0</fret>
					</frame-note>
					<frame-note>
						<string>3</string>
						<fret>0</fret>
					</frame-note>
					<frame-note>
						<string>2</string>
						<fret>0</fret>
					</frame-note>
					<frame-note>
						<string>1</string>
						<fret>1</fret>
					</frame-note>
				</frame>
				<offset>2</offset>
				<staff>1</staff>
			</harmony>
			<note>
				<rest/>
				<duration>10</duration>
				<voice>1</voice>
				<type>eighth</type>
			</note>
			<note>
				<pitch>
					<step>D</step>
					<octave>5</octave>
				</pitch>
				<duration>10</duration>
				<voice>1</voice>
				<type>eighth</type>
				<stem>down</stem>
			</note>
			<note>
				<pitch>
					<step>D</step>
					<octave>5</octave>
				</pitch>
				<duration>10</duration>
				<voice>1</voice>
				<type>eighth</type>
				<stem>down</stem>
				<beam number="1">begin</beam>
			</note>
			<note>
				<pitch>
					<step>D</step>
					<octave>5</octave>
				</pitch>
				<duration>10</duration>
				<voice>1</voice>
				<type>eighth</type>
				<stem>down</stem>
				<beam number="1">end</beam>
			</note>
			<harmony default-y="49.2880">
				<root>
					<root-step>G</root-step>
				</root>
				<kind>dominant</kind>
				<frame default-y="41.0057" valign="top">
					<frame-strings>6</frame-strings>
					<frame-frets>5</frame-frets>
					<frame-note>
						<string>6</string>
						<fret>3</fret>
					</frame-note>
					<frame-note>
						<string>5</string>
						<fret>2</fret>
					</frame-note>
					<frame-note>
						<string>4</string>
						<fret>0</fret>
					</frame-note>
					<frame-note>
						<string>3</string>
						<fret>0</fret>
					</frame-note>
					<frame-note>
						<string>2</string>
						<fret>0</fret>
					</frame-note>
					<frame-note>
						<string>1</string>
						<fret>1</fret>
					</frame-note>
				</frame>
				<offset>2</offset>
				<staff>1</staff>
			</harmony>
			<note>
				<pitch>
					<step>D</step>
					<octave>5</octave>
				</pitch>
				<duration>10</duration>
				<voice>1</voice>
				<type>eighth</type>
				<stem>down</stem>
				<beam number="1">begin</beam>
			</note>
			<note>
				<pitch>
					<step>E</step>
					<alter>-1</alter>
					<octave>5</octave>
				</pitch>
				<duration>10</duration>
				<voice>1</voice>
				<type>eighth</type>
				<stem>down</stem>
				<beam number="1">continue</beam>
			</note>
			<note>
				<pitch>
					<step>F</step>
					<octave>5</octave>
				</pitch>
				<duration>10</duration>
				<voice>1</voice>
				<type>eighth</type>
				<stem>down</stem>
				<beam number="1">continue</beam>
			</note>
			<note>
				<pitch>
					<step>C</step>
					<octave>5</octave>
				</pitch>
				<duration>10</duration>
				<voice>1</voice>
				<type>eighth</type>
				<stem>down</stem>
				<beam number="1">end</beam>
			</note>
		</measure><!--
===========================================================
-->

		<measure number="27" width="214">
			<print new-system="no"></print>
			<attributes></attributes>
			<harmony default-y="58.4960">
				<root>
					<root-step>C</root-step>
				</root>
				<kind>minor-seventh</kind>
				<frame default-y="50.2137" valign="top">
					<frame-strings>6</frame-strings>
					<frame-frets>6</frame-frets>
					<frame-note>
						<string>6</string>
						<fret>0</fret>
					</frame-note>
					<frame-note>
						<string>5</string>
						<fret>3</fret>
					</frame-note>
					<frame-note>
						<string>4</string>
						<fret>5</fret>
					</frame-note>
					<frame-note>
						<string>3</string>
						<fret>3</fret>
					</frame-note>
					<frame-note>
						<string>2</string>
						<fret>4</fret>
					</frame-note>
					<frame-note>
						<string>1</string>
						<fret>3</fret>
					</frame-note>
				</frame>
				<offset>4</offset>
				<staff>1</staff>
			</harmony>
			<note>
				<pitch>
					<step>C</step>
					<octave>5</octave>
				</pitch>
				<duration>30</duration>
				<voice>1</voice>
				<type>quarter</type>
				<dot/>
				<stem>down</stem>
			</note>
			<note>
				<pitch>
					<step>B</step>
					<alter>-1</alter>
					<octave>4</octave>
				</pitch>
				<duration>10</duration>
				<voice>1</voice>
				<type>eighth</type>
				<stem>up</stem>
			</note>
			<harmony default-y="58.4960">
				<root>
					<root-step>C</root-step>
				</root>
				<kind>minor-seventh</kind>
				<frame default-y="50.2137" valign="top">
					<frame-strings>6</frame-strings>
					<frame-frets>6</frame-frets>
					<frame-note>
						<string>6</string>
						<fret>0</fret>
					</frame-note>
					<frame-note>
						<string>5</string>
						<fret>3</fret>
					</frame-note>
					<frame-note>
						<string>4</string>
						<fret>5</fret>
					</frame-note>
					<frame-note>
						<string>3</string>
						<fret>3</fret>
					</frame-note>
					<frame-note>
						<string>2</string>
						<fret>4</fret>
					</frame-note>
					<frame-note>
						<string>1</string>
						<fret>3</fret>
					</frame-note>
				</frame>
				<offset>1</offset>
				<staff>1</staff>
			</harmony>
			<note>
				<pitch>
					<step>B</step>
					<alter>-1</alter>
					<octave>4</octave>
				</pitch>
				<duration>10</duration>
				<voice>1</voice>
				<type>eighth</type>
				<stem>down</stem>
				<beam number="1">begin</beam>
			</note>
			<note>
				<pitch>
					<step>C</step>
					<octave>5</octave>
				</pitch>
				<duration>10</duration>
				<voice>1</voice>
				<type>eighth</type>
				<stem>down</stem>
				<beam number="1">end</beam>
			</note>
			<note>
				<pitch>
					<step>B</step>
					<alter>-1</alter>
					<octave>4</octave>
				</pitch>
				<duration>20</duration>
				<voice>1</voice>
				<type>quarter</type>
				<stem>up</stem>
			</note>
		</measure><!--
===========================================================
-->

		<measure number="28" width="121">
			<print new-system="no"></print>
			<attributes></attributes>
			<harmony default-y="58.4960">
				<root>
					<root-step>C</root-step>
				</root>
				<kind>minor-seventh</kind>
				<frame default-y="50.2137" valign="top">
					<frame-strings>6</frame-strings>
					<frame-frets>6</frame-frets>
					<frame-note>
						<string>6</string>
						<fret>0</fret>
					</frame-note>
					<frame-note>
						<string>5</string>
						<fret>3</fret>
					</frame-note>
					<frame-note>
						<string>4</string>
						<fret>5</fret>
					</frame-note>
					<frame-note>
						<string>3</string>
						<fret>3</fret>
					</frame-note>
					<frame-note>
						<string>2</string>
						<fret>4</fret>
					</frame-note>
					<frame-note>
						<string>1</string>
						<fret>3</fret>
					</frame-note>
				</frame>
				<offset>4</offset>
				<staff>1</staff>
			</harmony>
			<harmony default-y="58.4960">
				<root>
					<root-step>C</root-step>
				</root>
				<kind>minor-seventh</kind>
				<frame default-y="50.2137" valign="top">
					<frame-strings>6</frame-strings>
					<frame-frets>6</frame-frets>
					<frame-note>
						<string>6</string>
						<fret>0</fret>
					</frame-note>
					<frame-note>
						<string>5</string>
						<fret>3</fret>
					</frame-note>
					<frame-note>
						<string>4</string>
						<fret>5</fret>
					</frame-note>
					<frame-note>
						<string>3</string>
						<fret>3</fret>
					</frame-note>
					<frame-note>
						<string>2</string>
						<fret>4</fret>
					</frame-note>
					<frame-note>
						<string>1</string>
						<fret>3</fret>
					</frame-note>
				</frame>
				<offset>41</offset>
				<staff>1</staff>
			</harmony>
			<note>
				<pitch>
					<step>A</step>
					<octave>4</octave>
				</pitch>
				<duration>80</duration>
				<voice>1</voice>
				<type>whole</type>
				<stem>none</stem>
			</note>
			<barline location="right">
				<bar-style>light-light</bar-style>
			</barline>
		</measure>
	</part>
</score-partwise>