<?xml version="1.0" encoding="UTF-8" standalone="no"?>
<!DOCTYPE score-partwise PUBLIC "-//Recordare//DTD MusicXML 1.1 Partwise//EN" "http://www.musicxml.org/dtds/partwise.dtd">

<score-partwise version="2.0">
	<movement-title></movement-title>
	<identification>
		<creator type="composer"></creator>
		<encoding>
			<software>SmartScore X2 Songbook Edition</software>
			<encoding-date>2017-12-22</encoding-date>
			<supports attribute="new-system" element="print" type="yes" value="yes"/>
			<supports attribute="new-page" element="print" type="yes" value="yes"/>
		</encoding>
	</identification>
	<defaults>
		<scaling>
			<millimeters>6.00</millimeters>
			<tenths>40</tenths>
		</scaling>
		<page-layout>
			<page-height>1862.67</page-height>
			<page-width>1439.33</page-width>
			<page-margins type="both">
				<left-margin>160.52</left-margin>
				<right-margin>160.52</right-margin>
				<top-margin>633.78</top-margin>
				<bottom-margin>633.78</bottom-margin>
			</page-margins>
		</page-layout>
	</defaults>
	<part-list>
		<score-part id="P1">
			<part-name>Nylon Guitar</part-name>
			<part-abbreviation>GuitNyl</part-abbreviation>
			<score-instrument id="P1-S0V0">
				<instrument-name>Nylon String Guit.</instrument-name>
			</score-instrument>
			<midi-instrument id="P1-S0V0">
				<midi-channel>1</midi-channel>
				<midi-program>25</midi-program>
				<volume>78</volume>
				<pan>0</pan>
			</midi-instrument>
		</score-part>
	</part-list><!--
===========================================================
-->

	<part id="P1">
		<measure number="1" width="79">
			<print>
				<page-layout>
					<page-height>1862.67</page-height>
					<page-width>1439.33</page-width>
					<page-margins>
						<left-margin>160.52</left-margin>
						<right-margin>160.52</right-margin>
						<top-margin>633.78</top-margin>
						<bottom-margin>316.89</bottom-margin>
					</page-margins>
				</page-layout>
				<system-layout>
					<system-margins>
						<left-margin>55</left-margin>
						<right-margin>0</right-margin>
					</system-margins>
					<top-system-distance>0</top-system-distance>
				</system-layout>
			</print>
			<attributes>
				<divisions>20</divisions>
				<key>
					<fifths>1</fifths>
				</key>
				<time>
					<beats>4</beats>
					<beat-type>4</beat-type>
				</time>
				<clef>
					<sign>G</sign>
					<line>2</line>
				</clef>
				<staff-details number="1" print-object="yes">
					<staff-size>117</staff-size>
				</staff-details>
				<transpose>
					<diatonic>0</diatonic>
					<chromatic>0</chromatic>
					<octave-change>-1</octave-change>
				</transpose>
			</attributes>
			<attributes></attributes>
			<forward>
				<duration>80</duration>
			</forward>
		</measure><!--
===========================================================
-->

		<measure number="2" width="257">
			<print new-system="no"></print>
			<attributes></attributes>
			<harmony default-y="98.9478">
				<root>
					<root-step>G</root-step>
				</root>
				<kind>major-seventh</kind>
				<frame default-y="87.2530" valign="top">
					<frame-strings>6</frame-strings>
					<frame-frets>5</frame-frets>
					<frame-note>
						<string>6</string>
						<fret>3</fret>
					</frame-note>
					<frame-note>
						<string>5</string>
						<fret>0</fret>
					</frame-note>
					<frame-note>
						<string>4</string>
						<fret>0</fret>
					</frame-note>
					<frame-note>
						<string>3</string>
						<fret>0</fret>
					</frame-note>
					<frame-note>
						<string>2</string>
						<fret>0</fret>
					</frame-note>
					<frame-note>
						<string>1</string>
						<fret>2</fret>
					</frame-note>
				</frame>
				<offset>0</offset>
				<staff>1</staff>
			</harmony>
			<note>
				<pitch>
					<step>G</step>
					<octave>5</octave>
				</pitch>
				<duration>20</duration>
				<voice>1</voice>
				<type>quarter</type>
				<stem>down</stem>
			</note>
			<note>
				<rest/>
				<duration>20</duration>
				<voice>1</voice>
				<type>quarter</type>
			</note>
			<harmony default-y="98.9478">
				<root>
					<root-step>E</root-step>
				</root>
				<kind>minor-seventh</kind>
				<frame default-y="87.2530" valign="top">
					<frame-strings>6</frame-strings>
					<frame-frets>5</frame-frets>
					<frame-note>
						<string>6</string>
						<fret>0</fret>
					</frame-note>
					<frame-note>
						<string>5</string>
						<fret>2</fret>
					</frame-note>
					<frame-note>
						<string>4</string>
						<fret>2</fret>
					</frame-note>
					<frame-note>
						<string>3</string>
						<fret>0</fret>
					</frame-note>
					<frame-note>
						<string>2</string>
						<fret>3</fret>
					</frame-note>
					<frame-note>
						<string>1</string>
						<fret>0</fret>
					</frame-note>
				</frame>
				<offset>1</offset>
				<staff>1</staff>
			</harmony>
			<note>
				<rest/>
				<duration>40</duration>
				<voice>1</voice>
				<type>half</type>
			</note>
		</measure><!--
===========================================================
-->

		<measure number="3" width="268">
			<print new-system="no"></print>
			<attributes></attributes>
			<harmony default-y="98.9478">
				<root>
					<root-step>D</root-step>
					<root-alter>1</root-alter>
				</root>
				<kind>major-seventh</kind>
				<frame default-y="87.2530" valign="top">
					<frame-strings>6</frame-strings>
					<frame-frets>5</frame-frets>
					<frame-note>
						<string>6</string>
						<fret>0</fret>
					</frame-note>
					<frame-note>
						<string>5</string>
						<fret>0</fret>
					</frame-note>
					<frame-note>
						<string>4</string>
						<fret>1</fret>
					</frame-note>
					<frame-note>
						<string>3</string>
						<fret>3</fret>
					</frame-note>
					<frame-note>
						<string>2</string>
						<fret>3</fret>
					</frame-note>
					<frame-note>
						<string>1</string>
						<fret>3</fret>
					</frame-note>
				</frame>
				<offset>0</offset>
				<staff>1</staff>
			</harmony>
			<note>
				<pitch>
					<step>D</step>
					<octave>5</octave>
				</pitch>
				<duration>10</duration>
				<voice>1</voice>
				<type>eighth</type>
				<stem>down</stem>
				<beam number="1">begin</beam>
				<notations>
					<articulations>
						<strong-accent placement="above"/>
					</articulations>
				</notations>
			</note>
			<note>
				<pitch>
					<step>G</step>
					<octave>5</octave>
				</pitch>
				<duration>10</duration>
				<voice>1</voice>
				<type>eighth</type>
				<stem>down</stem>
				<beam number="1">continue</beam>
			</note>
			<note>
				<pitch>
					<step>F</step>
					<octave>5</octave>
				</pitch>
				<duration>10</duration>
				<voice>1</voice>
				<type>eighth</type>
				<accidental parentheses="no">natural</accidental>
				<stem>down</stem>
				<beam number="1">continue</beam>
			</note>
			<note>
				<pitch>
					<step>D</step>
					<alter>1</alter>
					<octave>5</octave>
				</pitch>
				<duration>10</duration>
				<voice>1</voice>
				<type>eighth</type>
				<accidental parentheses="no">sharp</accidental>
				<stem>down</stem>
				<beam number="1">end</beam>
			</note>
			<harmony default-y="98.9478">
				<root>
					<root-step>G</root-step>
					<root-alter>1</root-alter>
				</root>
				<kind>dominant</kind>
				<frame default-y="87.2530" valign="top">
					<frame-strings>6</frame-strings>
					<frame-frets>5</frame-frets>
					<frame-note>
						<string>6</string>
						<fret>0</fret>
					</frame-note>
					<frame-note>
						<string>5</string>
						<fret>0</fret>
					</frame-note>
					<frame-note>
						<string>4</string>
						<fret>1</fret>
					</frame-note>
					<frame-note>
						<string>3</string>
						<fret>2</fret>
					</frame-note>
					<frame-note>
						<string>2</string>
						<fret>1</fret>
					</frame-note>
					<frame-note>
						<string>1</string>
						<fret>1</fret>
					</frame-note>
				</frame>
				<offset>1</offset>
				<staff>1</staff>
			</harmony>
			<note>
				<pitch>
					<step>D</step>
					<octave>5</octave>
				</pitch>
				<duration>10</duration>
				<voice>1</voice>
				<type>eighth</type>
				<accidental parentheses="no">natural</accidental>
				<stem>down</stem>
				<beam number="1">begin</beam>
			</note>
			<note>
				<pitch>
					<step>D</step>
					<octave>5</octave>
				</pitch>
				<duration>10</duration>
				<voice>1</voice>
				<type>eighth</type>
				<stem>down</stem>
				<beam number="1">end</beam>
			</note>
			<note>
				<pitch>
					<step>C</step>
					<octave>5</octave>
				</pitch>
				<duration>20</duration>
				<voice>1</voice>
				<type>quarter</type>
				<stem>down</stem>
			</note>
		</measure><!--
===========================================================
-->

		<measure number="4" width="234">
			<print new-system="no"></print>
			<attributes></attributes>
			<direction placement="above">
				<direction-type>
					<segno/>
				</direction-type>
			</direction>
			<note>
				<pitch>
					<step>B</step>
					<octave>4</octave>
				</pitch>
				<duration>10</duration>
				<voice>1</voice>
				<type>eighth</type>
				<stem>up</stem>
				<beam number="1">begin</beam>
			</note>
			<harmony default-y="98.9478">
				<root>
					<root-step>G</root-step>
				</root>
				<kind>major-seventh</kind>
				<frame default-y="87.2530" valign="top">
					<frame-strings>6</frame-strings>
					<frame-frets>5</frame-frets>
					<frame-note>
						<string>6</string>
						<fret>3</fret>
					</frame-note>
					<frame-note>
						<string>5</string>
						<fret>0</fret>
					</frame-note>
					<frame-note>
						<string>4</string>
						<fret>0</fret>
					</frame-note>
					<frame-note>
						<string>3</string>
						<fret>0</fret>
					</frame-note>
					<frame-note>
						<string>2</string>
						<fret>0</fret>
					</frame-note>
					<frame-note>
						<string>1</string>
						<fret>2</fret>
					</frame-note>
				</frame>
				<offset>-4</offset>
				<staff>1</staff>
			</harmony>
			<note>
				<pitch>
					<step>B</step>
					<octave>4</octave>
				</pitch>
				<duration>10</duration>
				<voice>1</voice>
				<type>eighth</type>
				<stem>up</stem>
				<beam number="1">end</beam>
			</note>
			<note>
				<pitch>
					<step>F</step>
					<alter>1</alter>
					<octave>4</octave>
				</pitch>
				<duration>20</duration>
				<voice>1</voice>
				<type>quarter</type>
				<stem>up</stem>
			</note>
			<harmony default-y="98.9478">
				<root>
					<root-step>B</root-step>
				</root>
				<kind>dominant</kind>
				<frame default-y="87.2530" valign="top">
					<frame-strings>6</frame-strings>
					<frame-frets>5</frame-frets>
					<frame-note>
						<string>6</string>
						<fret>0</fret>
					</frame-note>
					<frame-note>
						<string>5</string>
						<fret>2</fret>
					</frame-note>
					<frame-note>
						<string>4</string>
						<fret>1</fret>
					</frame-note>
					<frame-note>
						<string>3</string>
						<fret>2</fret>
					</frame-note>
					<frame-note>
						<string>2</string>
						<fret>0</fret>
					</frame-note>
					<frame-note>
						<string>1</string>
						<fret>2</fret>
					</frame-note>
				</frame>
				<offset>-1</offset>
				<staff>1</staff>
			</harmony>
			<note>
				<pitch>
					<step>G</step>
					<octave>4</octave>
				</pitch>
				<duration>20</duration>
				<voice>1</voice>
				<type>quarter</type>
				<stem>up</stem>
			</note>
			<note>
				<rest/>
				<duration>20</duration>
				<voice>1</voice>
				<type>quarter</type>
			</note>
		</measure><!--
===========================================================
-->

		<measure number="5" width="221">
			<print new-system="no"></print>
			<attributes></attributes>
			<harmony default-y="98.9478">
				<root>
					<root-step>A</root-step>
				</root>
				<kind>minor-seventh</kind>
				<frame default-y="87.2530" valign="top">
					<frame-strings>6</frame-strings>
					<frame-frets>5</frame-frets>
					<frame-note>
						<string>6</string>
						<fret>0</fret>
					</frame-note>
					<frame-note>
						<string>5</string>
						<fret>0</fret>
					</frame-note>
					<frame-note>
						<string>4</string>
						<fret>2</fret>
					</frame-note>
					<frame-note>
						<string>3</string>
						<fret>0</fret>
					</frame-note>
					<frame-note>
						<string>2</string>
						<fret>1</fret>
					</frame-note>
					<frame-note>
						<string>1</string>
						<fret>0</fret>
					</frame-note>
				</frame>
				<offset>7</offset>
				<staff>1</staff>
			</harmony>
			<note>
				<rest/>
				<duration>40</duration>
				<voice>1</voice>
				<type>half</type>
			</note>
			<note>
				<rest/>
				<duration>20</duration>
				<voice>1</voice>
				<type>quarter</type>
			</note>
			<harmony default-y="98.9478">
				<root>
					<root-step>G</root-step>
					<root-alter>1</root-alter>
				</root>
				<kind>dominant</kind>
				<frame default-y="87.2530" valign="top">
					<frame-strings>6</frame-strings>
					<frame-frets>5</frame-frets>
					<frame-note>
						<string>6</string>
						<fret>0</fret>
					</frame-note>
					<frame-note>
						<string>5</string>
						<fret>0</fret>
					</frame-note>
					<frame-note>
						<string>4</string>
						<fret>1</fret>
					</frame-note>
					<frame-note>
						<string>3</string>
						<fret>2</fret>
					</frame-note>
					<frame-note>
						<string>2</string>
						<fret>1</fret>
					</frame-note>
					<frame-note>
						<string>1</string>
						<fret>1</fret>
					</frame-note>
				</frame>
				<offset>5</offset>
				<staff>1</staff>
			</harmony>
			<note>
				<pitch>
					<step>D</step>
					<octave>5</octave>
				</pitch>
				<duration>20</duration>
				<voice>1</voice>
				<type>quarter</type>
				<stem>down</stem>
			</note>
		</measure><!--
===========================================================
-->

		<measure number="6" width="290">
			<print new-system="yes">
				<system-layout>
					<system-margins>
						<left-margin>0</left-margin>
						<right-margin>0</right-margin>
					</system-margins>
					<system-distance>119</system-distance>
				</system-layout>
			</print>
			<attributes>
				<staff-details number="1" print-object="yes">
					<staff-size>112</staff-size>
				</staff-details>
			</attributes>
			<harmony default-y="94.7340">
				<root>
					<root-step>G</root-step>
				</root>
				<kind>major-seventh</kind>
				<frame default-y="83.5371" valign="top">
					<frame-strings>6</frame-strings>
					<frame-frets>5</frame-frets>
					<frame-note>
						<string>6</string>
						<fret>3</fret>
					</frame-note>
					<frame-note>
						<string>5</string>
						<fret>0</fret>
					</frame-note>
					<frame-note>
						<string>4</string>
						<fret>0</fret>
					</frame-note>
					<frame-note>
						<string>3</string>
						<fret>0</fret>
					</frame-note>
					<frame-note>
						<string>2</string>
						<fret>0</fret>
					</frame-note>
					<frame-note>
						<string>1</string>
						<fret>2</fret>
					</frame-note>
				</frame>
				<offset>0</offset>
				<staff>1</staff>
			</harmony>
			<note>
				<pitch>
					<step>G</step>
					<octave>5</octave>
				</pitch>
				<duration>20</duration>
				<voice>1</voice>
				<type>quarter</type>
				<stem>down</stem>
			</note>
			<note>
				<rest/>
				<duration>10</duration>
				<voice>1</voice>
				<type>eighth</type>
			</note>
			<harmony default-y="94.7340">
				<root>
					<root-step>E</root-step>
				</root>
				<kind>minor-seventh</kind>
				<frame default-y="83.5371" valign="top">
					<frame-strings>6</frame-strings>
					<frame-frets>5</frame-frets>
					<frame-note>
						<string>6</string>
						<fret>0</fret>
					</frame-note>
					<frame-note>
						<string>5</string>
						<fret>2</fret>
					</frame-note>
					<frame-note>
						<string>4</string>
						<fret>2</fret>
					</frame-note>
					<frame-note>
						<string>3</string>
						<fret>0</fret>
					</frame-note>
					<frame-note>
						<string>2</string>
						<fret>3</fret>
					</frame-note>
					<frame-note>
						<string>1</string>
						<fret>0</fret>
					</frame-note>
				</frame>
				<offset>2</offset>
				<staff>1</staff>
			</harmony>
			<note>
				<rest/>
				<duration>40</duration>
				<voice>1</voice>
				<type>half</type>
			</note>
			<note>
				<rest/>
				<duration>10</duration>
				<voice>1</voice>
				<type>eighth</type>
			</note>
		</measure><!--
===========================================================
-->

		<measure number="7" width="289">
			<print new-system="no"></print>
			<attributes></attributes>
			<harmony default-y="94.7340">
				<root>
					<root-step>D</root-step>
					<root-alter>1</root-alter>
				</root>
				<kind>major-seventh</kind>
				<frame default-y="83.5371" valign="top">
					<frame-strings>6</frame-strings>
					<frame-frets>5</frame-frets>
					<frame-note>
						<string>6</string>
						<fret>0</fret>
					</frame-note>
					<frame-note>
						<string>5</string>
						<fret>0</fret>
					</frame-note>
					<frame-note>
						<string>4</string>
						<fret>1</fret>
					</frame-note>
					<frame-note>
						<string>3</string>
						<fret>3</fret>
					</frame-note>
					<frame-note>
						<string>2</string>
						<fret>3</fret>
					</frame-note>
					<frame-note>
						<string>1</string>
						<fret>3</fret>
					</frame-note>
				</frame>
				<offset>2</offset>
				<staff>1</staff>
			</harmony>
			<note>
				<pitch>
					<step>D</step>
					<octave>5</octave>
				</pitch>
				<duration>10</duration>
				<voice>1</voice>
				<type>eighth</type>
				<stem>down</stem>
				<beam number="1">begin</beam>
			</note>
			<note>
				<pitch>
					<step>G</step>
					<octave>5</octave>
				</pitch>
				<duration>10</duration>
				<voice>1</voice>
				<type>eighth</type>
				<stem>down</stem>
				<beam number="1">continue</beam>
			</note>
			<note>
				<pitch>
					<step>F</step>
					<octave>5</octave>
				</pitch>
				<duration>10</duration>
				<voice>1</voice>
				<type>eighth</type>
				<accidental parentheses="no">natural</accidental>
				<stem>down</stem>
				<beam number="1">continue</beam>
			</note>
			<note>
				<pitch>
					<step>D</step>
					<alter>1</alter>
					<octave>5</octave>
				</pitch>
				<duration>10</duration>
				<voice>1</voice>
				<type>eighth</type>
				<accidental parentheses="no">sharp</accidental>
				<stem>down</stem>
				<beam number="1">end</beam>
			</note>
			<harmony default-y="94.7340">
				<root>
					<root-step>G</root-step>
					<root-alter>1</root-alter>
				</root>
				<kind>dominant</kind>
				<frame default-y="83.5371" valign="top">
					<frame-strings>6</frame-strings>
					<frame-frets>5</frame-frets>
					<frame-note>
						<string>6</string>
						<fret>0</fret>
					</frame-note>
					<frame-note>
						<string>5</string>
						<fret>0</fret>
					</frame-note>
					<frame-note>
						<string>4</string>
						<fret>1</fret>
					</frame-note>
					<frame-note>
						<string>3</string>
						<fret>2</fret>
					</frame-note>
					<frame-note>
						<string>2</string>
						<fret>1</fret>
					</frame-note>
					<frame-note>
						<string>1</string>
						<fret>1</fret>
					</frame-note>
				</frame>
				<offset>2</offset>
				<staff>1</staff>
			</harmony>
			<note>
				<pitch>
					<step>D</step>
					<octave>5</octave>
				</pitch>
				<duration>10</duration>
				<voice>1</voice>
				<type>eighth</type>
				<accidental parentheses="no">natural</accidental>
				<stem>down</stem>
				<beam number="1">begin</beam>
			</note>
			<note>
				<pitch>
					<step>D</step>
					<octave>5</octave>
				</pitch>
				<duration>10</duration>
				<voice>1</voice>
				<type>eighth</type>
				<stem>down</stem>
				<beam number="1">end</beam>
			</note>
			<note>
				<pitch>
					<step>C</step>
					<octave>5</octave>
				</pitch>
				<duration>20</duration>
				<voice>1</voice>
				<type>quarter</type>
				<stem>down</stem>
			</note>
		</measure><!--
===========================================================
-->

		<measure number="8" width="277">
			<print new-system="no"></print>
			<attributes></attributes>
			<harmony default-y="94.7340">
				<root>
					<root-step>G</root-step>
				</root>
				<kind>major-seventh</kind>
				<frame default-y="83.5371" valign="top">
					<frame-strings>6</frame-strings>
					<frame-frets>5</frame-frets>
					<frame-note>
						<string>6</string>
						<fret>3</fret>
					</frame-note>
					<frame-note>
						<string>5</string>
						<fret>0</fret>
					</frame-note>
					<frame-note>
						<string>4</string>
						<fret>0</fret>
					</frame-note>
					<frame-note>
						<string>3</string>
						<fret>0</fret>
					</frame-note>
					<frame-note>
						<string>2</string>
						<fret>0</fret>
					</frame-note>
					<frame-note>
						<string>1</string>
						<fret>2</fret>
					</frame-note>
				</frame>
				<offset>1</offset>
				<staff>1</staff>
			</harmony>
			<note>
				<pitch>
					<step>B</step>
					<octave>4</octave>
				</pitch>
				<duration>10</duration>
				<voice>1</voice>
				<type>eighth</type>
				<stem>up</stem>
				<beam number="1">begin</beam>
			</note>
			<note>
				<pitch>
					<step>B</step>
					<octave>4</octave>
				</pitch>
				<duration>10</duration>
				<voice>1</voice>
				<type>eighth</type>
				<stem>up</stem>
				<beam number="1">end</beam>
			</note>
			<note>
				<pitch>
					<step>F</step>
					<alter>1</alter>
					<octave>4</octave>
				</pitch>
				<duration>20</duration>
				<voice>1</voice>
				<type>quarter</type>
				<stem>up</stem>
			</note>
			<harmony default-y="94.7340">
				<root>
					<root-step>A</root-step>
				</root>
				<kind>minor-seventh</kind>
				<frame default-y="83.5371" valign="top">
					<frame-strings>6</frame-strings>
					<frame-frets>5</frame-frets>
					<frame-note>
						<string>6</string>
						<fret>0</fret>
					</frame-note>
					<frame-note>
						<string>5</string>
						<fret>0</fret>
					</frame-note>
					<frame-note>
						<string>4</string>
						<fret>2</fret>
					</frame-note>
					<frame-note>
						<string>3</string>
						<fret>0</fret>
					</frame-note>
					<frame-note>
						<string>2</string>
						<fret>1</fret>
					</frame-note>
					<frame-note>
						<string>1</string>
						<fret>0</fret>
					</frame-note>
				</frame>
				<offset>4</offset>
				<staff>1</staff>
			</harmony>
			<note>
				<pitch>
					<step>G</step>
					<octave>4</octave>
				</pitch>
				<duration>20</duration>
				<voice>1</voice>
				<type>quarter</type>
				<stem>up</stem>
			</note>
			<note>
				<rest/>
				<duration>20</duration>
				<voice>1</voice>
				<type>quarter</type>
			</note>
		</measure><!--
===========================================================
-->

		<measure number="9" width="260">
			<print new-system="no"></print>
			<attributes></attributes>
			<harmony default-y="94.7340">
				<root>
					<root-step>D</root-step>
				</root>
				<kind>minor-seventh</kind>
				<frame default-y="83.5371" valign="top">
					<frame-strings>6</frame-strings>
					<frame-frets>5</frame-frets>
					<frame-note>
						<string>6</string>
						<fret>0</fret>
					</frame-note>
					<frame-note>
						<string>5</string>
						<fret>0</fret>
					</frame-note>
					<frame-note>
						<string>4</string>
						<fret>0</fret>
					</frame-note>
					<frame-note>
						<string>3</string>
						<fret>2</fret>
					</frame-note>
					<frame-note>
						<string>2</string>
						<fret>1</fret>
					</frame-note>
					<frame-note>
						<string>1</string>
						<fret>1</fret>
					</frame-note>
				</frame>
				<offset>6</offset>
				<staff>1</staff>
			</harmony>
			<note>
				<rest/>
				<duration>40</duration>
				<voice>1</voice>
				<type>half</type>
			</note>
			<harmony default-y="94.7340">
				<root>
					<root-step>C</root-step>
					<root-alter>1</root-alter>
				</root>
				<kind>dominant</kind>
				<frame default-y="83.5371" valign="top">
					<frame-strings>6</frame-strings>
					<frame-frets>5</frame-frets>
					<frame-note>
						<string>6</string>
						<fret>0</fret>
					</frame-note>
					<frame-note>
						<string>5</string>
						<fret>0</fret>
					</frame-note>
					<frame-note>
						<string>4</string>
						<fret>3</fret>
					</frame-note>
					<frame-note>
						<string>3</string>
						<fret>4</fret>
					</frame-note>
					<frame-note>
						<string>2</string>
						<fret>2</fret>
					</frame-note>
					<frame-note>
						<string>1</string>
						<fret>4</fret>
					</frame-note>
				</frame>
				<offset>7</offset>
				<staff>1</staff>
			</harmony>
			<note>
				<rest/>
				<duration>20</duration>
				<voice>1</voice>
				<type>quarter</type>
			</note>
			<note>
				<pitch>
					<step>G</step>
					<octave>5</octave>
				</pitch>
				<duration>20</duration>
				<voice>1</voice>
				<type>quarter</type>
				<stem>down</stem>
			</note>
			<barline location="right">
				<bar-style>light-light</bar-style>
			</barline>
		</measure><!--
===========================================================
-->

		<measure number="10" width="277">
			<print new-system="yes">
				<system-layout>
					<system-margins>
						<left-margin>9</left-margin>
						<right-margin>0</right-margin>
					</system-margins>
					<system-distance>118</system-distance>
				</system-layout>
			</print>
			<attributes>
				<staff-details number="1" print-object="yes">
					<staff-size>117</staff-size>
				</staff-details>
			</attributes>
			<harmony default-y="98.9478">
				<root>
					<root-step>C</root-step>
				</root>
				<kind>major-seventh</kind>
				<frame default-y="87.2530" valign="top">
					<frame-strings>6</frame-strings>
					<frame-frets>5</frame-frets>
					<frame-note>
						<string>6</string>
						<fret>0</fret>
					</frame-note>
					<frame-note>
						<string>5</string>
						<fret>3</fret>
					</frame-note>
					<frame-note>
						<string>4</string>
						<fret>2</fret>
					</frame-note>
					<frame-note>
						<string>3</string>
						<fret>0</fret>
					</frame-note>
					<frame-note>
						<string>2</string>
						<fret>0</fret>
					</frame-note>
					<frame-note>
						<string>1</string>
						<fret>0</fret>
					</frame-note>
				</frame>
				<offset>0</offset>
				<staff>1</staff>
			</harmony>
			<note>
				<pitch>
					<step>C</step>
					<octave>6</octave>
				</pitch>
				<duration>20</duration>
				<voice>1</voice>
				<type>quarter</type>
				<stem>down</stem>
				<notations>
					<articulations>
						<strong-accent placement="above"/>
					</articulations>
				</notations>
			</note>
			<direction placement="below">
				<direction-type>
					<dynamics>
						<f/>
					</dynamics>
				</direction-type>
				<staff>1</staff>
				<sound dynamics="100"/>
			</direction>
			<note>
				<rest/>
				<duration>20</duration>
				<voice>1</voice>
				<type>quarter</type>
			</note>
			<harmony default-y="98.9478">
				<root>
					<root-step>A</root-step>
				</root>
				<kind>minor-seventh</kind>
				<frame default-y="87.2530" valign="top">
					<frame-strings>6</frame-strings>
					<frame-frets>5</frame-frets>
					<frame-note>
						<string>6</string>
						<fret>0</fret>
					</frame-note>
					<frame-note>
						<string>5</string>
						<fret>0</fret>
					</frame-note>
					<frame-note>
						<string>4</string>
						<fret>2</fret>
					</frame-note>
					<frame-note>
						<string>3</string>
						<fret>0</fret>
					</frame-note>
					<frame-note>
						<string>2</string>
						<fret>1</fret>
					</frame-note>
					<frame-note>
						<string>1</string>
						<fret>0</fret>
					</frame-note>
				</frame>
				<offset>-7</offset>
				<staff>1</staff>
			</harmony>
			<note>
				<rest/>
				<duration>40</duration>
				<voice>1</voice>
				<type>half</type>
			</note>
		</measure><!--
===========================================================
-->

		<measure number="11" width="343">
			<print new-system="no"></print>
			<attributes></attributes>
			<harmony default-y="98.9478">
				<root>
					<root-step>G</root-step>
					<root-alter>1</root-alter>
				</root>
				<kind>major-seventh</kind>
				<frame default-y="87.2530" valign="top">
					<frame-strings>6</frame-strings>
					<frame-frets>5</frame-frets>
					<frame-note>
						<string>6</string>
						<fret>0</fret>
					</frame-note>
					<frame-note>
						<string>5</string>
						<fret>0</fret>
					</frame-note>
					<frame-note>
						<string>4</string>
						<fret>1</fret>
					</frame-note>
					<frame-note>
						<string>3</string>
						<fret>1</fret>
					</frame-note>
					<frame-note>
						<string>2</string>
						<fret>1</fret>
					</frame-note>
					<frame-note>
						<string>1</string>
						<fret>3</fret>
					</frame-note>
				</frame>
				<offset>0</offset>
				<staff>1</staff>
			</harmony>
			<note>
				<pitch>
					<step>G</step>
					<octave>5</octave>
				</pitch>
				<duration>10</duration>
				<voice>1</voice>
				<type>eighth</type>
				<stem>down</stem>
				<beam number="1">begin</beam>
				<notations>
					<slur type="start" number="1"></slur>
				</notations>
			</note>
			<note>
				<pitch>
					<step>C</step>
					<octave>6</octave>
				</pitch>
				<duration>10</duration>
				<voice>1</voice>
				<type>eighth</type>
				<stem>down</stem>
				<beam number="1">continue</beam>
				<notations></notations>
			</note>
			<note>
				<pitch>
					<step>A</step>
					<alter>1</alter>
					<octave>5</octave>
				</pitch>
				<duration>10</duration>
				<voice>1</voice>
				<type>eighth</type>
				<accidental parentheses="no">sharp</accidental>
				<stem>down</stem>
				<beam number="1">continue</beam>
				<notations></notations>
			</note>
			<note>
				<pitch>
					<step>G</step>
					<alter>1</alter>
					<octave>5</octave>
				</pitch>
				<duration>10</duration>
				<voice>1</voice>
				<type>eighth</type>
				<accidental parentheses="no">sharp</accidental>
				<stem>down</stem>
				<beam number="1">end</beam>
				<notations>
					<slur type="stop" number="1"></slur>
				</notations>
			</note>
			<harmony default-y="98.9478">
				<root>
					<root-step>C</root-step>
					<root-alter>1</root-alter>
				</root>
				<kind>dominant</kind>
				<frame default-y="87.2530" valign="top">
					<frame-strings>6</frame-strings>
					<frame-frets>5</frame-frets>
					<frame-note>
						<string>6</string>
						<fret>0</fret>
					</frame-note>
					<frame-note>
						<string>5</string>
						<fret>0</fret>
					</frame-note>
					<frame-note>
						<string>4</string>
						<fret>3</fret>
					</frame-note>
					<frame-note>
						<string>3</string>
						<fret>4</fret>
					</frame-note>
					<frame-note>
						<string>2</string>
						<fret>2</fret>
					</frame-note>
					<frame-note>
						<string>1</string>
						<fret>4</fret>
					</frame-note>
				</frame>
				<offset>0</offset>
				<staff>1</staff>
			</harmony>
			<note>
				<pitch>
					<step>G</step>
					<octave>5</octave>
				</pitch>
				<duration>10</duration>
				<voice>1</voice>
				<type>eighth</type>
				<accidental parentheses="no">natural</accidental>
				<stem>down</stem>
				<beam number="1">begin</beam>
			</note>
			<note>
				<pitch>
					<step>G</step>
					<octave>5</octave>
				</pitch>
				<duration>10</duration>
				<voice>1</voice>
				<type>eighth</type>
				<stem>down</stem>
				<beam number="1">end</beam>
			</note>
			<note>
				<pitch>
					<step>F</step>
					<octave>5</octave>
				</pitch>
				<duration>20</duration>
				<voice>1</voice>
				<type>quarter</type>
				<accidental parentheses="no">natural</accidental>
				<stem>down</stem>
			</note>
		</measure><!--
===========================================================
-->

		<measure number="12" width="262">
			<print new-system="no"></print>
			<attributes></attributes>
			<harmony default-y="98.9478">
				<root>
					<root-step>C</root-step>
				</root>
				<kind>major-seventh</kind>
				<frame default-y="87.2530" valign="top">
					<frame-strings>6</frame-strings>
					<frame-frets>5</frame-frets>
					<frame-note>
						<string>6</string>
						<fret>0</fret>
					</frame-note>
					<frame-note>
						<string>5</string>
						<fret>3</fret>
					</frame-note>
					<frame-note>
						<string>4</string>
						<fret>2</fret>
					</frame-note>
					<frame-note>
						<string>3</string>
						<fret>0</fret>
					</frame-note>
					<frame-note>
						<string>2</string>
						<fret>0</fret>
					</frame-note>
					<frame-note>
						<string>1</string>
						<fret>0</fret>
					</frame-note>
				</frame>
				<offset>1</offset>
				<staff>1</staff>
			</harmony>
			<note>
				<pitch>
					<step>E</step>
					<octave>5</octave>
				</pitch>
				<duration>10</duration>
				<voice>1</voice>
				<type>eighth</type>
				<stem>down</stem>
				<beam number="1">begin</beam>
			</note>
			<note>
				<pitch>
					<step>E</step>
					<octave>5</octave>
				</pitch>
				<duration>10</duration>
				<voice>1</voice>
				<type>eighth</type>
				<stem>down</stem>
				<beam number="1">end</beam>
			</note>
			<note>
				<pitch>
					<step>B</step>
					<octave>4</octave>
				</pitch>
				<duration>20</duration>
				<voice>1</voice>
				<type>quarter</type>
				<stem>up</stem>
			</note>
			<harmony default-y="98.9478">
				<root>
					<root-step>A</root-step>
					<root-alter>1</root-alter>
				</root>
				<kind>dominant</kind>
				<frame default-y="87.2530" valign="top">
					<frame-strings>6</frame-strings>
					<frame-frets>5</frame-frets>
					<frame-note>
						<string>6</string>
						<fret>0</fret>
					</frame-note>
					<frame-note>
						<string>5</string>
						<fret>1</fret>
					</frame-note>
					<frame-note>
						<string>4</string>
						<fret>3</fret>
					</frame-note>
					<frame-note>
						<string>3</string>
						<fret>1</fret>
					</frame-note>
					<frame-note>
						<string>2</string>
						<fret>3</fret>
					</frame-note>
					<frame-note>
						<string>1</string>
						<fret>0</fret>
					</frame-note>
				</frame>
				<offset>-7</offset>
				<staff>1</staff>
			</harmony>
			<note>
				<pitch>
					<step>C</step>
					<octave>5</octave>
				</pitch>
				<duration>20</duration>
				<voice>1</voice>
				<type>quarter</type>
				<stem>down</stem>
			</note>
			<note>
				<rest/>
				<duration>20</duration>
				<voice>1</voice>
				<type>quarter</type>
			</note>
		</measure><!--
===========================================================
-->

		<measure number="13" width="225">
			<print new-system="no"></print>
			<attributes></attributes>
			<harmony default-y="98.9478">
				<root>
					<root-step>D</root-step>
					<root-alter>1</root-alter>
				</root>
				<kind>major-seventh</kind>
				<frame default-y="87.2530" valign="top">
					<frame-strings>6</frame-strings>
					<frame-frets>5</frame-frets>
					<frame-note>
						<string>6</string>
						<fret>0</fret>
					</frame-note>
					<frame-note>
						<string>5</string>
						<fret>0</fret>
					</frame-note>
					<frame-note>
						<string>4</string>
						<fret>1</fret>
					</frame-note>
					<frame-note>
						<string>3</string>
						<fret>3</fret>
					</frame-note>
					<frame-note>
						<string>2</string>
						<fret>3</fret>
					</frame-note>
					<frame-note>
						<string>1</string>
						<fret>3</fret>
					</frame-note>
				</frame>
				<offset>2</offset>
				<staff>1</staff>
			</harmony>
			<note>
				<rest/>
				<duration>40</duration>
				<voice>1</voice>
				<type>half</type>
			</note>
			<note>
				<rest/>
				<duration>20</duration>
				<voice>1</voice>
				<type>quarter</type>
			</note>
			<harmony default-y="98.9478">
				<root>
					<root-step>G</root-step>
					<root-alter>1</root-alter>
				</root>
				<kind>dominant</kind>
				<frame default-y="87.2530" valign="top">
					<frame-strings>6</frame-strings>
					<frame-frets>5</frame-frets>
					<frame-note>
						<string>6</string>
						<fret>0</fret>
					</frame-note>
					<frame-note>
						<string>5</string>
						<fret>0</fret>
					</frame-note>
					<frame-note>
						<string>4</string>
						<fret>1</fret>
					</frame-note>
					<frame-note>
						<string>3</string>
						<fret>2</fret>
					</frame-note>
					<frame-note>
						<string>2</string>
						<fret>1</fret>
					</frame-note>
					<frame-note>
						<string>1</string>
						<fret>1</fret>
					</frame-note>
				</frame>
				<offset>-1</offset>
				<staff>1</staff>
			</harmony>
			<note>
				<pitch>
					<step>D</step>
					<octave>5</octave>
				</pitch>
				<duration>20</duration>
				<voice>1</voice>
				<type>quarter</type>
				<stem>down</stem>
			</note>
		</measure><!--
===========================================================
-->

		<measure number="14" width="285">
			<print new-system="yes">
				<system-layout>
					<system-margins>
						<left-margin>1</left-margin>
						<right-margin>0</right-margin>
					</system-margins>
					<system-distance>121</system-distance>
				</system-layout>
			</print>
			<attributes></attributes>
			<harmony default-y="98.9478">
				<root>
					<root-step>G</root-step>
				</root>
				<kind>major-seventh</kind>
				<frame default-y="87.2530" valign="top">
					<frame-strings>6</frame-strings>
					<frame-frets>5</frame-frets>
					<frame-note>
						<string>6</string>
						<fret>3</fret>
					</frame-note>
					<frame-note>
						<string>5</string>
						<fret>0</fret>
					</frame-note>
					<frame-note>
						<string>4</string>
						<fret>0</fret>
					</frame-note>
					<frame-note>
						<string>3</string>
						<fret>0</fret>
					</frame-note>
					<frame-note>
						<string>2</string>
						<fret>0</fret>
					</frame-note>
					<frame-note>
						<string>1</string>
						<fret>2</fret>
					</frame-note>
				</frame>
				<offset>6</offset>
				<staff>1</staff>
			</harmony>
			<note>
				<pitch>
					<step>G</step>
					<octave>5</octave>
				</pitch>
				<duration>20</duration>
				<voice>1</voice>
				<type>quarter</type>
				<stem>down</stem>
			</note>
			<note>
				<rest/>
				<duration>20</duration>
				<voice>1</voice>
				<type>quarter</type>
			</note>
			<direction placement="above">
				<direction-type>
					<dynamics>
						<p/>
					</dynamics>
				</direction-type>
				<staff>1</staff>
				<sound dynamics="68"/>
			</direction>
			<harmony default-y="98.9478">
				<root>
					<root-step>E</root-step>
				</root>
				<kind>minor-seventh</kind>
				<frame default-y="87.2530" valign="top">
					<frame-strings>6</frame-strings>
					<frame-frets>5</frame-frets>
					<frame-note>
						<string>6</string>
						<fret>0</fret>
					</frame-note>
					<frame-note>
						<string>5</string>
						<fret>2</fret>
					</frame-note>
					<frame-note>
						<string>4</string>
						<fret>2</fret>
					</frame-note>
					<frame-note>
						<string>3</string>
						<fret>0</fret>
					</frame-note>
					<frame-note>
						<string>2</string>
						<fret>3</fret>
					</frame-note>
					<frame-note>
						<string>1</string>
						<fret>0</fret>
					</frame-note>
				</frame>
				<offset>-7</offset>
				<staff>1</staff>
			</harmony>
			<note>
				<rest/>
				<duration>40</duration>
				<voice>1</voice>
				<type>half</type>
			</note>
		</measure><!--
===========================================================
-->

		<measure number="15" width="318">
			<print new-system="no"></print>
			<attributes></attributes>
			<direction placement="above">
				<direction-type>
					<segno/>
				</direction-type>
			</direction>
			<harmony default-y="98.9478">
				<root>
					<root-step>D</root-step>
					<root-alter>1</root-alter>
				</root>
				<kind>major-seventh</kind>
				<frame default-y="87.2530" valign="top">
					<frame-strings>6</frame-strings>
					<frame-frets>5</frame-frets>
					<frame-note>
						<string>6</string>
						<fret>0</fret>
					</frame-note>
					<frame-note>
						<string>5</string>
						<fret>0</fret>
					</frame-note>
					<frame-note>
						<string>4</string>
						<fret>1</fret>
					</frame-note>
					<frame-note>
						<string>3</string>
						<fret>3</fret>
					</frame-note>
					<frame-note>
						<string>2</string>
						<fret>3</fret>
					</frame-note>
					<frame-note>
						<string>1</string>
						<fret>3</fret>
					</frame-note>
				</frame>
				<offset>2</offset>
				<staff>1</staff>
			</harmony>
			<note>
				<pitch>
					<step>D</step>
					<octave>5</octave>
				</pitch>
				<duration>10</duration>
				<voice>1</voice>
				<type>eighth</type>
				<stem>down</stem>
				<beam number="1">begin</beam>
			</note>
			<note>
				<pitch>
					<step>G</step>
					<octave>5</octave>
				</pitch>
				<duration>10</duration>
				<voice>1</voice>
				<type>eighth</type>
				<stem>down</stem>
				<beam number="1">continue</beam>
			</note>
			<note>
				<pitch>
					<step>F</step>
					<octave>5</octave>
				</pitch>
				<duration>10</duration>
				<voice>1</voice>
				<type>eighth</type>
				<accidental parentheses="no">natural</accidental>
				<stem>down</stem>
				<beam number="1">continue</beam>
			</note>
			<note>
				<pitch>
					<step>D</step>
					<alter>1</alter>
					<octave>5</octave>
				</pitch>
				<duration>10</duration>
				<voice>1</voice>
				<type>eighth</type>
				<accidental parentheses="no">sharp</accidental>
				<stem>down</stem>
				<beam number="1">end</beam>
			</note>
			<harmony default-y="98.9478">
				<root>
					<root-step>G</root-step>
					<root-alter>1</root-alter>
				</root>
				<kind>dominant</kind>
				<frame default-y="87.2530" valign="top">
					<frame-strings>6</frame-strings>
					<frame-frets>5</frame-frets>
					<frame-note>
						<string>6</string>
						<fret>0</fret>
					</frame-note>
					<frame-note>
						<string>5</string>
						<fret>0</fret>
					</frame-note>
					<frame-note>
						<string>4</string>
						<fret>1</fret>
					</frame-note>
					<frame-note>
						<string>3</string>
						<fret>2</fret>
					</frame-note>
					<frame-note>
						<string>2</string>
						<fret>1</fret>
					</frame-note>
					<frame-note>
						<string>1</string>
						<fret>1</fret>
					</frame-note>
				</frame>
				<offset>2</offset>
				<staff>1</staff>
			</harmony>
			<note>
				<pitch>
					<step>D</step>
					<octave>5</octave>
				</pitch>
				<duration>10</duration>
				<voice>1</voice>
				<type>eighth</type>
				<accidental parentheses="no">natural</accidental>
				<stem>down</stem>
				<beam number="1">begin</beam>
			</note>
			<note>
				<pitch>
					<step>D</step>
					<octave>5</octave>
				</pitch>
				<duration>10</duration>
				<voice>1</voice>
				<type>eighth</type>
				<stem>down</stem>
				<beam number="1">end</beam>
			</note>
			<note>
				<pitch>
					<step>C</step>
					<octave>5</octave>
				</pitch>
				<duration>20</duration>
				<voice>1</voice>
				<type>quarter</type>
				<stem>down</stem>
			</note>
		</measure><!--
===========================================================
-->

		<measure number="16" width="285">
			<print new-system="no"></print>
			<attributes></attributes>
			<harmony default-y="98.9478">
				<root>
					<root-step>G</root-step>
				</root>
				<kind>major-seventh</kind>
				<frame default-y="87.2530" valign="top">
					<frame-strings>6</frame-strings>
					<frame-frets>5</frame-frets>
					<frame-note>
						<string>6</string>
						<fret>3</fret>
					</frame-note>
					<frame-note>
						<string>5</string>
						<fret>0</fret>
					</frame-note>
					<frame-note>
						<string>4</string>
						<fret>0</fret>
					</frame-note>
					<frame-note>
						<string>3</string>
						<fret>0</fret>
					</frame-note>
					<frame-note>
						<string>2</string>
						<fret>0</fret>
					</frame-note>
					<frame-note>
						<string>1</string>
						<fret>2</fret>
					</frame-note>
				</frame>
				<offset>2</offset>
				<staff>1</staff>
			</harmony>
			<note>
				<pitch>
					<step>B</step>
					<octave>4</octave>
				</pitch>
				<duration>10</duration>
				<voice>1</voice>
				<type>eighth</type>
				<stem>up</stem>
				<beam number="1">begin</beam>
			</note>
			<note>
				<pitch>
					<step>B</step>
					<octave>4</octave>
				</pitch>
				<duration>10</duration>
				<voice>1</voice>
				<type>eighth</type>
				<stem>up</stem>
				<beam number="1">end</beam>
			</note>
			<note>
				<pitch>
					<step>F</step>
					<alter>1</alter>
					<octave>4</octave>
				</pitch>
				<duration>20</duration>
				<voice>1</voice>
				<type>quarter</type>
				<stem>up</stem>
			</note>
			<harmony default-y="98.9478">
				<root>
					<root-step>F</root-step>
				</root>
				<kind>dominant</kind>
				<frame default-y="87.2530" valign="top">
					<frame-strings>6</frame-strings>
					<frame-frets>5</frame-frets>
					<frame-note>
						<string>6</string>
						<fret>1</fret>
					</frame-note>
					<frame-note>
						<string>5</string>
						<fret>3</fret>
					</frame-note>
					<frame-note>
						<string>4</string>
						<fret>1</fret>
					</frame-note>
					<frame-note>
						<string>3</string>
						<fret>2</fret>
					</frame-note>
					<frame-note>
						<string>2</string>
						<fret>1</fret>
					</frame-note>
					<frame-note>
						<string>1</string>
						<fret>1</fret>
					</frame-note>
				</frame>
				<offset>0</offset>
				<staff>1</staff>
			</harmony>
			<note>
				<pitch>
					<step>G</step>
					<octave>4</octave>
				</pitch>
				<duration>20</duration>
				<voice>1</voice>
				<type>quarter</type>
				<stem>up</stem>
			</note>
			<note>
				<rest/>
				<duration>20</duration>
				<voice>1</voice>
				<type>quarter</type>
			</note>
		</measure><!--
===========================================================
-->

		<measure number="17" width="226">
			<print new-system="no"></print>
			<attributes></attributes>
			<harmony default-y="98.9478">
				<root>
					<root-step>G</root-step>
				</root>
				<kind>major-seventh</kind>
				<frame default-y="87.2530" valign="top">
					<frame-strings>6</frame-strings>
					<frame-frets>5</frame-frets>
					<frame-note>
						<string>6</string>
						<fret>3</fret>
					</frame-note>
					<frame-note>
						<string>5</string>
						<fret>0</fret>
					</frame-note>
					<frame-note>
						<string>4</string>
						<fret>0</fret>
					</frame-note>
					<frame-note>
						<string>3</string>
						<fret>0</fret>
					</frame-note>
					<frame-note>
						<string>2</string>
						<fret>0</fret>
					</frame-note>
					<frame-note>
						<string>1</string>
						<fret>2</fret>
					</frame-note>
				</frame>
				<offset>0</offset>
				<staff>1</staff>
			</harmony>
			<note>
				<rest/>
				<duration>40</duration>
				<voice>1</voice>
				<type>half</type>
			</note>
			<harmony default-y="98.9478">
				<root>
					<root-step>G</root-step>
				</root>
				<kind>major-seventh</kind>
				<frame default-y="87.2530" valign="top">
					<frame-strings>6</frame-strings>
					<frame-frets>5</frame-frets>
					<frame-note>
						<string>6</string>
						<fret>3</fret>
					</frame-note>
					<frame-note>
						<string>5</string>
						<fret>0</fret>
					</frame-note>
					<frame-note>
						<string>4</string>
						<fret>0</fret>
					</frame-note>
					<frame-note>
						<string>3</string>
						<fret>0</fret>
					</frame-note>
					<frame-note>
						<string>2</string>
						<fret>0</fret>
					</frame-note>
					<frame-note>
						<string>1</string>
						<fret>2</fret>
					</frame-note>
				</frame>
				<offset>-2</offset>
				<staff>1</staff>
			</harmony>
			<note>
				<rest/>
				<duration>40</duration>
				<voice>1</voice>
				<type>half</type>
			</note>
			<barline location="right">
				<bar-style>light-heavy</bar-style>
			</barline>
		</measure>
	</part>
</score-partwise>